<svg width="800" height="344" fill="none" xmlns="http://www.w3.org/2000/svg"><rect x="448" width="352" height="200" rx="3" fill="#FFF2D9"/><path d="M471.472 25.563h2.028c-.04-1.966-1.716-3.358-4.193-3.358-2.443 0-4.279 1.375-4.273 3.431 0 1.67 1.188 2.631 3.102 3.125l1.324.341c1.256.319 2.085.71 2.091 1.614-.006.994-.949 1.659-2.324 1.659-1.318 0-2.341-.59-2.426-1.813h-2.074c.085 2.313 1.807 3.614 4.517 3.614 2.79 0 4.409-1.392 4.415-3.443-.006-2.017-1.67-2.938-3.42-3.352l-1.091-.273c-.955-.227-1.989-.63-1.978-1.602.006-.875.79-1.517 2.108-1.517 1.256 0 2.086.585 2.194 1.573zm6.032 3.323c0-1.261.784-1.988 1.887-1.988 1.079 0 1.716.687 1.716 1.863V34h2.056v-5.557c0-2.108-1.193-3.284-3.005-3.284-1.341 0-2.194.608-2.597 1.597h-.102v-4.392h-2.012V34h2.057v-5.114zm10.267 5.29c1.37 0 2.188-.642 2.563-1.375h.068V34h1.977v-5.84c0-2.308-1.88-3-3.545-3-1.835 0-3.245.817-3.699 2.408l1.92.273c.205-.597.784-1.108 1.79-1.108.955 0 1.477.489 1.477 1.346v.035c0 .59-.619.619-2.159.784-1.693.181-3.312.687-3.312 2.653 0 1.716 1.256 2.625 2.92 2.625zm.534-1.511c-.858 0-1.471-.392-1.471-1.148 0-.79.687-1.12 1.608-1.25.54-.074 1.619-.21 1.886-.426v1.028c0 .972-.784 1.796-2.023 1.796zM494.447 34h2.057v-5.13c0-1.109.835-1.893 1.966-1.893.347 0 .779.063.955.12v-1.893a4.964 4.964 0 00-.739-.056c-1 0-1.835.568-2.153 1.58h-.091v-1.455h-1.995V34zm9.848.17c2.035 0 3.432-.994 3.796-2.51l-1.921-.217c-.278.739-.96 1.125-1.846 1.125-1.33 0-2.21-.875-2.227-2.37h6.079v-.63c0-3.062-1.841-4.409-3.988-4.409-2.5 0-4.131 1.835-4.131 4.529 0 2.738 1.608 4.482 4.238 4.482zm-2.193-5.358c.063-1.113.887-2.05 2.114-2.05 1.182 0 1.977.863 1.989 2.05h-4.103zm11.053 5.341c1.5 0 2.176-.892 2.5-1.528h.125V34h2.023V22.364h-2.063v4.352h-.085c-.313-.63-.955-1.557-2.494-1.557-2.018 0-3.603 1.58-3.603 4.489 0 2.875 1.54 4.505 3.597 4.505zm.574-1.687c-1.358 0-2.074-1.193-2.074-2.83 0-1.625.704-2.79 2.074-2.79 1.324 0 2.051 1.097 2.051 2.79 0 1.694-.739 2.83-2.051 2.83zM526.503 34h2.079l2.336-8.165h.091L533.338 34h2.08l3.284-11.636h-2.267l-2.097 8.556h-.102l-2.245-8.556h-2.062l-2.239 8.55h-.108l-2.096-8.55h-2.267L526.503 34zm16.486.17c2.556 0 4.181-1.8 4.181-4.5 0-2.704-1.625-4.51-4.181-4.51-2.557 0-4.182 1.806-4.182 4.51 0 2.7 1.625 4.5 4.182 4.5zm.011-1.647c-1.415 0-2.108-1.262-2.108-2.858 0-1.597.693-2.875 2.108-2.875 1.392 0 2.085 1.278 2.085 2.875 0 1.596-.693 2.858-2.085 2.858zM548.916 34h2.057v-5.13c0-1.109.835-1.893 1.966-1.893.347 0 .778.063.954.12v-1.893a4.94 4.94 0 00-.738-.056c-1 0-1.835.568-2.154 1.58h-.09v-1.455h-1.995V34zm6.344 0h2.057v-2.932l.75-.801 2.67 3.733h2.46l-3.579-4.96 3.381-3.767h-2.404l-3.136 3.505h-.142v-6.414h-2.057V34zm12.614.17c2.034 0 3.431-.994 3.795-2.51l-1.92-.217c-.279.739-.961 1.125-1.847 1.125-1.33 0-2.21-.875-2.227-2.37h6.079v-.63c0-3.062-1.841-4.409-3.988-4.409-2.5 0-4.131 1.835-4.131 4.529 0 2.738 1.608 4.482 4.239 4.482zm-2.194-5.358c.063-1.113.887-2.05 2.114-2.05 1.182 0 1.977.863 1.989 2.05h-4.103zM573.494 34h2.057v-5.13c0-1.109.835-1.893 1.966-1.893.347 0 .778.063.955.12v-1.893a4.964 4.964 0 00-.739-.056c-1 0-1.835.568-2.153 1.58h-.091v-1.455h-1.995V34z" fill="#000"/><rect x="464" y="56" width="320" height="56" rx="3" fill="#FFDE9E"/><path d="M481.278 78.364V90h1.671v-8.426h.108l3.432 8.409h1.386l3.432-8.404h.108V90h1.67V78.364h-2.13l-3.705 9.045h-.136l-3.705-9.045h-2.131zm16.763 11.83c1.443 0 2.256-.734 2.58-1.387h.068V90h1.659v-5.796c0-2.54-2-3.045-3.386-3.045-1.58 0-3.034.636-3.603 2.227l1.597.364c.25-.62.886-1.216 2.028-1.216 1.097 0 1.659.574 1.659 1.563v.04c0 .619-.636.607-2.204.79-1.653.192-3.347.624-3.347 2.607 0 1.716 1.29 2.66 2.949 2.66zm.37-1.365c-.961 0-1.654-.431-1.654-1.272 0-.91.807-1.233 1.79-1.364.551-.074 1.858-.221 2.102-.466v1.125c0 1.034-.824 1.977-2.238 1.977zm6.2 4.444h1.699v-4.631h.102c.307.557.932 1.529 2.523 1.529 2.113 0 3.647-1.694 3.647-4.518 0-2.83-1.556-4.494-3.664-4.494-1.62 0-2.205.989-2.506 1.528h-.142v-1.414h-1.659v12zm1.665-7.637c0-1.823.795-3.034 2.278-3.034 1.54 0 2.312 1.301 2.312 3.034 0 1.75-.795 3.086-2.312 3.086-1.46 0-2.278-1.25-2.278-3.086zm16.12 4.54c2.461 0 4.068-1.801 4.068-4.5 0-2.716-1.607-4.517-4.068-4.517-2.46 0-4.068 1.801-4.068 4.517 0 2.699 1.608 4.5 4.068 4.5zm.006-1.426c-1.608 0-2.358-1.403-2.358-3.08 0-1.67.75-3.09 2.358-3.09 1.597 0 2.347 1.42 2.347 3.09 0 1.677-.75 3.08-2.347 3.08zm10.112-7.477h-1.88v-.784c0-.773.318-1.194 1.147-1.194.353 0 .603.08.762.131l.397-1.375a4.094 4.094 0 00-1.42-.233c-1.381 0-2.591.807-2.591 2.443v1.012h-1.347v1.363h1.347V90h1.705v-7.364h1.88v-1.363zM538.638 90h1.755v-4.09h2.387c2.699 0 4.034-1.632 4.034-3.78 0-2.141-1.324-3.766-4.028-3.766h-4.148V90zm1.755-5.58v-4.55h2.205c1.739 0 2.449.942 2.449 2.26 0 1.319-.71 2.29-2.426 2.29h-2.228zm8.343 5.58h1.699v-5.33c0-1.142.88-1.966 2.085-1.966.352 0 .75.063.886.103v-1.625a6.887 6.887 0 00-.721-.04c-1.023 0-1.898.58-2.216 1.517h-.091v-1.386h-1.642V90zm9.504.176c2.46 0 4.068-1.801 4.068-4.5 0-2.716-1.608-4.517-4.068-4.517-2.46 0-4.068 1.801-4.068 4.517 0 2.699 1.608 4.5 4.068 4.5zm.006-1.426c-1.608 0-2.358-1.403-2.358-3.08 0-1.67.75-3.09 2.358-3.09 1.596 0 2.346 1.42 2.346 3.09 0 1.677-.75 3.08-2.346 3.08zm5.959 1.25h1.698v-5.38c0-1.177.824-1.995 1.79-1.995.943 0 1.597.625 1.597 1.574V90h1.693v-5.563c0-1.05.642-1.812 1.75-1.812.898 0 1.636.5 1.636 1.682V90h1.699v-5.852c0-1.995-1.113-2.989-2.693-2.989-1.256 0-2.199.602-2.619 1.534h-.091c-.381-.954-1.182-1.534-2.347-1.534-1.153 0-2.011.574-2.375 1.534h-.108v-1.42h-1.63V90zm14.14 0h1.699v-8.727h-1.699V90zm.858-10.074c.585 0 1.074-.454 1.074-1.011 0-.557-.489-1.017-1.074-1.017-.591 0-1.074.46-1.074 1.017 0 .557.483 1.011 1.074 1.011zm9.666 3.477c-.352-1.358-1.414-2.244-3.301-2.244-1.971 0-3.369 1.04-3.369 2.585 0 1.239.75 2.063 2.386 2.427l1.477.323c.841.188 1.233.563 1.233 1.108 0 .676-.721 1.205-1.835 1.205-1.017 0-1.67-.438-1.875-1.296l-1.642.25c.284 1.546 1.568 2.415 3.529 2.415 2.108 0 3.568-1.12 3.568-2.699 0-1.233-.784-1.994-2.387-2.363l-1.386-.319c-.96-.227-1.375-.55-1.369-1.142-.006-.67.721-1.147 1.687-1.147 1.057 0 1.546.585 1.745 1.17l1.539-.273zm5.8 6.773c1.903 0 3.25-.937 3.636-2.358l-1.608-.29c-.306.824-1.045 1.245-2.011 1.245-1.454 0-2.432-.944-2.477-2.625h6.204v-.602c0-3.154-1.886-4.387-3.863-4.387-2.432 0-4.034 1.852-4.034 4.534 0 2.71 1.579 4.483 4.153 4.483zm-2.455-5.301c.069-1.239.966-2.313 2.347-2.313 1.318 0 2.182.978 2.188 2.313h-4.535zm13.226-.528h-5.159v1.471h5.159v-1.471zm4.157-5.983h-1.756V90h1.756V78.364zM615.92 90c3.546 0 5.597-2.199 5.597-5.835 0-3.62-2.051-5.801-5.477-5.801h-3.887V90h3.767zm-2.011-1.534v-8.568h2.023c2.545 0 3.858 1.523 3.858 4.267 0 2.755-1.313 4.3-3.966 4.3h-1.915zm27.321 1.017l5.301-5.301-5.301-5.301-1.023 1.017 2.154 2.148h-13.705v1.448h15.154l.687.688-.687.687h-15.154v1.45h13.705l-2.154 2.153 1.023 1.011zm22.057-7.335c-.398-2.489-2.347-3.944-4.807-3.944-3.011 0-5.233 2.256-5.233 5.978 0 3.721 2.21 5.977 5.233 5.977 2.557 0 4.426-1.602 4.807-3.903l-1.773-.006c-.301 1.489-1.551 2.307-3.023 2.307-1.994 0-3.5-1.529-3.5-4.375 0-2.824 1.5-4.375 3.506-4.375 1.483 0 2.727.835 3.017 2.34h1.773zm5.641 8.028c2.46 0 4.068-1.801 4.068-4.5 0-2.716-1.608-4.517-4.068-4.517-2.461 0-4.069 1.801-4.069 4.517 0 2.699 1.608 4.5 4.069 4.5zm.005-1.426c-1.608 0-2.358-1.403-2.358-3.08 0-1.67.75-3.09 2.358-3.09 1.597 0 2.347 1.42 2.347 3.09 0 1.677-.75 3.08-2.347 3.08zm7.658-3.932c0-1.392.852-2.187 2.034-2.187 1.153 0 1.852.755 1.852 2.022V90h1.699v-5.551c0-2.16-1.187-3.29-2.971-3.29-1.313 0-2.171.608-2.574 1.534h-.108v-1.42h-1.631V90h1.699v-5.182zm9.562 0c0-1.392.853-2.187 2.035-2.187 1.153 0 1.852.755 1.852 2.022V90h1.699v-5.551c0-2.16-1.188-3.29-2.972-3.29-1.312 0-2.17.608-2.574 1.534h-.108v-1.42h-1.63V90h1.698v-5.182zm11.625 5.358c1.904 0 3.25-.937 3.637-2.358l-1.608-.29c-.307.824-1.046 1.245-2.012 1.245-1.454 0-2.431-.944-2.477-2.625h6.205v-.602c0-3.154-1.887-4.387-3.864-4.387-2.432 0-4.034 1.852-4.034 4.534 0 2.71 1.58 4.483 4.153 4.483zm-2.454-5.301c.068-1.239.966-2.313 2.346-2.313 1.319 0 2.182.978 2.188 2.313h-4.534zm11.76 5.301c2.062 0 3.398-1.239 3.585-2.937h-1.653c-.216.943-.949 1.5-1.921 1.5-1.437 0-2.363-1.2-2.363-3.103 0-1.869.943-3.045 2.363-3.045 1.08 0 1.739.682 1.921 1.5h1.653c-.182-1.761-1.619-2.932-3.602-2.932-2.46 0-4.051 1.852-4.051 4.517 0 2.63 1.534 4.5 4.068 4.5zm9.476-8.903h-1.79v-2.091h-1.699v2.09h-1.278v1.364h1.278v5.154c-.006 1.585 1.205 2.352 2.545 2.324.54-.006.904-.108 1.103-.182l-.307-1.404c-.114.023-.324.074-.597.074-.551 0-1.045-.181-1.045-1.165v-4.8h1.79v-1.364zM718.439 90h1.699v-8.727h-1.699V90zm.858-10.074c.585 0 1.074-.454 1.074-1.011 0-.557-.489-1.017-1.074-1.017-.591 0-1.074.46-1.074 1.017 0 .557.483 1.011 1.074 1.011zm6.802 10.25c2.461 0 4.069-1.801 4.069-4.5 0-2.716-1.608-4.517-4.069-4.517-2.46 0-4.068 1.801-4.068 4.517 0 2.699 1.608 4.5 4.068 4.5zm.006-1.426c-1.608 0-2.358-1.403-2.358-3.08 0-1.67.75-3.09 2.358-3.09 1.597 0 2.347 1.42 2.347 3.09 0 1.677-.75 3.08-2.347 3.08zm7.658-3.932c0-1.392.852-2.187 2.034-2.187 1.153 0 1.852.755 1.852 2.022V90h1.699v-5.551c0-2.16-1.187-3.29-2.972-3.29-1.312 0-2.17.608-2.573 1.534h-.108v-1.42h-1.631V90h1.699v-5.182z" fill="#000"/><rect x="464" y="128" width="320" height="56" rx="3" fill="#FFDE9E"/><path d="M487.625 153.42h1.693c-.051-1.863-1.699-3.215-4.062-3.215-2.336 0-4.125 1.335-4.125 3.34 0 1.62 1.159 2.569 3.028 3.074l1.375.375c1.244.33 2.205.739 2.205 1.773 0 1.136-1.086 1.886-2.58 1.886-1.352 0-2.477-.602-2.579-1.869h-1.762c.114 2.108 1.744 3.409 4.352 3.409 2.733 0 4.307-1.437 4.307-3.409 0-2.096-1.869-2.909-3.346-3.273l-1.137-.295c-.909-.233-2.119-.659-2.113-1.773 0-.988.903-1.721 2.335-1.721 1.335 0 2.284.625 2.409 1.698zm7.575 8.756c1.904 0 3.25-.937 3.637-2.358l-1.608-.29c-.307.824-1.046 1.245-2.012 1.245-1.454 0-2.431-.943-2.477-2.625h6.205v-.603c0-3.153-1.887-4.386-3.864-4.386-2.432 0-4.034 1.852-4.034 4.534 0 2.71 1.579 4.483 4.153 4.483zm-2.454-5.301c.068-1.239.966-2.313 2.346-2.313 1.319 0 2.182.978 2.188 2.313h-4.534zm12.157-3.602h-1.789v-2.091h-1.699v2.091h-1.279v1.363h1.279v5.154c-.006 1.585 1.204 2.352 2.545 2.324.54-.006.904-.108 1.102-.182l-.306-1.404c-.114.023-.324.074-.597.074-.551 0-1.045-.182-1.045-1.164v-4.802h1.789v-1.363zm9.79 8.903c2.46 0 4.068-1.801 4.068-4.5 0-2.716-1.608-4.517-4.068-4.517-2.46 0-4.068 1.801-4.068 4.517 0 2.699 1.608 4.5 4.068 4.5zm.006-1.426c-1.608 0-2.358-1.403-2.358-3.08 0-1.67.75-3.09 2.358-3.09 1.596 0 2.346 1.42 2.346 3.09 0 1.677-.75 3.08-2.346 3.08zm10.112-7.477h-1.881v-.784c0-.773.319-1.194 1.148-1.194.352 0 .602.08.761.131l.398-1.375c-.238-.091-.733-.233-1.42-.233-1.381 0-2.591.807-2.591 2.443v1.012h-1.347v1.363h1.347V162h1.704v-7.364h1.881v-1.363zm15.788.875c-.397-2.489-2.346-3.943-4.806-3.943-3.012 0-5.233 2.255-5.233 5.977 0 3.721 2.21 5.977 5.233 5.977 2.556 0 4.426-1.602 4.806-3.903l-1.772-.006c-.301 1.489-1.551 2.307-3.023 2.307-1.994 0-3.5-1.529-3.5-4.375 0-2.824 1.5-4.375 3.506-4.375 1.483 0 2.727.835 3.017 2.341h1.772zm5.641 8.028c2.46 0 4.068-1.801 4.068-4.5 0-2.716-1.608-4.517-4.068-4.517-2.46 0-4.068 1.801-4.068 4.517 0 2.699 1.608 4.5 4.068 4.5zm.006-1.426c-1.608 0-2.358-1.403-2.358-3.08 0-1.67.75-3.09 2.358-3.09 1.596 0 2.346 1.42 2.346 3.09 0 1.677-.75 3.08-2.346 3.08zm7.657-3.932c0-1.392.853-2.187 2.035-2.187 1.153 0 1.852.755 1.852 2.022V162h1.699v-5.551c0-2.159-1.188-3.29-2.972-3.29-1.312 0-2.17.608-2.574 1.534h-.108v-1.42h-1.63V162h1.698v-5.182zm9.563 0c0-1.392.852-2.187 2.034-2.187 1.153 0 1.852.755 1.852 2.022V162h1.699v-5.551c0-2.159-1.187-3.29-2.971-3.29-1.313 0-2.171.608-2.574 1.534h-.108v-1.42h-1.631V162h1.699v-5.182zm11.625 5.358c1.903 0 3.25-.937 3.636-2.358l-1.608-.29c-.307.824-1.045 1.245-2.011 1.245-1.455 0-2.432-.943-2.477-2.625h6.204v-.603c0-3.153-1.886-4.386-3.863-4.386-2.432 0-4.034 1.852-4.034 4.534 0 2.71 1.579 4.483 4.153 4.483zm-2.455-5.301c.069-1.239.966-2.313 2.347-2.313 1.318 0 2.182.978 2.187 2.313h-4.534zm11.76 5.301c2.063 0 3.398-1.238 3.586-2.937h-1.654c-.216.943-.949 1.5-1.92 1.5-1.438 0-2.364-1.199-2.364-3.103 0-1.869.943-3.045 2.364-3.045 1.079 0 1.738.682 1.92 1.5h1.654c-.182-1.761-1.62-2.932-3.603-2.932-2.46 0-4.051 1.852-4.051 4.517 0 2.631 1.534 4.5 4.068 4.5zm9.476-8.903h-1.79v-2.091h-1.698v2.091h-1.279v1.363h1.279v5.154c-.006 1.585 1.204 2.352 2.545 2.324.54-.006.903-.108 1.102-.182l-.307-1.404c-.113.023-.323.074-.596.074-.551 0-1.046-.182-1.046-1.164v-4.802h1.79v-1.363zm1.879 8.727h1.699v-8.727h-1.699V162zm.858-10.074c.586 0 1.074-.454 1.074-1.011 0-.557-.488-1.017-1.074-1.017-.591 0-1.073.46-1.073 1.017 0 .557.482 1.011 1.073 1.011zm6.803 10.25c2.46 0 4.068-1.801 4.068-4.5 0-2.716-1.608-4.517-4.068-4.517-2.46 0-4.068 1.801-4.068 4.517 0 2.699 1.608 4.5 4.068 4.5zm.006-1.426c-1.608 0-2.358-1.403-2.358-3.08 0-1.67.75-3.09 2.358-3.09 1.596 0 2.346 1.42 2.346 3.09 0 1.677-.75 3.08-2.346 3.08zm7.657-3.932c0-1.392.853-2.187 2.034-2.187 1.154 0 1.853.755 1.853 2.022V162h1.699v-5.551c0-2.159-1.188-3.29-2.972-3.29-1.313 0-2.171.608-2.574 1.534h-.108v-1.42h-1.631V162h1.699v-5.182zm14.404-1.415c-.353-1.358-1.415-2.244-3.301-2.244-1.972 0-3.37 1.04-3.37 2.585 0 1.239.75 2.063 2.387 2.426l1.477.324c.841.188 1.233.563 1.233 1.108 0 .676-.722 1.205-1.835 1.205-1.017 0-1.671-.438-1.875-1.296l-1.642.25c.284 1.546 1.568 2.415 3.528 2.415 2.108 0 3.568-1.119 3.568-2.699 0-1.233-.784-1.994-2.386-2.363l-1.387-.319c-.96-.227-1.375-.551-1.369-1.142-.006-.67.722-1.147 1.688-1.147 1.056 0 1.545.585 1.744 1.17l1.54-.273z" fill="#000"/><rect x="448" y="216" width="352" height="128" rx="3" fill="#FFE4EC"/><path d="M475.108 242.29c-.358-2.585-2.347-4.085-4.926-4.085-3.04 0-5.33 2.215-5.33 5.977 0 3.756 2.262 5.977 5.33 5.977 2.767 0 4.602-1.79 4.926-4.011l-2.125-.012c-.267 1.364-1.381 2.131-2.773 2.131-1.886 0-3.238-1.415-3.238-4.085 0-2.625 1.34-4.085 3.244-4.085 1.415 0 2.523.801 2.767 2.193h2.125zm3.896-3.926h-2.057V250h2.057v-11.636zM481.119 250h2.057v-8.727h-2.057V250zm1.034-9.966c.654 0 1.188-.5 1.188-1.114 0-.619-.534-1.119-1.188-1.119-.659 0-1.193.5-1.193 1.119 0 .614.534 1.114 1.193 1.114zm3.138 13.239h2.057v-4.648h.085c.324.636 1 1.528 2.5 1.528 2.057 0 3.597-1.63 3.597-4.505 0-2.909-1.585-4.489-3.602-4.489-1.54 0-2.182.926-2.495 1.557h-.119v-1.443h-2.023v12zm2.017-7.637c0-1.693.728-2.789 2.051-2.789 1.37 0 2.074 1.164 2.074 2.789 0 1.637-.716 2.83-2.074 2.83-1.312 0-2.051-1.136-2.051-2.83zm8.074 4.364h2.023v-1.375h.119c.324.636 1 1.528 2.5 1.528 2.057 0 3.597-1.63 3.597-4.505 0-2.909-1.585-4.489-3.603-4.489-1.539 0-2.181.926-2.494 1.557h-.085v-4.352h-2.057V250zm2.017-4.364c0-1.693.727-2.789 2.051-2.789 1.37 0 2.074 1.164 2.074 2.789 0 1.637-.716 2.83-2.074 2.83-1.312 0-2.051-1.136-2.051-2.83zm11.777 4.534c2.557 0 4.182-1.801 4.182-4.5 0-2.704-1.625-4.511-4.182-4.511-2.557 0-4.182 1.807-4.182 4.511 0 2.699 1.625 4.5 4.182 4.5zm.012-1.647c-1.415 0-2.108-1.262-2.108-2.858 0-1.597.693-2.875 2.108-2.875 1.392 0 2.085 1.278 2.085 2.875 0 1.596-.693 2.858-2.085 2.858zm8.427 1.653c1.369 0 2.188-.642 2.563-1.375h.068V250h1.977v-5.841c0-2.307-1.881-3-3.545-3-1.836 0-3.245.818-3.699 2.409l1.92.273c.205-.597.784-1.108 1.79-1.108.954 0 1.477.489 1.477 1.347v.034c0 .591-.619.619-2.159.784-1.693.182-3.312.687-3.312 2.653 0 1.716 1.255 2.625 2.92 2.625zm.534-1.511c-.858 0-1.471-.392-1.471-1.148 0-.79.687-1.119 1.608-1.25.539-.074 1.619-.21 1.886-.426v1.028c0 .972-.784 1.796-2.023 1.796zm6.142 1.335h2.057v-5.131c0-1.108.835-1.892 1.966-1.892.347 0 .778.063.954.12v-1.892a4.81 4.81 0 00-.738-.057c-1 0-1.835.568-2.154 1.579h-.09v-1.454h-1.995V250zm9.223.153c1.5 0 2.176-.892 2.5-1.528h.125V250h2.023v-11.636h-2.063v4.352h-.085c-.312-.631-.954-1.557-2.494-1.557-2.017 0-3.602 1.58-3.602 4.489 0 2.875 1.539 4.505 3.596 4.505zm.574-1.687c-1.358 0-2.074-1.193-2.074-2.83 0-1.625.705-2.789 2.074-2.789 1.324 0 2.051 1.096 2.051 2.789 0 1.694-.738 2.83-2.051 2.83z" fill="#000"/><rect x="464" y="272" width="320" height="56" rx="3" fill="#FFC7CD"/><path d="M480.705 295.875h3.625V306h1.75v-10.125h3.63v-1.511h-9.005v1.511zm10.933 13.375c1.403 0 2.295-.733 2.795-2.085l3.608-9.875-1.835-.017-2.21 6.772h-.091l-2.21-6.772h-1.819l3.194 8.841-.211.579c-.431 1.131-1.039 1.233-1.971.977l-.409 1.392c.204.097.647.188 1.159.188zm8.004.023h1.699v-4.631h.102c.307.557.932 1.528 2.523 1.528 2.114 0 3.648-1.693 3.648-4.517 0-2.829-1.557-4.494-3.665-4.494-1.619 0-2.205.989-2.506 1.529h-.142v-1.415h-1.659v12zm1.665-7.637c0-1.824.795-3.034 2.278-3.034 1.54 0 2.313 1.301 2.313 3.034 0 1.75-.796 3.086-2.313 3.086-1.46 0-2.278-1.25-2.278-3.086zm11.971 4.54c1.904 0 3.25-.937 3.637-2.358l-1.608-.29c-.307.824-1.046 1.245-2.012 1.245-1.454 0-2.431-.943-2.477-2.625h6.205v-.603c0-3.153-1.887-4.386-3.864-4.386-2.432 0-4.034 1.852-4.034 4.534 0 2.71 1.58 4.483 4.153 4.483zm-2.454-5.301c.068-1.239.966-2.313 2.346-2.313 1.319 0 2.182.978 2.188 2.313h-4.534zm25.75 5.335l5.301-5.301-5.301-5.301-1.023 1.017 2.154 2.148H524v1.449h15.153l.688.687-.688.688H524v1.448h13.705l-2.154 2.154 1.023 1.011zm16.159-.21c3.545 0 5.597-2.199 5.597-5.835 0-3.62-2.052-5.801-5.478-5.801h-3.886V306h3.767zm-2.011-1.534v-8.568h2.022c2.546 0 3.858 1.522 3.858 4.267 0 2.755-1.312 4.301-3.966 4.301h-1.914zm12.194 1.727c1.443 0 2.256-.733 2.58-1.386h.068V306h1.659v-5.795c0-2.54-2-3.046-3.386-3.046-1.58 0-3.034.636-3.603 2.227l1.597.364c.25-.619.886-1.216 2.028-1.216 1.097 0 1.659.574 1.659 1.563v.039c0 .62-.636.608-2.204.79-1.653.193-3.347.625-3.347 2.608 0 1.716 1.29 2.659 2.949 2.659zm.37-1.363c-.961 0-1.654-.432-1.654-1.273 0-.909.807-1.233 1.79-1.364.551-.074 1.858-.221 2.102-.466v1.125c0 1.034-.824 1.978-2.238 1.978zm10.274-7.557h-1.79v-2.091h-1.699v2.091h-1.278v1.363h1.278v5.154c-.006 1.585 1.205 2.352 2.545 2.324.54-.006.904-.108 1.103-.182l-.307-1.404c-.114.023-.324.074-.597.074-.551 0-1.045-.182-1.045-1.164v-4.802h1.79v-1.363zm4.419 8.92c1.443 0 2.255-.733 2.579-1.386h.068V306h1.66v-5.795c0-2.54-2-3.046-3.387-3.046-1.579 0-3.034.636-3.602 2.227l1.596.364c.25-.619.887-1.216 2.029-1.216 1.096 0 1.659.574 1.659 1.563v.039c0 .62-.636.608-2.205.79-1.653.193-3.346.625-3.346 2.608 0 1.716 1.29 2.659 2.949 2.659zm.369-1.363c-.96 0-1.653-.432-1.653-1.273 0-.909.806-1.233 1.789-1.364.552-.074 1.858-.221 2.103-.466v1.125c0 1.034-.824 1.978-2.239 1.978z" fill="#000"/><rect x="16" y="16" width="352" height="208" rx="3" fill="#C6E1D4"/><path opacity=".2" d="M336 172c50 0 50-16 96-16" stroke="#000" stroke-width="2"/><rect x="10" y="10" width="352" height="208" rx="4" fill="#fff"/><rect x="8" y="8" width="352" height="208" rx="3" fill="#D0EBDE"/><path opacity=".4" d="M336 164c50 0 50-8 96-8" stroke="#000" stroke-width="2"/><rect x="2" y="2" width="352" height="208" rx="4" fill="#fff"/><rect width="352" height="208" rx="3" fill="#DAF5E8"/><path d="M19.597 34h2.08l2.334-8.165h.091L26.432 34h2.08l3.284-11.636h-2.268l-2.096 8.556h-.102l-2.245-8.556h-2.062l-2.239 8.55h-.108l-2.096-8.55h-2.267L19.596 34zm16.542.17c2.034 0 3.432-.994 3.796-2.51l-1.92-.217c-.28.739-.961 1.125-1.847 1.125-1.33 0-2.21-.875-2.228-2.37h6.08v-.63c0-3.062-1.841-4.409-3.989-4.409-2.5 0-4.13 1.835-4.13 4.529 0 2.738 1.607 4.482 4.238 4.482zm-2.193-5.358c.063-1.113.886-2.05 2.114-2.05 1.181 0 1.977.863 1.988 2.05h-4.102zM41.851 34h2.023v-1.375h.119c.324.636 1 1.528 2.5 1.528 2.057 0 3.596-1.63 3.596-4.505 0-2.91-1.585-4.489-3.602-4.489-1.54 0-2.182.926-2.494 1.557h-.085v-4.352H41.85V34zm2.017-4.364c0-1.693.727-2.79 2.051-2.79 1.37 0 2.074 1.165 2.074 2.79 0 1.637-.716 2.83-2.074 2.83-1.313 0-2.051-1.137-2.051-2.83zm11.939 7.637h2.057v-4.648h.085c.324.636 1 1.528 2.5 1.528 2.057 0 3.597-1.63 3.597-4.505 0-2.91-1.586-4.489-3.603-4.489-1.54 0-2.182.926-2.494 1.557h-.12v-1.443h-2.022v12zm2.017-7.637c0-1.693.727-2.79 2.051-2.79 1.37 0 2.074 1.165 2.074 2.79 0 1.637-.716 2.83-2.074 2.83-1.313 0-2.051-1.137-2.051-2.83zm10.494 4.54c1.37 0 2.188-.642 2.563-1.375h.068V34h1.977v-5.84c0-2.308-1.88-3-3.545-3-1.835 0-3.245.817-3.7 2.408l1.921.273c.205-.597.784-1.108 1.79-1.108.955 0 1.477.489 1.477 1.346v.035c0 .59-.619.619-2.159.784-1.693.181-3.312.687-3.312 2.653 0 1.716 1.255 2.625 2.92 2.625zm.534-1.511c-.858 0-1.471-.392-1.471-1.148 0-.79.687-1.12 1.608-1.25.54-.074 1.619-.21 1.886-.426v1.028c0 .972-.784 1.796-2.023 1.796zm9.938 4.755c2.358 0 4.096-1.08 4.096-3.278v-8.87h-2.028v1.444h-.114c-.312-.63-.966-1.557-2.505-1.557-2.017 0-3.603 1.58-3.603 4.449 0 2.847 1.586 4.267 3.597 4.267 1.494 0 2.193-.801 2.511-1.443h.103v1.653c0 1.25-.853 1.779-2.023 1.779-1.239 0-1.784-.586-2.034-1.063l-1.853.449c.376 1.188 1.631 2.17 3.853 2.17zm.017-5.159c-1.358 0-2.074-1.057-2.074-2.664 0-1.586.704-2.75 2.074-2.75 1.324 0 2.051 1.096 2.051 2.75 0 1.664-.739 2.664-2.051 2.664zm10.051 1.91c2.034 0 3.432-.995 3.795-2.512l-1.92-.216c-.279.739-.96 1.125-1.847 1.125-1.33 0-2.21-.875-2.227-2.37h6.08v-.63c0-3.062-1.841-4.409-3.989-4.409-2.5 0-4.13 1.835-4.13 4.529 0 2.738 1.607 4.482 4.238 4.482zm-2.193-5.358c.062-1.114.886-2.052 2.113-2.052 1.182 0 1.978.864 1.989 2.052h-4.102z" fill="#000"/><rect x="16" y="56" width="320" height="56" rx="3" fill="#93EDB2"/><path d="M33.278 78.364V90h1.67v-8.426h.109l3.432 8.409h1.386l3.432-8.404h.108V90h1.67V78.364h-2.13l-3.705 9.045h-.136l-3.705-9.045h-2.13zm16.763 11.83c1.443 0 2.256-.734 2.58-1.387h.068V90h1.659v-5.796c0-2.54-2-3.045-3.386-3.045-1.58 0-3.034.636-3.603 2.227l1.597.364c.25-.62.886-1.216 2.028-1.216 1.097 0 1.66.574 1.66 1.563v.04c0 .619-.637.607-2.205.79-1.654.192-3.347.624-3.347 2.607 0 1.716 1.29 2.66 2.95 2.66zm.37-1.365c-.96 0-1.654-.431-1.654-1.272 0-.91.807-1.233 1.79-1.364.551-.074 1.858-.221 2.102-.466v1.125c0 1.034-.824 1.977-2.239 1.977zm6.2 4.444h1.699v-4.631h.102c.307.557.932 1.529 2.523 1.529 2.113 0 3.647-1.694 3.647-4.518 0-2.83-1.556-4.494-3.664-4.494-1.62 0-2.205.989-2.506 1.528h-.142v-1.414h-1.66v12zm1.665-7.637c0-1.823.795-3.034 2.278-3.034 1.54 0 2.313 1.301 2.313 3.034 0 1.75-.796 3.086-2.313 3.086-1.46 0-2.278-1.25-2.278-3.086zm16.12 4.54c2.46 0 4.069-1.801 4.069-4.5 0-2.716-1.609-4.517-4.069-4.517s-4.068 1.801-4.068 4.517c0 2.699 1.608 4.5 4.068 4.5zm.006-1.426c-1.608 0-2.358-1.403-2.358-3.08 0-1.67.75-3.09 2.358-3.09 1.597 0 2.347 1.42 2.347 3.09 0 1.677-.75 3.08-2.347 3.08zm10.112-7.477h-1.88v-.784c0-.773.318-1.194 1.147-1.194.352 0 .602.08.762.131l.397-1.375a4.094 4.094 0 00-1.42-.233c-1.38 0-2.591.807-2.591 2.443v1.012h-1.347v1.363h1.347V90h1.704v-7.364h1.881v-1.363zM90.638 90h1.755v-4.09h2.387c2.699 0 4.034-1.632 4.034-3.78 0-2.141-1.324-3.766-4.028-3.766h-4.148V90zm1.755-5.58v-4.55h2.205c1.739 0 2.449.942 2.449 2.26 0 1.319-.71 2.29-2.426 2.29h-2.227zm8.343 5.58h1.699v-5.33c0-1.142.88-1.966 2.085-1.966.352 0 .75.063.886.103v-1.625a6.887 6.887 0 00-.721-.04c-1.023 0-1.898.58-2.216 1.517h-.091v-1.386h-1.642V90zm9.504.176c2.46 0 4.068-1.801 4.068-4.5 0-2.716-1.608-4.517-4.068-4.517-2.46 0-4.068 1.801-4.068 4.517 0 2.699 1.608 4.5 4.068 4.5zm.006-1.426c-1.608 0-2.358-1.403-2.358-3.08 0-1.67.75-3.09 2.358-3.09 1.596 0 2.346 1.42 2.346 3.09 0 1.677-.75 3.08-2.346 3.08zm5.959 1.25h1.698v-5.38c0-1.177.824-1.995 1.79-1.995.943 0 1.597.625 1.597 1.574V90h1.693v-5.563c0-1.05.642-1.812 1.75-1.812.898 0 1.636.5 1.636 1.682V90h1.699v-5.852c0-1.995-1.113-2.989-2.693-2.989-1.256 0-2.199.602-2.619 1.534h-.091c-.381-.954-1.182-1.534-2.347-1.534-1.153 0-2.011.574-2.375 1.534h-.108v-1.42h-1.63V90zm14.14 0h1.699v-8.727h-1.699V90zm.858-10.074c.585 0 1.074-.454 1.074-1.011 0-.557-.489-1.017-1.074-1.017-.591 0-1.074.46-1.074 1.017 0 .557.483 1.011 1.074 1.011zm9.666 3.477c-.352-1.358-1.414-2.244-3.301-2.244-1.971 0-3.369 1.04-3.369 2.585 0 1.239.75 2.063 2.386 2.427l1.477.323c.841.188 1.233.563 1.233 1.108 0 .676-.721 1.205-1.835 1.205-1.017 0-1.67-.438-1.875-1.296l-1.642.25c.284 1.546 1.568 2.415 3.529 2.415 2.108 0 3.568-1.12 3.568-2.699 0-1.233-.784-1.994-2.387-2.363l-1.386-.319c-.96-.227-1.375-.55-1.369-1.142-.006-.67.721-1.147 1.687-1.147 1.057 0 1.546.585 1.745 1.17l1.539-.273zm5.8 6.773c1.903 0 3.25-.937 3.636-2.358l-1.608-.29c-.306.824-1.045 1.245-2.011 1.245-1.454 0-2.432-.944-2.477-2.625h6.204v-.602c0-3.154-1.886-4.387-3.863-4.387-2.432 0-4.034 1.852-4.034 4.534 0 2.71 1.579 4.483 4.153 4.483zm-2.455-5.301c.069-1.239.966-2.313 2.347-2.313 1.318 0 2.182.978 2.188 2.313h-4.535zm13.226-.528h-5.159v1.471h5.159v-1.471zm4.157-5.983h-1.756V90h1.756V78.364zM167.92 90c3.546 0 5.597-2.199 5.597-5.835 0-3.62-2.051-5.801-5.477-5.801h-3.887V90h3.767zm-2.011-1.534v-8.568h2.023c2.545 0 3.858 1.523 3.858 4.267 0 2.755-1.313 4.3-3.966 4.3h-1.915zm27.321 1.017l5.301-5.301-5.301-5.301-1.023 1.017 2.154 2.148h-13.705v1.448h15.154l.687.688-.687.687h-15.154v1.45h13.705l-2.154 2.153 1.023 1.011zm16.159.517c3.546 0 5.597-2.199 5.597-5.835 0-3.62-2.051-5.801-5.477-5.801h-3.887V90h3.767zm-2.011-1.534v-8.568h2.023c2.545 0 3.858 1.523 3.858 4.267 0 2.755-1.313 4.3-3.966 4.3h-1.915zm12.194 1.727c1.444 0 2.256-.733 2.58-1.386h.068V90h1.659v-5.796c0-2.54-2-3.045-3.386-3.045-1.58 0-3.034.636-3.602 2.227l1.596.364c.25-.62.887-1.216 2.029-1.216 1.096 0 1.659.574 1.659 1.563v.04c0 .619-.637.607-2.205.79-1.653.192-3.346.624-3.346 2.607 0 1.716 1.289 2.66 2.948 2.66zm.37-1.364c-.96 0-1.654-.431-1.654-1.272 0-.91.807-1.233 1.79-1.364.551-.074 1.858-.221 2.102-.466v1.125c0 1.034-.823 1.977-2.238 1.977zm10.274-7.556h-1.79v-2.091h-1.699v2.09h-1.278v1.364h1.278v5.154c-.005 1.585 1.205 2.352 2.546 2.324a3.253 3.253 0 001.102-.182l-.307-1.404c-.113.023-.324.074-.596.074-.552 0-1.046-.181-1.046-1.165v-4.8h1.79v-1.364zm4.419 8.92c1.443 0 2.256-.733 2.579-1.386h.069V90h1.659v-5.796c0-2.54-2-3.045-3.387-3.045-1.579 0-3.034.636-3.602 2.227l1.597.364c.25-.62.886-1.216 2.028-1.216 1.097 0 1.659.574 1.659 1.563v.04c0 .619-.636.607-2.204.79-1.654.192-3.347.624-3.347 2.607 0 1.716 1.29 2.66 2.949 2.66zm.369-1.364c-.96 0-1.653-.431-1.653-1.272 0-.91.807-1.233 1.79-1.364.551-.074 1.858-.221 2.102-.466v1.125c0 1.034-.824 1.977-2.239 1.977zM245.439 90h1.699v-5.33c0-1.142.88-1.966 2.085-1.966.352 0 .75.063.886.103v-1.625a6.887 6.887 0 00-.721-.04c-1.023 0-1.898.58-2.216 1.517h-.091v-1.386h-1.642V90zm9.589.176c1.904 0 3.25-.937 3.637-2.358l-1.608-.29c-.307.824-1.046 1.245-2.012 1.245-1.454 0-2.431-.944-2.477-2.625h6.205v-.602c0-3.154-1.887-4.387-3.864-4.387-2.432 0-4.034 1.852-4.034 4.534 0 2.71 1.58 4.483 4.153 4.483zm-2.454-5.301c.068-1.239.966-2.313 2.346-2.313 1.319 0 2.182.978 2.188 2.313h-4.534zm14.623-1.472c-.352-1.358-1.414-2.244-3.301-2.244-1.971 0-3.369 1.04-3.369 2.585 0 1.239.75 2.063 2.386 2.427l1.478.323c.841.188 1.233.563 1.233 1.108 0 .676-.722 1.205-1.836 1.205-1.017 0-1.67-.438-1.875-1.296l-1.642.25c.284 1.546 1.568 2.415 3.529 2.415 2.108 0 3.568-1.12 3.568-2.699 0-1.233-.784-1.994-2.386-2.363l-1.387-.319c-.96-.227-1.375-.55-1.369-1.142-.006-.67.721-1.147 1.687-1.147 1.057 0 1.546.585 1.745 1.17l1.539-.273zm5.715 6.773c2.46 0 4.068-1.801 4.068-4.5 0-2.716-1.608-4.517-4.068-4.517-2.46 0-4.068 1.801-4.068 4.517 0 2.699 1.608 4.5 4.068 4.5zm.006-1.426c-1.608 0-2.358-1.403-2.358-3.08 0-1.67.75-3.09 2.358-3.09 1.596 0 2.346 1.42 2.346 3.09 0 1.677-.75 3.08-2.346 3.08zm7.657-10.386h-1.699V90h1.699V78.364zm9.752 2.909h-1.824l-2.205 6.716h-.091l-2.21-6.716h-1.824L285.344 90h1.818l3.165-8.727zm5.045 8.903c1.904 0 3.25-.937 3.637-2.358l-1.608-.29c-.307.824-1.046 1.245-2.012 1.245-1.454 0-2.432-.944-2.477-2.625h6.204v-.602c0-3.154-1.886-4.387-3.863-4.387-2.432 0-4.034 1.852-4.034 4.534 0 2.71 1.579 4.483 4.153 4.483zm-2.454-5.301c.068-1.239.966-2.313 2.346-2.313 1.318 0 2.182.978 2.188 2.313h-4.534zM301.001 90h1.699v-5.33c0-1.142.881-1.966 2.086-1.966.352 0 .75.063.886.103v-1.625a6.923 6.923 0 00-.722-.04c-1.022 0-1.897.58-2.216 1.517h-.091v-1.386h-1.642V90z" fill="#000"/><rect x="16" y="128" width="320" height="56" rx="3" fill="#93EDB2"/><path d="M42.943 154.148c-.398-2.489-2.346-3.943-4.807-3.943-3.011 0-5.233 2.255-5.233 5.977 0 3.721 2.21 5.977 5.233 5.977 2.557 0 4.426-1.602 4.807-3.903l-1.773-.006c-.3 1.489-1.55 2.307-3.022 2.307-1.995 0-3.5-1.529-3.5-4.375 0-2.824 1.5-4.375 3.505-4.375 1.483 0 2.728.835 3.017 2.341h1.773zm5.64 8.028c2.461 0 4.069-1.801 4.069-4.5 0-2.716-1.608-4.517-4.068-4.517-2.46 0-4.068 1.801-4.068 4.517 0 2.699 1.608 4.5 4.068 4.5zm.007-1.426c-1.609 0-2.359-1.403-2.359-3.08 0-1.67.75-3.09 2.358-3.09 1.597 0 2.347 1.42 2.347 3.09 0 1.677-.75 3.08-2.346 3.08zm7.657-3.932c0-1.392.852-2.187 2.034-2.187 1.154 0 1.852.755 1.852 2.022V162h1.7v-5.551c0-2.159-1.188-3.29-2.972-3.29-1.313 0-2.17.608-2.574 1.534h-.108v-1.42h-1.63V162h1.698v-5.182zm9.563 0c0-1.392.852-2.187 2.034-2.187 1.153 0 1.852.755 1.852 2.022V162h1.699v-5.551c0-2.159-1.188-3.29-2.972-3.29-1.312 0-2.17.608-2.574 1.534h-.108v-1.42h-1.63V162h1.699v-5.182zm11.625 5.358c1.903 0 3.25-.937 3.636-2.358l-1.608-.29c-.307.824-1.045 1.245-2.011 1.245-1.455 0-2.432-.943-2.478-2.625h6.205v-.603c0-3.153-1.886-4.386-3.864-4.386-2.431 0-4.034 1.852-4.034 4.534 0 2.71 1.58 4.483 4.154 4.483zm-2.455-5.301c.068-1.239.966-2.313 2.347-2.313 1.318 0 2.181.978 2.187 2.313H74.98zm11.76 5.301c2.063 0 3.398-1.238 3.585-2.937h-1.653c-.216.943-.949 1.5-1.92 1.5-1.438 0-2.364-1.199-2.364-3.103 0-1.869.943-3.045 2.363-3.045 1.08 0 1.74.682 1.92 1.5h1.654c-.181-1.761-1.619-2.932-3.602-2.932-2.46 0-4.051 1.852-4.051 4.517 0 2.631 1.534 4.5 4.068 4.5zm9.476-8.903h-1.79v-2.091h-1.699v2.091H91.45v1.363h1.278v5.154c-.005 1.585 1.205 2.352 2.546 2.324.54-.006.903-.108 1.102-.182l-.307-1.404c-.114.023-.324.074-.596.074-.551 0-1.046-.182-1.046-1.164v-4.802h1.79v-1.363zm1.88 8.727h1.698v-8.727h-1.699V162zm.857-10.074c.585 0 1.074-.454 1.074-1.011 0-.557-.489-1.017-1.074-1.017-.59 0-1.074.46-1.074 1.017 0 .557.483 1.011 1.074 1.011zm6.803 10.25c2.46 0 4.068-1.801 4.068-4.5 0-2.716-1.608-4.517-4.068-4.517-2.461 0-4.068 1.801-4.068 4.517 0 2.699 1.607 4.5 4.068 4.5zm.005-1.426c-1.608 0-2.358-1.403-2.358-3.08 0-1.67.75-3.09 2.358-3.09 1.597 0 2.347 1.42 2.347 3.09 0 1.677-.75 3.08-2.347 3.08zm7.658-3.932c0-1.392.852-2.187 2.034-2.187 1.154 0 1.852.755 1.852 2.022V162h1.699v-5.551c0-2.159-1.187-3.29-2.971-3.29-1.313 0-2.171.608-2.574 1.534h-.108v-1.42h-1.631V162h1.699v-5.182zm16.172-3.545h-1.79v-2.091h-1.699v2.091h-1.278v1.363h1.278v5.154c-.005 1.585 1.205 2.352 2.546 2.324.54-.006.903-.108 1.102-.182l-.307-1.404c-.113.023-.324.074-.596.074-.552 0-1.046-.182-1.046-1.164v-4.802h1.79v-1.363zm5.462 8.903c2.46 0 4.068-1.801 4.068-4.5 0-2.716-1.608-4.517-4.068-4.517-2.461 0-4.069 1.801-4.069 4.517 0 2.699 1.608 4.5 4.069 4.5zm.005-1.426c-1.608 0-2.358-1.403-2.358-3.08 0-1.67.75-3.09 2.358-3.09 1.597 0 2.347 1.42 2.347 3.09 0 1.677-.75 3.08-2.347 3.08zm16.676-7.33h1.694c-.052-1.863-1.699-3.215-4.063-3.215-2.335 0-4.125 1.335-4.125 3.34 0 1.62 1.159 2.569 3.028 3.074l1.375.375c1.245.33 2.205.739 2.205 1.773 0 1.136-1.085 1.886-2.58 1.886-1.352 0-2.477-.602-2.579-1.869h-1.761c.113 2.108 1.744 3.409 4.352 3.409 2.733 0 4.307-1.437 4.307-3.409 0-2.096-1.87-2.909-3.347-3.273l-1.136-.295c-.909-.233-2.12-.659-2.114-1.773 0-.988.903-1.721 2.335-1.721 1.336 0 2.284.625 2.409 1.698zm5.513 3.398c0-1.392.881-2.187 2.091-2.187 1.171 0 1.869.744 1.869 2.022V162h1.699v-5.551c0-2.176-1.193-3.29-2.988-3.29-1.358 0-2.177.591-2.586 1.534h-.108v-4.329h-1.676V162h1.699v-5.182zm10.466 5.375c1.443 0 2.256-.733 2.58-1.386h.068V162h1.659v-5.795c0-2.54-2-3.046-3.386-3.046-1.58 0-3.035.636-3.603 2.227l1.597.364c.25-.619.886-1.216 2.028-1.216 1.097 0 1.659.574 1.659 1.563v.039c0 .62-.636.608-2.204.79-1.654.193-3.347.625-3.347 2.608 0 1.716 1.29 2.659 2.949 2.659zm.369-1.363c-.96 0-1.653-.432-1.653-1.273 0-.909.807-1.233 1.79-1.364.551-.074 1.858-.221 2.102-.466v1.125c0 1.034-.824 1.978-2.239 1.978zm6.201 1.17h1.699v-5.33c0-1.142.88-1.965 2.085-1.965.352 0 .75.062.886.102v-1.625a6.818 6.818 0 00-.721-.04c-1.023 0-1.898.58-2.216 1.517h-.091v-1.386h-1.642V162zm9.589.176c1.904 0 3.25-.937 3.637-2.358l-1.608-.29c-.307.824-1.046 1.245-2.012 1.245-1.454 0-2.432-.943-2.477-2.625h6.204v-.603c0-3.153-1.886-4.386-3.863-4.386-2.432 0-4.034 1.852-4.034 4.534 0 2.71 1.579 4.483 4.153 4.483zm-2.454-5.301c.068-1.239.966-2.313 2.346-2.313 1.318 0 2.182.978 2.188 2.313h-4.534zm11.35 5.295c1.591 0 2.216-.971 2.523-1.528h.142V162h1.659v-11.636h-1.699v4.324h-.102c-.307-.54-.886-1.529-2.511-1.529-2.108 0-3.659 1.665-3.659 4.494 0 2.824 1.528 4.517 3.647 4.517zm.375-1.448c-1.517 0-2.306-1.336-2.306-3.086 0-1.733.772-3.034 2.306-3.034 1.483 0 2.279 1.21 2.279 3.034 0 1.836-.813 3.086-2.279 3.086zM206.166 162h1.773l2.449-8.716h.091l2.449 8.716h1.767l3.233-11.636h-1.853l-2.261 9.017h-.108l-2.358-9.017h-1.83l-2.357 9.011h-.108l-2.267-9.011h-1.847L206.166 162zm16.043.176c2.46 0 4.068-1.801 4.068-4.5 0-2.716-1.608-4.517-4.068-4.517-2.46 0-4.068 1.801-4.068 4.517 0 2.699 1.608 4.5 4.068 4.5zm.005-1.426c-1.607 0-2.357-1.403-2.357-3.08 0-1.67.75-3.09 2.357-3.09 1.597 0 2.347 1.42 2.347 3.09 0 1.677-.75 3.08-2.347 3.08zm5.959 1.25h1.699v-5.33c0-1.142.881-1.965 2.085-1.965.353 0 .75.062.887.102v-1.625a6.838 6.838 0 00-.722-.04c-1.023 0-1.898.58-2.216 1.517h-.091v-1.386h-1.642V162zm6.141 0h1.699v-3.097l.846-.846 2.966 3.943h2.086l-3.773-4.983 3.534-3.744h-2.034l-3.477 3.693h-.148v-6.602h-1.699V162zm12.308.176c1.904 0 3.25-.937 3.637-2.358l-1.608-.29c-.307.824-1.046 1.245-2.012 1.245-1.454 0-2.432-.943-2.477-2.625h6.204v-.603c0-3.153-1.886-4.386-3.863-4.386-2.432 0-4.034 1.852-4.034 4.534 0 2.71 1.579 4.483 4.153 4.483zm-2.454-5.301c.068-1.239.966-2.313 2.346-2.313 1.318 0 2.182.978 2.188 2.313h-4.534zm8.083 5.125h1.699v-5.33c0-1.142.881-1.965 2.086-1.965.352 0 .75.062.886.102v-1.625a6.838 6.838 0 00-.722-.04c-1.022 0-1.897.58-2.216 1.517h-.091v-1.386h-1.642V162z" fill="#000"/><path d="M336 156h128" stroke="#000" stroke-width="2"/><circle cx="464" cy="156" r="4" fill="#000"/><circle cx="336" cy="156" r="4" fill="#000"/></svg>