<svg width="800" height="272" viewBox="0 0 800 272" fill="none" xmlns="http://www.w3.org/2000/svg">
<rect x="448" y="184" width="352" height="88" rx="3" fill="#FFE4EC"/>
<path d="M467.795 250.205C469.318 250.205 470.114 249.386 470.386 248.818H470.455V250H471.795V244.25C471.795 241.477 469.682 241.159 468.568 241.159C467.25 241.159 465.75 241.614 465.068 243.205L466.341 243.659C466.636 243.023 467.335 242.341 468.614 242.341C469.847 242.341 470.455 242.994 470.455 244.114V244.159C470.455 244.807 469.795 244.75 468.205 244.955C466.585 245.165 464.818 245.523 464.818 247.523C464.818 249.227 466.136 250.205 467.795 250.205ZM468 249C466.932 249 466.159 248.523 466.159 247.591C466.159 246.568 467.091 246.25 468.136 246.114C468.705 246.045 470.227 245.886 470.455 245.614V246.841C470.455 247.932 469.591 249 468 249ZM474.243 253.273H475.584V248.659H475.697C475.993 249.136 476.561 250.182 478.243 250.182C480.425 250.182 481.947 248.432 481.947 245.659C481.947 242.909 480.425 241.159 478.22 241.159C476.516 241.159 475.993 242.205 475.697 242.659H475.538V241.273H474.243V253.273ZM475.561 245.636C475.561 243.682 476.425 242.364 478.061 242.364C479.766 242.364 480.607 243.795 480.607 245.636C480.607 247.5 479.743 248.977 478.061 248.977C476.447 248.977 475.561 247.614 475.561 245.636ZM483.993 253.273H485.334V248.659H485.447C485.743 249.136 486.311 250.182 487.993 250.182C490.175 250.182 491.697 248.432 491.697 245.659C491.697 242.909 490.175 241.159 487.97 241.159C486.266 241.159 485.743 242.205 485.447 242.659H485.288V241.273H483.993V253.273ZM485.311 245.636C485.311 243.682 486.175 242.364 487.811 242.364C489.516 242.364 490.357 243.795 490.357 245.636C490.357 247.5 489.493 248.977 487.811 248.977C486.197 248.977 485.311 247.614 485.311 245.636ZM495.084 238.364H493.743V250H495.084V238.364ZM497.54 250H498.881V241.273H497.54V250ZM498.222 239.818C498.744 239.818 499.176 239.409 499.176 238.909C499.176 238.409 498.744 238 498.222 238C497.699 238 497.267 238.409 497.267 238.909C497.267 239.409 497.699 239.818 498.222 239.818ZM504.882 250.182C506.814 250.182 508.087 249 508.314 247.455H506.973C506.723 248.409 505.928 248.977 504.882 248.977C503.291 248.977 502.268 247.659 502.268 245.636C502.268 243.659 503.314 242.364 504.882 242.364C506.064 242.364 506.768 243.091 506.973 243.886H508.314C508.087 242.25 506.7 241.159 504.859 241.159C502.496 241.159 500.928 243.023 500.928 245.682C500.928 248.295 502.428 250.182 504.882 250.182ZM512.842 250.205C514.365 250.205 515.161 249.386 515.433 248.818H515.501V250H516.842V244.25C516.842 241.477 514.729 241.159 513.615 241.159C512.297 241.159 510.797 241.614 510.115 243.205L511.388 243.659C511.683 243.023 512.382 242.341 513.661 242.341C514.893 242.341 515.501 242.994 515.501 244.114V244.159C515.501 244.807 514.842 244.75 513.251 244.955C511.632 245.165 509.865 245.523 509.865 247.523C509.865 249.227 511.183 250.205 512.842 250.205ZM513.047 249C511.979 249 511.206 248.523 511.206 247.591C511.206 246.568 512.138 246.25 513.183 246.114C513.751 246.045 515.274 245.886 515.501 245.614V246.841C515.501 247.932 514.638 249 513.047 249ZM523.085 241.273H521.222V239.182H519.881V241.273H518.562V242.409H519.881V247.864C519.881 249.386 521.108 250.114 522.244 250.114C522.744 250.114 523.062 250.023 523.244 249.955L522.972 248.75C522.858 248.773 522.676 248.818 522.381 248.818C521.79 248.818 521.222 248.636 521.222 247.5V242.409H523.085V241.273ZM525.102 250H526.443V241.273H525.102V250ZM525.784 239.818C526.307 239.818 526.739 239.409 526.739 238.909C526.739 238.409 526.307 238 525.784 238C525.261 238 524.83 238.409 524.83 238.909C524.83 239.409 525.261 239.818 525.784 239.818ZM532.445 250.182C534.808 250.182 536.399 248.386 536.399 245.682C536.399 242.955 534.808 241.159 532.445 241.159C530.081 241.159 528.49 242.955 528.49 245.682C528.49 248.386 530.081 250.182 532.445 250.182ZM532.445 248.977C530.649 248.977 529.831 247.432 529.831 245.682C529.831 243.932 530.649 242.364 532.445 242.364C534.24 242.364 535.058 243.932 535.058 245.682C535.058 247.432 534.24 248.977 532.445 248.977ZM539.787 244.75C539.787 243.227 540.73 242.364 542.014 242.364C543.259 242.364 544.014 243.176 544.014 244.545V250H545.355V244.455C545.355 242.227 544.168 241.159 542.401 241.159C541.082 241.159 540.264 241.75 539.855 242.636H539.741V241.273H538.446V250H539.787V244.75ZM551.919 237.818H550.692L546.942 251.75H548.169L551.919 237.818ZM554.509 241.273H552.963L555.736 245.636L552.963 250H554.509L556.599 246.614L558.69 250H560.236L557.418 245.636L560.236 241.273H558.69L556.599 244.841L554.509 241.273ZM566.79 244.386H561.699V245.636H566.79V244.386ZM569.149 253.273H570.49V248.659H570.604C570.899 249.136 571.467 250.182 573.149 250.182C575.331 250.182 576.854 248.432 576.854 245.659C576.854 242.909 575.331 241.159 573.126 241.159C571.422 241.159 570.899 242.205 570.604 242.659H570.445V241.273H569.149V253.273ZM570.467 245.636C570.467 243.682 571.331 242.364 572.967 242.364C574.672 242.364 575.513 243.795 575.513 245.636C575.513 247.5 574.649 248.977 572.967 248.977C571.354 248.977 570.467 247.614 570.467 245.636ZM578.899 250H580.24V244.477C580.24 243.295 581.172 242.432 582.445 242.432C582.803 242.432 583.172 242.5 583.263 242.523V241.159C583.109 241.148 582.757 241.136 582.558 241.136C581.513 241.136 580.604 241.727 580.286 242.591H580.195V241.273H578.899V250ZM588.132 250.182C590.496 250.182 592.087 248.386 592.087 245.682C592.087 242.955 590.496 241.159 588.132 241.159C585.768 241.159 584.178 242.955 584.178 245.682C584.178 248.386 585.768 250.182 588.132 250.182ZM588.132 248.977C586.337 248.977 585.518 247.432 585.518 245.682C585.518 243.932 586.337 242.364 588.132 242.364C589.928 242.364 590.746 243.932 590.746 245.682C590.746 247.432 589.928 248.977 588.132 248.977ZM594.134 250H595.474V244.545C595.474 243.267 596.406 242.364 597.452 242.364C598.469 242.364 599.179 243.028 599.179 244.023V250H600.543V244.318C600.543 243.193 601.247 242.364 602.474 242.364C603.429 242.364 604.247 242.869 604.247 244.159V250H605.588V244.159C605.588 242.108 604.486 241.159 602.929 241.159C601.679 241.159 600.764 241.733 600.315 242.636H600.224C599.793 241.705 599.031 241.159 597.884 241.159C596.747 241.159 595.906 241.705 595.543 242.636H595.429V241.273H594.134V250ZM608.04 250H609.381V241.273H608.04V250ZM608.722 239.818C609.244 239.818 609.676 239.409 609.676 238.909C609.676 238.409 609.244 238 608.722 238C608.199 238 607.767 238.409 607.767 238.909C607.767 239.409 608.199 239.818 608.722 239.818ZM618.018 243.227C617.598 241.989 616.655 241.159 614.928 241.159C613.087 241.159 611.723 242.205 611.723 243.682C611.723 244.886 612.439 245.693 614.041 246.068L615.496 246.409C616.376 246.614 616.791 247.034 616.791 247.636C616.791 248.386 615.996 249 614.746 249C613.649 249 612.962 248.528 612.723 247.591L611.45 247.909C611.763 249.392 612.984 250.182 614.768 250.182C616.797 250.182 618.178 249.074 618.178 247.568C618.178 246.352 617.416 245.585 615.859 245.205L614.564 244.886C613.53 244.631 613.064 244.284 613.064 243.614C613.064 242.864 613.859 242.318 614.928 242.318C616.098 242.318 616.581 242.966 616.814 243.568L618.018 243.227ZM623.855 250.182C625.628 250.182 626.923 249.295 627.332 247.977L626.037 247.614C625.696 248.523 624.906 248.977 623.855 248.977C622.281 248.977 621.196 247.96 621.134 246.091H627.469V245.523C627.469 242.273 625.537 241.159 623.719 241.159C621.355 241.159 619.787 243.023 619.787 245.705C619.787 248.386 621.332 250.182 623.855 250.182ZM621.134 244.932C621.224 243.574 622.185 242.364 623.719 242.364C625.173 242.364 626.105 243.455 626.105 244.932H621.134ZM647.565 250L652.656 244.909L647.565 239.818L646.69 240.693L648.935 242.932H634.781V244.182H650.19L650.918 244.909L650.19 245.636H634.781V246.886H648.94L646.69 249.136L647.565 250ZM660.143 250H661.553V245.75H664.098C666.808 245.75 668.03 244.102 668.03 242.045C668.03 239.989 666.808 238.364 664.075 238.364H660.143V250ZM661.553 244.5V239.614H664.03C665.922 239.614 666.643 240.648 666.643 242.045C666.643 243.443 665.922 244.5 664.053 244.5H661.553ZM674.459 250H675.595L676.124 246.773H677.845L678.027 245.636H676.311L676.788 242.727H678.527L678.709 241.591H676.976L677.504 238.364H676.368L675.839 241.591H672.885L673.413 238.364H672.277L671.749 241.591H670.027L669.845 242.727H671.561L671.084 245.636H669.345L669.163 246.773H670.896L670.368 250H671.504L672.033 246.773H674.987L674.459 250ZM672.22 245.636L672.697 242.727H675.652L675.175 245.636H672.22ZM684.28 238.364H682.871L679.962 240.295V241.727L682.803 239.841H682.871V250H684.28V238.364Z" fill="black"/>
<path d="M475.108 210.29C474.75 207.705 472.761 206.205 470.182 206.205C467.142 206.205 464.852 208.42 464.852 212.182C464.852 215.938 467.114 218.159 470.182 218.159C472.949 218.159 474.784 216.369 475.108 214.148L472.983 214.136C472.716 215.5 471.602 216.267 470.21 216.267C468.324 216.267 466.972 214.852 466.972 212.182C466.972 209.557 468.312 208.097 470.216 208.097C471.631 208.097 472.739 208.898 472.983 210.29H475.108ZM479.004 206.364H476.947V218H479.004V206.364ZM481.119 218H483.176V209.273H481.119V218ZM482.153 208.034C482.807 208.034 483.341 207.534 483.341 206.92C483.341 206.301 482.807 205.801 482.153 205.801C481.494 205.801 480.96 206.301 480.96 206.92C480.96 207.534 481.494 208.034 482.153 208.034ZM485.291 221.273H487.348V216.625H487.433C487.757 217.261 488.433 218.153 489.933 218.153C491.99 218.153 493.53 216.523 493.53 213.648C493.53 210.739 491.945 209.159 489.928 209.159C488.388 209.159 487.746 210.085 487.433 210.716H487.314V209.273H485.291V221.273ZM487.308 213.636C487.308 211.943 488.036 210.847 489.359 210.847C490.729 210.847 491.433 212.011 491.433 213.636C491.433 215.273 490.717 216.466 489.359 216.466C488.047 216.466 487.308 215.33 487.308 213.636ZM495.382 218H497.405V216.625H497.524C497.848 217.261 498.524 218.153 500.024 218.153C502.081 218.153 503.621 216.523 503.621 213.648C503.621 210.739 502.036 209.159 500.018 209.159C498.479 209.159 497.837 210.085 497.524 210.716H497.439V206.364H495.382V218ZM497.399 213.636C497.399 211.943 498.126 210.847 499.45 210.847C500.82 210.847 501.524 212.011 501.524 213.636C501.524 215.273 500.808 216.466 499.45 216.466C498.138 216.466 497.399 215.33 497.399 213.636ZM509.176 218.17C511.733 218.17 513.358 216.369 513.358 213.67C513.358 210.966 511.733 209.159 509.176 209.159C506.619 209.159 504.994 210.966 504.994 213.67C504.994 216.369 506.619 218.17 509.176 218.17ZM509.188 216.523C507.773 216.523 507.08 215.261 507.08 213.665C507.08 212.068 507.773 210.79 509.188 210.79C510.58 210.79 511.273 212.068 511.273 213.665C511.273 215.261 510.58 216.523 509.188 216.523ZM517.615 218.176C518.984 218.176 519.803 217.534 520.178 216.801H520.246V218H522.223V212.159C522.223 209.852 520.342 209.159 518.678 209.159C516.842 209.159 515.433 209.977 514.979 211.568L516.899 211.841C517.104 211.244 517.683 210.733 518.689 210.733C519.643 210.733 520.166 211.222 520.166 212.08V212.114C520.166 212.705 519.547 212.733 518.007 212.898C516.314 213.08 514.695 213.585 514.695 215.551C514.695 217.267 515.95 218.176 517.615 218.176ZM518.149 216.665C517.291 216.665 516.678 216.273 516.678 215.517C516.678 214.727 517.365 214.398 518.286 214.267C518.825 214.193 519.905 214.057 520.172 213.841V214.869C520.172 215.841 519.388 216.665 518.149 216.665ZM524.291 218H526.348V212.869C526.348 211.761 527.183 210.977 528.314 210.977C528.661 210.977 529.092 211.04 529.268 211.097V209.205C529.081 209.17 528.757 209.148 528.53 209.148C527.53 209.148 526.695 209.716 526.376 210.727H526.286V209.273H524.291V218ZM533.514 218.153C535.014 218.153 535.69 217.261 536.014 216.625H536.139V218H538.162V206.364H536.099V210.716H536.014C535.702 210.085 535.06 209.159 533.52 209.159C531.503 209.159 529.918 210.739 529.918 213.648C529.918 216.523 531.457 218.153 533.514 218.153ZM534.088 216.466C532.73 216.466 532.014 215.273 532.014 213.636C532.014 212.011 532.719 210.847 534.088 210.847C535.412 210.847 536.139 211.943 536.139 213.636C536.139 215.33 535.401 216.466 534.088 216.466Z" fill="black"/>
<rect x="448" y="64" width="352" height="88" rx="3" fill="#FFF2D9"/>
<path d="M471.472 89.5625H473.5C473.46 87.5966 471.784 86.2045 469.307 86.2045C466.864 86.2045 465.028 87.5795 465.034 89.6364C465.034 91.3068 466.222 92.267 468.136 92.7614L469.46 93.1023C470.716 93.4205 471.545 93.8125 471.551 94.7159C471.545 95.7102 470.602 96.375 469.227 96.375C467.909 96.375 466.886 95.7841 466.801 94.5625H464.727C464.812 96.875 466.534 98.1761 469.244 98.1761C472.034 98.1761 473.653 96.7841 473.659 94.733C473.653 92.7159 471.989 91.7955 470.239 91.3807L469.148 91.108C468.193 90.8807 467.159 90.4773 467.17 89.5057C467.176 88.6307 467.96 87.9886 469.278 87.9886C470.534 87.9886 471.364 88.5739 471.472 89.5625ZM477.504 92.8864C477.504 91.625 478.288 90.8977 479.391 90.8977C480.47 90.8977 481.107 91.5852 481.107 92.7614V98H483.163V92.4432C483.163 90.3352 481.97 89.1591 480.158 89.1591C478.817 89.1591 477.964 89.767 477.561 90.7557H477.459V86.3636H475.447V98H477.504V92.8864ZM487.771 98.1761C489.141 98.1761 489.959 97.5341 490.334 96.8011H490.402V98H492.379V92.1591C492.379 89.8523 490.499 89.1591 488.834 89.1591C486.999 89.1591 485.589 89.9773 485.135 91.5682L487.055 91.8409C487.26 91.2443 487.839 90.733 488.845 90.733C489.8 90.733 490.322 91.2216 490.322 92.0795V92.1136C490.322 92.7045 489.703 92.733 488.163 92.8977C486.47 93.0795 484.851 93.5852 484.851 95.5511C484.851 97.267 486.107 98.1761 487.771 98.1761ZM488.305 96.6648C487.447 96.6648 486.834 96.2727 486.834 95.517C486.834 94.7273 487.521 94.3977 488.442 94.267C488.982 94.1932 490.061 94.0568 490.328 93.8409V94.8693C490.328 95.8409 489.544 96.6648 488.305 96.6648ZM494.447 98H496.504V92.8693C496.504 91.7614 497.339 90.9773 498.47 90.9773C498.817 90.9773 499.249 91.0398 499.425 91.0966V89.2045C499.237 89.1705 498.913 89.1477 498.686 89.1477C497.686 89.1477 496.851 89.7159 496.533 90.7273H496.442V89.2727H494.447V98ZM504.295 98.1705C506.33 98.1705 507.727 97.1761 508.091 95.6591L506.17 95.4432C505.892 96.1818 505.21 96.5682 504.324 96.5682C502.994 96.5682 502.114 95.6932 502.097 94.1989H508.176V93.5682C508.176 90.5057 506.335 89.1591 504.188 89.1591C501.688 89.1591 500.057 90.9943 500.057 93.6875C500.057 96.4261 501.665 98.1705 504.295 98.1705ZM502.102 92.8125C502.165 91.6989 502.989 90.7614 504.216 90.7614C505.398 90.7614 506.193 91.625 506.205 92.8125H502.102ZM513.155 98.1534C514.655 98.1534 515.331 97.2614 515.655 96.625H515.78V98H517.803V86.3636H515.74V90.7159H515.655C515.342 90.0852 514.7 89.1591 513.161 89.1591C511.143 89.1591 509.558 90.7386 509.558 93.6477C509.558 96.5227 511.098 98.1534 513.155 98.1534ZM513.729 96.4659C512.371 96.4659 511.655 95.2727 511.655 93.6364C511.655 92.0114 512.359 90.8466 513.729 90.8466C515.053 90.8466 515.78 91.9432 515.78 93.6364C515.78 95.3295 515.041 96.4659 513.729 96.4659ZM526.503 98H528.582L530.918 89.8352H531.009L533.338 98H535.418L538.702 86.3636H536.435L534.338 94.9205H534.236L531.991 86.3636H529.929L527.69 94.9148H527.582L525.486 86.3636H523.219L526.503 98ZM542.989 98.1705C545.545 98.1705 547.17 96.3693 547.17 93.6705C547.17 90.9659 545.545 89.1591 542.989 89.1591C540.432 89.1591 538.807 90.9659 538.807 93.6705C538.807 96.3693 540.432 98.1705 542.989 98.1705ZM543 96.5227C541.585 96.5227 540.892 95.2614 540.892 93.6648C540.892 92.0682 541.585 90.7898 543 90.7898C544.392 90.7898 545.085 92.0682 545.085 93.6648C545.085 95.2614 544.392 96.5227 543 96.5227ZM548.916 98H550.973V92.8693C550.973 91.7614 551.808 90.9773 552.939 90.9773C553.286 90.9773 553.717 91.0398 553.893 91.0966V89.2045C553.706 89.1705 553.382 89.1477 553.155 89.1477C552.155 89.1477 551.32 89.7159 551.001 90.7273H550.911V89.2727H548.916V98ZM555.26 98H557.317V95.0682L558.067 94.267L560.737 98H563.197L559.618 93.0398L562.999 89.2727H560.595L557.459 92.7784H557.317V86.3636H555.26V98ZM567.874 98.1705C569.908 98.1705 571.305 97.1761 571.669 95.6591L569.749 95.4432C569.47 96.1818 568.788 96.5682 567.902 96.5682C566.572 96.5682 565.692 95.6932 565.675 94.1989H571.754V93.5682C571.754 90.5057 569.913 89.1591 567.766 89.1591C565.266 89.1591 563.635 90.9943 563.635 93.6875C563.635 96.4261 565.243 98.1705 567.874 98.1705ZM565.68 92.8125C565.743 91.6989 566.567 90.7614 567.794 90.7614C568.976 90.7614 569.771 91.625 569.783 92.8125H565.68ZM573.494 98H575.551V92.8693C575.551 91.7614 576.386 90.9773 577.517 90.9773C577.864 90.9773 578.295 91.0398 578.472 91.0966V89.2045C578.284 89.1705 577.96 89.1477 577.733 89.1477C576.733 89.1477 575.898 89.7159 575.58 90.7273H575.489V89.2727H573.494V98Z" fill="black"/>
<path d="M465.886 130L467.057 126.705H471.761L472.932 130H474.409L470.136 118.364H468.682L464.409 130H465.886ZM467.5 125.455L469.364 120.205H469.455L471.318 125.455H467.5ZM482.222 123.227C481.801 121.989 480.858 121.159 479.131 121.159C477.29 121.159 475.926 122.205 475.926 123.682C475.926 124.886 476.642 125.693 478.244 126.068L479.699 126.409C480.58 126.614 480.994 127.034 480.994 127.636C480.994 128.386 480.199 129 478.949 129C477.852 129 477.165 128.528 476.926 127.591L475.653 127.909C475.966 129.392 477.188 130.182 478.972 130.182C481 130.182 482.381 129.074 482.381 127.568C482.381 126.352 481.619 125.585 480.062 125.205L478.767 124.886C477.733 124.631 477.267 124.284 477.267 123.614C477.267 122.864 478.062 122.318 479.131 122.318C480.301 122.318 480.784 122.966 481.017 123.568L482.222 123.227ZM490.581 123.227C490.161 121.989 489.217 121.159 487.49 121.159C485.649 121.159 484.286 122.205 484.286 123.682C484.286 124.886 485.001 125.693 486.604 126.068L488.058 126.409C488.939 126.614 489.354 127.034 489.354 127.636C489.354 128.386 488.558 129 487.308 129C486.212 129 485.524 128.528 485.286 127.591L484.013 127.909C484.325 129.392 485.547 130.182 487.331 130.182C489.359 130.182 490.74 129.074 490.74 127.568C490.74 126.352 489.979 125.585 488.422 125.205L487.126 124.886C486.092 124.631 485.626 124.284 485.626 123.614C485.626 122.864 486.422 122.318 487.49 122.318C488.661 122.318 489.143 122.966 489.376 123.568L490.581 123.227ZM496.304 130.182C498.668 130.182 500.259 128.386 500.259 125.682C500.259 122.955 498.668 121.159 496.304 121.159C493.94 121.159 492.349 122.955 492.349 125.682C492.349 128.386 493.94 130.182 496.304 130.182ZM496.304 128.977C494.509 128.977 493.69 127.432 493.69 125.682C493.69 123.932 494.509 122.364 496.304 122.364C498.099 122.364 498.918 123.932 498.918 125.682C498.918 127.432 498.099 128.977 496.304 128.977ZM505.851 130.182C507.783 130.182 509.055 129 509.283 127.455H507.942C507.692 128.409 506.896 128.977 505.851 128.977C504.26 128.977 503.237 127.659 503.237 125.636C503.237 123.659 504.283 122.364 505.851 122.364C507.033 122.364 507.737 123.091 507.942 123.886H509.283C509.055 122.25 507.669 121.159 505.828 121.159C503.464 121.159 501.896 123.023 501.896 125.682C501.896 128.295 503.396 130.182 505.851 130.182ZM511.243 130H512.584V121.273H511.243V130ZM511.925 119.818C512.447 119.818 512.879 119.409 512.879 118.909C512.879 118.409 512.447 118 511.925 118C511.402 118 510.97 118.409 510.97 118.909C510.97 119.409 511.402 119.818 511.925 119.818ZM517.608 130.205C519.131 130.205 519.926 129.386 520.199 128.818H520.267V130H521.608V124.25C521.608 121.477 519.494 121.159 518.381 121.159C517.062 121.159 515.562 121.614 514.881 123.205L516.153 123.659C516.449 123.023 517.148 122.341 518.426 122.341C519.659 122.341 520.267 122.994 520.267 124.114V124.159C520.267 124.807 519.608 124.75 518.017 124.955C516.398 125.165 514.631 125.523 514.631 127.523C514.631 129.227 515.949 130.205 517.608 130.205ZM517.812 129C516.744 129 515.972 128.523 515.972 127.591C515.972 126.568 516.903 126.25 517.949 126.114C518.517 126.045 520.04 125.886 520.267 125.614V126.841C520.267 127.932 519.403 129 517.812 129ZM527.851 121.273H525.987V119.182H524.646V121.273H523.328V122.409H524.646V127.864C524.646 129.386 525.874 130.114 527.01 130.114C527.51 130.114 527.828 130.023 528.01 129.955L527.737 128.75C527.624 128.773 527.442 128.818 527.146 128.818C526.555 128.818 525.987 128.636 525.987 127.5V122.409H527.851V121.273ZM533.433 130.182C535.206 130.182 536.501 129.295 536.911 127.977L535.615 127.614C535.274 128.523 534.484 128.977 533.433 128.977C531.859 128.977 530.774 127.96 530.712 126.091H537.047V125.523C537.047 122.273 535.115 121.159 533.297 121.159C530.933 121.159 529.365 123.023 529.365 125.705C529.365 128.386 530.911 130.182 533.433 130.182ZM530.712 124.932C530.803 123.574 531.763 122.364 533.297 122.364C534.751 122.364 535.683 123.455 535.683 124.932H530.712ZM543.768 130H545.178V125.75H547.723C550.433 125.75 551.655 124.102 551.655 122.045C551.655 119.989 550.433 118.364 547.7 118.364H543.768V130ZM545.178 124.5V119.614H547.655C549.547 119.614 550.268 120.648 550.268 122.045C550.268 123.443 549.547 124.5 547.678 124.5H545.178ZM558.084 130H559.22L559.749 126.773H561.47L561.652 125.636H559.936L560.413 122.727H562.152L562.334 121.591H560.601L561.129 118.364H559.993L559.464 121.591H556.51L557.038 118.364H555.902L555.374 121.591H553.652L553.47 122.727H555.186L554.709 125.636H552.97L552.788 126.773H554.521L553.993 130H555.129L555.658 126.773H558.612L558.084 130ZM555.845 125.636L556.322 122.727H559.277L558.8 125.636H555.845ZM567.905 118.364H566.496L563.587 120.295V121.727L566.428 119.841H566.496V130H567.905V118.364ZM589.331 129.273L594.422 124.182L589.331 119.091L588.456 119.966L590.7 122.205H576.547V123.455H591.956L592.683 124.182L591.956 124.909H576.547V126.159H590.706L588.456 128.409L589.331 129.273ZM611.273 122C610.841 119.614 608.932 118.205 606.591 118.205C603.614 118.205 601.455 120.5 601.455 124.182C601.455 127.864 603.614 130.159 606.591 130.159C608.932 130.159 610.841 128.75 611.273 126.364H609.864C609.523 127.977 608.136 128.841 606.591 128.841C604.477 128.841 602.818 127.205 602.818 124.182C602.818 121.159 604.477 119.523 606.591 119.523C608.136 119.523 609.523 120.386 609.864 122H611.273ZM616.913 130.182C619.277 130.182 620.868 128.386 620.868 125.682C620.868 122.955 619.277 121.159 616.913 121.159C614.55 121.159 612.959 122.955 612.959 125.682C612.959 128.386 614.55 130.182 616.913 130.182ZM616.913 128.977C615.118 128.977 614.3 127.432 614.3 125.682C614.3 123.932 615.118 122.364 616.913 122.364C618.709 122.364 619.527 123.932 619.527 125.682C619.527 127.432 618.709 128.977 616.913 128.977ZM624.256 124.75C624.256 123.227 625.199 122.364 626.483 122.364C627.727 122.364 628.483 123.176 628.483 124.545V130H629.824V124.455C629.824 122.227 628.636 121.159 626.869 121.159C625.551 121.159 624.733 121.75 624.324 122.636H624.21V121.273H622.915V130H624.256V124.75ZM633.615 124.75C633.615 123.227 634.558 122.364 635.842 122.364C637.087 122.364 637.842 123.176 637.842 124.545V130H639.183V124.455C639.183 122.227 637.996 121.159 636.229 121.159C634.911 121.159 634.092 121.75 633.683 122.636H633.57V121.273H632.274V130H633.615V124.75ZM645.974 130H647.111L647.639 126.773H649.361L649.543 125.636H647.827L648.304 122.727H650.043L650.224 121.591H648.491L649.02 118.364H647.884L647.355 121.591H644.401L644.929 118.364H643.793L643.264 121.591H641.543L641.361 122.727H643.077L642.599 125.636H640.861L640.679 126.773H642.412L641.884 130H643.02L643.548 126.773H646.503L645.974 130ZM643.736 125.636L644.213 122.727H647.168L646.69 125.636H643.736ZM652.386 130L653.557 126.705H658.261L659.432 130H660.909L656.636 118.364H655.182L650.909 130H652.386ZM654 125.455L655.864 120.205H655.955L657.818 125.455H654Z" fill="black"/>
<rect width="352" height="208" rx="3" fill="#DAF5E8"/>
<rect x="12" y="56" width="69" height="26" rx="3" fill="#93EDB2"/>
<path d="M19.5966 34H21.6761L24.0114 25.8352H24.1023L26.4318 34H28.5114L31.7955 22.3636H29.5284L27.4318 30.9205H27.3295L25.0852 22.3636H23.0227L20.7841 30.9148H20.6761L18.5795 22.3636H16.3125L19.5966 34ZM36.1392 34.1705C38.1733 34.1705 39.571 33.1761 39.9347 31.6591L38.0142 31.4432C37.7358 32.1818 37.054 32.5682 36.1676 32.5682C34.8381 32.5682 33.9574 31.6932 33.9403 30.1989H40.0199V29.5682C40.0199 26.5057 38.179 25.1591 36.0312 25.1591C33.5312 25.1591 31.9006 26.9943 31.9006 29.6875C31.9006 32.4261 33.5085 34.1705 36.1392 34.1705ZM33.946 28.8125C34.0085 27.6989 34.8324 26.7614 36.0597 26.7614C37.2415 26.7614 38.0369 27.625 38.0483 28.8125H33.946ZM41.8509 34H43.8736V32.625H43.9929C44.3168 33.2614 44.9929 34.1534 46.4929 34.1534C48.5497 34.1534 50.0895 32.5227 50.0895 29.6477C50.0895 26.7386 48.5043 25.1591 46.4872 25.1591C44.9474 25.1591 44.3054 26.0852 43.9929 26.7159H43.9077V22.3636H41.8509V34ZM43.8679 29.6364C43.8679 27.9432 44.5952 26.8466 45.919 26.8466C47.2884 26.8466 47.9929 28.0114 47.9929 29.6364C47.9929 31.2727 47.277 32.4659 45.919 32.4659C44.6065 32.4659 43.8679 31.3295 43.8679 29.6364ZM55.8068 37.2727H57.8636V32.625H57.9489C58.2727 33.2614 58.9489 34.1534 60.4489 34.1534C62.5057 34.1534 64.0455 32.5227 64.0455 29.6477C64.0455 26.7386 62.4602 25.1591 60.4432 25.1591C58.9034 25.1591 58.2614 26.0852 57.9489 26.7159H57.8295V25.2727H55.8068V37.2727ZM57.8239 29.6364C57.8239 27.9432 58.5511 26.8466 59.875 26.8466C61.2443 26.8466 61.9489 28.0114 61.9489 29.6364C61.9489 31.2727 61.233 32.4659 59.875 32.4659C58.5625 32.4659 57.8239 31.3295 57.8239 29.6364ZM68.3182 34.1761C69.6875 34.1761 70.5057 33.5341 70.8807 32.8011H70.9489V34H72.9261V28.1591C72.9261 25.8523 71.0455 25.1591 69.3807 25.1591C67.5455 25.1591 66.1364 25.9773 65.6818 27.5682L67.6023 27.8409C67.8068 27.2443 68.3864 26.733 69.392 26.733C70.3466 26.733 70.8693 27.2216 70.8693 28.0795V28.1136C70.8693 28.7045 70.25 28.733 68.7102 28.8977C67.017 29.0795 65.3977 29.5852 65.3977 31.5511C65.3977 33.267 66.6534 34.1761 68.3182 34.1761ZM68.8523 32.6648C67.9943 32.6648 67.3807 32.2727 67.3807 31.517C67.3807 30.7273 68.0682 30.3977 68.9886 30.267C69.5284 30.1932 70.608 30.0568 70.875 29.8409V30.8693C70.875 31.8409 70.0909 32.6648 68.8523 32.6648ZM78.7898 37.4205C81.1477 37.4205 82.8864 36.3409 82.8864 34.142V25.2727H80.858V26.7159H80.7443C80.4318 26.0852 79.7784 25.1591 78.2386 25.1591C76.2216 25.1591 74.6364 26.7386 74.6364 29.608C74.6364 32.4545 76.2216 33.875 78.233 33.875C79.7273 33.875 80.4261 33.0739 80.7443 32.4318H80.8466V34.0852C80.8466 35.3352 79.9943 35.8636 78.8239 35.8636C77.5852 35.8636 77.0398 35.2784 76.7898 34.8011L74.9375 35.25C75.3125 36.4375 76.5682 37.4205 78.7898 37.4205ZM78.8068 32.2614C77.4489 32.2614 76.733 31.2045 76.733 29.5966C76.733 28.0114 77.4375 26.8466 78.8068 26.8466C80.1307 26.8466 80.858 27.9432 80.858 29.5966C80.858 31.2614 80.1193 32.2614 78.8068 32.2614ZM88.858 34.1705C90.892 34.1705 92.2898 33.1761 92.6534 31.6591L90.733 31.4432C90.4545 32.1818 89.7727 32.5682 88.8864 32.5682C87.5568 32.5682 86.6761 31.6932 86.6591 30.1989H92.7386V29.5682C92.7386 26.5057 90.8977 25.1591 88.75 25.1591C86.25 25.1591 84.6193 26.9943 84.6193 29.6875C84.6193 32.4261 86.2273 34.1705 88.858 34.1705ZM86.6648 28.8125C86.7273 27.6989 87.5511 26.7614 88.7784 26.7614C89.9602 26.7614 90.7557 27.625 90.767 28.8125H86.6648Z" fill="black"/>
<path d="M269.96 26C269.528 23.6136 267.619 22.2045 265.278 22.2045C262.301 22.2045 260.142 24.5 260.142 28.1818C260.142 31.8636 262.301 34.1591 265.278 34.1591C267.619 34.1591 269.528 32.75 269.96 30.3636H268.551C268.21 31.9773 266.824 32.8409 265.278 32.8409C263.165 32.8409 261.506 31.2045 261.506 28.1818C261.506 25.1591 263.165 23.5227 265.278 23.5227C266.824 23.5227 268.21 24.3864 268.551 26H269.96ZM275.601 34.1818C277.964 34.1818 279.555 32.3864 279.555 29.6818C279.555 26.9545 277.964 25.1591 275.601 25.1591C273.237 25.1591 271.646 26.9545 271.646 29.6818C271.646 32.3864 273.237 34.1818 275.601 34.1818ZM275.601 32.9773C273.805 32.9773 272.987 31.4318 272.987 29.6818C272.987 27.9318 273.805 26.3636 275.601 26.3636C277.396 26.3636 278.214 27.9318 278.214 29.6818C278.214 31.4318 277.396 32.9773 275.601 32.9773ZM282.943 28.75C282.943 27.2273 283.886 26.3636 285.17 26.3636C286.415 26.3636 287.17 27.1761 287.17 28.5455V34H288.511V28.4545C288.511 26.2273 287.324 25.1591 285.557 25.1591C284.239 25.1591 283.42 25.75 283.011 26.6364H282.898V25.2727H281.602V34H282.943V28.75ZM292.303 28.75C292.303 27.2273 293.246 26.3636 294.53 26.3636C295.774 26.3636 296.53 27.1761 296.53 28.5455V34H297.871V28.4545C297.871 26.2273 296.683 25.1591 294.916 25.1591C293.598 25.1591 292.78 25.75 292.371 26.6364H292.257V25.2727H290.962V34H292.303V28.75ZM304.662 34H305.798L306.327 30.7727H308.048L308.23 29.6364H306.514L306.991 26.7273H308.73L308.912 25.5909H307.179L307.707 22.3636H306.571L306.043 25.5909H303.088L303.616 22.3636H302.48L301.952 25.5909H300.23L300.048 26.7273H301.764L301.287 29.6364H299.548L299.366 30.7727H301.099L300.571 34H301.707L302.236 30.7727H305.19L304.662 34ZM302.423 29.6364L302.901 26.7273H305.855L305.378 29.6364H302.423ZM311.074 34L312.244 30.7045H316.949L318.119 34H319.597L315.324 22.3636H313.869L309.597 34H311.074ZM312.688 29.4545L314.551 24.2045H314.642L316.506 29.4545H312.688Z" fill="black"/>
<path d="M432.707 245.707C433.098 245.317 433.098 244.683 432.707 244.293L426.343 237.929C425.953 237.538 425.319 237.538 424.929 237.929C424.538 238.319 424.538 238.953 424.929 239.343L430.586 245L424.929 250.657C424.538 251.047 424.538 251.681 424.929 252.071C425.319 252.462 425.953 252.462 426.343 252.071L432.707 245.707ZM432 244C379.568 244 339.915 220.159 301.404 196.151C262.957 172.184 225.586 148 178 148V150C224.914 150 261.793 173.816 300.346 197.849C338.835 221.842 378.932 246 432 246V244Z" fill="#282828"/>
<path d="M238 163H264V182H222L238 163Z" fill="#DAF5E8"/>
<path d="M33.8864 106L35.0568 102.705H39.7614L40.9318 106H42.4091L38.1364 94.3636H36.6818L32.4091 106H33.8864ZM35.5 101.455L37.3636 96.2045H37.4545L39.3182 101.455H35.5ZM45.3807 94.3636H44.0398V106H45.3807V94.3636ZM49.1776 94.3636H47.8366V106H49.1776V94.3636ZM55.179 106.182C57.5426 106.182 59.1335 104.386 59.1335 101.682C59.1335 98.9545 57.5426 97.1591 55.179 97.1591C52.8153 97.1591 51.2244 98.9545 51.2244 101.682C51.2244 104.386 52.8153 106.182 55.179 106.182ZM55.179 104.977C53.3835 104.977 52.5653 103.432 52.5653 101.682C52.5653 99.9318 53.3835 98.3636 55.179 98.3636C56.9744 98.3636 57.7926 99.9318 57.7926 101.682C57.7926 103.432 56.9744 104.977 55.179 104.977ZM64.7259 106.182C66.6577 106.182 67.9304 105 68.1577 103.455H66.8168C66.5668 104.409 65.7713 104.977 64.7259 104.977C63.1349 104.977 62.1122 103.659 62.1122 101.636C62.1122 99.6591 63.1577 98.3636 64.7259 98.3636C65.9077 98.3636 66.6122 99.0909 66.8168 99.8864H68.1577C67.9304 98.25 66.544 97.1591 64.7031 97.1591C62.3395 97.1591 60.7713 99.0227 60.7713 101.682C60.7713 104.295 62.2713 106.182 64.7259 106.182ZM72.6861 106.205C74.2088 106.205 75.0043 105.386 75.277 104.818H75.3452V106H76.6861V100.25C76.6861 97.4773 74.5724 97.1591 73.4588 97.1591C72.1406 97.1591 70.6406 97.6136 69.9588 99.2045L71.2315 99.6591C71.527 99.0227 72.2259 98.3409 73.5043 98.3409C74.7372 98.3409 75.3452 98.9943 75.3452 100.114V100.159C75.3452 100.807 74.6861 100.75 73.0952 100.955C71.4759 101.165 69.7088 101.523 69.7088 103.523C69.7088 105.227 71.027 106.205 72.6861 106.205ZM72.8906 105C71.8224 105 71.0497 104.523 71.0497 103.591C71.0497 102.568 71.9815 102.25 73.027 102.114C73.5952 102.045 75.1179 101.886 75.3452 101.614V102.841C75.3452 103.932 74.4815 105 72.8906 105ZM82.929 97.2727H81.0653V95.1818H79.7244V97.2727H78.4062V98.4091H79.7244V103.864C79.7244 105.386 80.9517 106.114 82.0881 106.114C82.5881 106.114 82.9062 106.023 83.0881 105.955L82.8153 104.75C82.7017 104.773 82.5199 104.818 82.2244 104.818C81.6335 104.818 81.0653 104.636 81.0653 103.5V98.4091H82.929V97.2727ZM88.5114 106.182C90.2841 106.182 91.5795 105.295 91.9886 103.977L90.6932 103.614C90.3523 104.523 89.5625 104.977 88.5114 104.977C86.9375 104.977 85.8523 103.96 85.7898 102.091H92.125V101.523C92.125 98.2727 90.1932 97.1591 88.375 97.1591C86.0114 97.1591 84.4432 99.0227 84.4432 101.705C84.4432 104.386 85.9886 106.182 88.5114 106.182ZM85.7898 100.932C85.8807 99.5739 86.8409 98.3636 88.375 98.3636C89.8295 98.3636 90.7614 99.4545 90.7614 100.932H85.7898ZM98.8466 106H100.256V101.75H102.801C105.511 101.75 106.733 100.102 106.733 98.0455C106.733 95.9886 105.511 94.3636 102.778 94.3636H98.8466V106ZM100.256 100.5V95.6136H102.733C104.625 95.6136 105.347 96.6477 105.347 98.0455C105.347 99.4432 104.625 100.5 102.756 100.5H100.256ZM108.821 106H110.162V100.477C110.162 99.2955 111.094 98.4318 112.366 98.4318C112.724 98.4318 113.094 98.5 113.185 98.5227V97.1591C113.031 97.1477 112.679 97.1364 112.48 97.1364C111.435 97.1364 110.526 97.7273 110.207 98.5909H110.116V97.2727H108.821V106ZM118.054 106.182C120.418 106.182 122.009 104.386 122.009 101.682C122.009 98.9545 120.418 97.1591 118.054 97.1591C115.69 97.1591 114.099 98.9545 114.099 101.682C114.099 104.386 115.69 106.182 118.054 106.182ZM118.054 104.977C116.259 104.977 115.44 103.432 115.44 101.682C115.44 99.9318 116.259 98.3636 118.054 98.3636C119.849 98.3636 120.668 99.9318 120.668 101.682C120.668 103.432 119.849 104.977 118.054 104.977ZM124.055 106H125.396V100.545C125.396 99.267 126.328 98.3636 127.374 98.3636C128.391 98.3636 129.101 99.0284 129.101 100.023V106H130.464V100.318C130.464 99.1932 131.169 98.3636 132.396 98.3636C133.351 98.3636 134.169 98.8693 134.169 100.159V106H135.51V100.159C135.51 98.108 134.408 97.1591 132.851 97.1591C131.601 97.1591 130.686 97.733 130.237 98.6364H130.146C129.714 97.7045 128.953 97.1591 127.805 97.1591C126.669 97.1591 125.828 97.7045 125.464 98.6364H125.351V97.2727H124.055V106ZM137.962 106H139.303V97.2727H137.962V106ZM138.643 95.8182C139.166 95.8182 139.598 95.4091 139.598 94.9091C139.598 94.4091 139.166 94 138.643 94C138.121 94 137.689 94.4091 137.689 94.9091C137.689 95.4091 138.121 95.8182 138.643 95.8182ZM147.94 99.2273C147.52 97.9886 146.577 97.1591 144.849 97.1591C143.009 97.1591 141.645 98.2045 141.645 99.6818C141.645 100.886 142.361 101.693 143.963 102.068L145.418 102.409C146.298 102.614 146.713 103.034 146.713 103.636C146.713 104.386 145.918 105 144.668 105C143.571 105 142.884 104.528 142.645 103.591L141.372 103.909C141.685 105.392 142.906 106.182 144.69 106.182C146.719 106.182 148.099 105.074 148.099 103.568C148.099 102.352 147.338 101.585 145.781 101.205L144.486 100.886C143.452 100.631 142.986 100.284 142.986 99.6136C142.986 98.8636 143.781 98.3182 144.849 98.3182C146.02 98.3182 146.503 98.9659 146.736 99.5682L147.94 99.2273ZM153.777 106.182C155.55 106.182 156.845 105.295 157.254 103.977L155.959 103.614C155.618 104.523 154.828 104.977 153.777 104.977C152.203 104.977 151.118 103.96 151.055 102.091H157.391V101.523C157.391 98.2727 155.459 97.1591 153.641 97.1591C151.277 97.1591 149.709 99.0227 149.709 101.705C149.709 104.386 151.254 106.182 153.777 106.182ZM151.055 100.932C151.146 99.5739 152.107 98.3636 153.641 98.3636C155.095 98.3636 156.027 99.4545 156.027 100.932H151.055ZM164.43 100.386H159.339V101.636H164.43V100.386ZM168.381 94.3636H166.972V106H168.381V94.3636ZM174.797 106C178.342 106 180.342 103.795 180.342 100.159C180.342 96.5455 178.342 94.3636 174.956 94.3636H171.206V106H174.797ZM172.615 104.75V95.6136H174.865C177.592 95.6136 178.979 97.3409 178.979 100.159C178.979 103 177.592 104.75 174.706 104.75H172.615ZM191.706 106H193.115V101.75H195.661C198.371 101.75 199.592 100.102 199.592 98.0455C199.592 95.9886 198.371 94.3636 195.638 94.3636H191.706V106ZM193.115 100.5V95.6136H195.592C197.484 95.6136 198.206 96.6477 198.206 98.0455C198.206 99.4432 197.484 100.5 195.615 100.5H193.115ZM206.021 106H207.158L207.686 102.773H209.408L209.589 101.636H207.874L208.351 98.7273H210.089L210.271 97.5909H208.538L209.067 94.3636H207.93L207.402 97.5909H204.447L204.976 94.3636H203.839L203.311 97.5909H201.589L201.408 98.7273H203.124L202.646 101.636H200.908L200.726 102.773H202.459L201.93 106H203.067L203.595 102.773H206.55L206.021 106ZM203.783 101.636L204.26 98.7273H207.214L206.737 101.636H203.783ZM215.842 94.3636H214.433L211.524 96.2955V97.7273L214.365 95.8409H214.433V106H215.842V94.3636ZM32.7727 119.614H36.4318V130H37.8409V119.614H41.5V118.364H32.7727V119.614ZM45.8864 130.182C47.6591 130.182 48.9545 129.295 49.3636 127.977L48.0682 127.614C47.7273 128.523 46.9375 128.977 45.8864 128.977C44.3125 128.977 43.2273 127.96 43.1648 126.091H49.5V125.523C49.5 122.273 47.5682 121.159 45.75 121.159C43.3864 121.159 41.8182 123.023 41.8182 125.705C41.8182 128.386 43.3636 130.182 45.8864 130.182ZM43.1648 124.932C43.2557 123.574 44.2159 122.364 45.75 122.364C47.2045 122.364 48.1364 123.455 48.1364 124.932H43.1648ZM52.8807 118.364H51.5398V130H52.8807V118.364ZM56.6776 118.364H55.3366V130H56.6776V118.364ZM65.6108 130H66.929L68.8381 123.295H68.9744L70.8835 130H72.2017L74.8608 121.273H73.4517L71.5653 127.932H71.4744L69.6335 121.273H68.2017L66.3381 127.955H66.2472L64.3608 121.273H62.9517L65.6108 130ZM79.8821 130.182C82.2457 130.182 83.8366 128.386 83.8366 125.682C83.8366 122.955 82.2457 121.159 79.8821 121.159C77.5185 121.159 75.9276 122.955 75.9276 125.682C75.9276 128.386 77.5185 130.182 79.8821 130.182ZM79.8821 128.977C78.0866 128.977 77.2685 127.432 77.2685 125.682C77.2685 123.932 78.0866 122.364 79.8821 122.364C81.6776 122.364 82.4957 123.932 82.4957 125.682C82.4957 127.432 81.6776 128.977 79.8821 128.977ZM85.8835 130H87.2244V124.477C87.2244 123.295 88.1562 122.432 89.429 122.432C89.7869 122.432 90.1562 122.5 90.2472 122.523V121.159C90.0938 121.148 89.7415 121.136 89.5426 121.136C88.4972 121.136 87.5881 121.727 87.2699 122.591H87.179V121.273H85.8835V130ZM91.8366 130H93.1776V126.733L94.1151 125.864L97.3821 130H99.0866L95.1264 125L98.8139 121.273H97.1548L93.3366 125.159H93.1776V118.364H91.8366V130ZM103.839 130.182C105.612 130.182 106.908 129.295 107.317 127.977L106.021 127.614C105.68 128.523 104.891 128.977 103.839 128.977C102.266 128.977 101.18 127.96 101.118 126.091H107.453V125.523C107.453 122.273 105.521 121.159 103.703 121.159C101.339 121.159 99.7713 123.023 99.7713 125.705C99.7713 128.386 101.317 130.182 103.839 130.182ZM101.118 124.932C101.209 123.574 102.169 122.364 103.703 122.364C105.158 122.364 106.089 123.455 106.089 124.932H101.118ZM109.493 130H110.834V124.477C110.834 123.295 111.766 122.432 113.038 122.432C113.396 122.432 113.766 122.5 113.857 122.523V121.159C113.703 121.148 113.351 121.136 113.152 121.136C112.107 121.136 111.197 121.727 110.879 122.591H110.788V121.273H109.493V130ZM122.514 130.205C124.037 130.205 124.832 129.386 125.105 128.818H125.173V130H126.514V124.25C126.514 121.477 124.401 121.159 123.287 121.159C121.969 121.159 120.469 121.614 119.787 123.205L121.06 123.659C121.355 123.023 122.054 122.341 123.332 122.341C124.565 122.341 125.173 122.994 125.173 124.114V124.159C125.173 124.807 124.514 124.75 122.923 124.955C121.304 125.165 119.537 125.523 119.537 127.523C119.537 129.227 120.855 130.205 122.514 130.205ZM122.719 129C121.651 129 120.878 128.523 120.878 127.591C120.878 126.568 121.81 126.25 122.855 126.114C123.423 126.045 124.946 125.886 125.173 125.614V126.841C125.173 127.932 124.31 129 122.719 129ZM129.143 130H130.439V128.659H130.598C130.893 129.136 131.462 130.182 133.143 130.182C135.325 130.182 136.848 128.432 136.848 125.659C136.848 122.909 135.325 121.159 133.121 121.159C131.416 121.159 130.893 122.205 130.598 122.659H130.484V118.364H129.143V130ZM130.462 125.636C130.462 123.682 131.325 122.364 132.962 122.364C134.666 122.364 135.507 123.795 135.507 125.636C135.507 127.5 134.643 128.977 132.962 128.977C131.348 128.977 130.462 127.614 130.462 125.636ZM142.445 130.182C144.808 130.182 146.399 128.386 146.399 125.682C146.399 122.955 144.808 121.159 142.445 121.159C140.081 121.159 138.49 122.955 138.49 125.682C138.49 128.386 140.081 130.182 142.445 130.182ZM142.445 128.977C140.649 128.977 139.831 127.432 139.831 125.682C139.831 123.932 140.649 122.364 142.445 122.364C144.24 122.364 145.058 123.932 145.058 125.682C145.058 127.432 144.24 128.977 142.445 128.977ZM153.946 126.432C153.946 128.068 152.696 128.818 151.696 128.818C150.582 128.818 149.787 128 149.787 126.727V121.273H148.446V126.818C148.446 129.045 149.628 130.114 151.264 130.114C152.582 130.114 153.446 129.409 153.855 128.523H153.946V130H155.287V121.273H153.946V126.432ZM161.538 121.273H159.675V119.182H158.334V121.273H157.016V122.409H158.334V127.864C158.334 129.386 159.561 130.114 160.697 130.114C161.197 130.114 161.516 130.023 161.697 129.955L161.425 128.75C161.311 128.773 161.129 128.818 160.834 128.818C160.243 128.818 159.675 128.636 159.675 127.5V122.409H161.538V121.273ZM168.055 130H169.396V121.273H168.055V130ZM168.737 119.818C169.26 119.818 169.692 119.409 169.692 118.909C169.692 118.409 169.26 118 168.737 118C168.214 118 167.783 118.409 167.783 118.909C167.783 119.409 168.214 119.818 168.737 119.818ZM175.648 121.273H173.784V119.182H172.443V121.273H171.125V122.409H172.443V127.864C172.443 129.386 173.67 130.114 174.807 130.114C175.307 130.114 175.625 130.023 175.807 129.955L175.534 128.75C175.42 128.773 175.239 128.818 174.943 128.818C174.352 128.818 173.784 128.636 173.784 127.5V122.409H175.648V121.273ZM35.5227 154H36.9773L39.5455 144.727H39.6364L42.2045 154H43.6591L46.8409 142.364H45.4091L42.9773 151.841H42.8636L40.3864 142.364H38.7955L36.3182 151.841H36.2045L33.7727 142.364H32.3409L35.5227 154ZM47.8679 154H49.2088V148.477C49.2088 147.295 50.1406 146.432 51.4134 146.432C51.7713 146.432 52.1406 146.5 52.2315 146.523V145.159C52.0781 145.148 51.7259 145.136 51.527 145.136C50.4815 145.136 49.5724 145.727 49.2543 146.591H49.1634V145.273H47.8679V154ZM53.821 154H55.1619V145.273H53.821V154ZM54.5028 143.818C55.0256 143.818 55.4574 143.409 55.4574 142.909C55.4574 142.409 55.0256 142 54.5028 142C53.9801 142 53.5483 142.409 53.5483 142.909C53.5483 143.409 53.9801 143.818 54.5028 143.818ZM61.4134 145.273H59.5497V143.182H58.2088V145.273H56.8906V146.409H58.2088V151.864C58.2088 153.386 59.4361 154.114 60.5724 154.114C61.0724 154.114 61.3906 154.023 61.5724 153.955L61.2997 152.75C61.1861 152.773 61.0043 152.818 60.7088 152.818C60.1179 152.818 59.5497 152.636 59.5497 151.5V146.409H61.4134V145.273ZM66.9957 154.182C68.7685 154.182 70.0639 153.295 70.473 151.977L69.1776 151.614C68.8366 152.523 68.0469 152.977 66.9957 152.977C65.4219 152.977 64.3366 151.96 64.2741 150.091H70.6094V149.523C70.6094 146.273 68.6776 145.159 66.8594 145.159C64.4957 145.159 62.9276 147.023 62.9276 149.705C62.9276 152.386 64.473 154.182 66.9957 154.182ZM64.2741 148.932C64.3651 147.574 65.3253 146.364 66.8594 146.364C68.3139 146.364 69.2457 147.455 69.2457 148.932H64.2741ZM80.9446 145.273H79.081V143.182H77.7401V145.273H76.4219V146.409H77.7401V151.864C77.7401 153.386 78.9673 154.114 80.1037 154.114C80.6037 154.114 80.9219 154.023 81.1037 153.955L80.831 152.75C80.7173 152.773 80.5355 152.818 80.2401 152.818C79.6491 152.818 79.081 152.636 79.081 151.5V146.409H80.9446V145.273ZM86.4134 154.182C88.777 154.182 90.3679 152.386 90.3679 149.682C90.3679 146.955 88.777 145.159 86.4134 145.159C84.0497 145.159 82.4588 146.955 82.4588 149.682C82.4588 152.386 84.0497 154.182 86.4134 154.182ZM86.4134 152.977C84.6179 152.977 83.7997 151.432 83.7997 149.682C83.7997 147.932 84.6179 146.364 86.4134 146.364C88.2088 146.364 89.027 147.932 89.027 149.682C89.027 151.432 88.2088 152.977 86.4134 152.977ZM106.46 146C106.028 143.614 104.119 142.205 101.778 142.205C98.8011 142.205 96.642 144.5 96.642 148.182C96.642 151.864 98.8011 154.159 101.778 154.159C104.119 154.159 106.028 152.75 106.46 150.364H105.051C104.71 151.977 103.324 152.841 101.778 152.841C99.6648 152.841 98.0057 151.205 98.0057 148.182C98.0057 145.159 99.6648 143.523 101.778 143.523C103.324 143.523 104.71 144.386 105.051 146H106.46ZM109.896 142.364H108.555V154H109.896V142.364ZM112.352 154H113.693V145.273H112.352V154ZM113.034 143.818C113.557 143.818 113.989 143.409 113.989 142.909C113.989 142.409 113.557 142 113.034 142C112.511 142 112.08 142.409 112.08 142.909C112.08 143.409 112.511 143.818 113.034 143.818ZM116.149 157.273H117.49V152.659H117.604C117.899 153.136 118.467 154.182 120.149 154.182C122.331 154.182 123.854 152.432 123.854 149.659C123.854 146.909 122.331 145.159 120.126 145.159C118.422 145.159 117.899 146.205 117.604 146.659H117.445V145.273H116.149V157.273ZM117.467 149.636C117.467 147.682 118.331 146.364 119.967 146.364C121.672 146.364 122.513 147.795 122.513 149.636C122.513 151.5 121.649 152.977 119.967 152.977C118.354 152.977 117.467 151.614 117.467 149.636ZM126.081 154H127.376V152.659H127.536C127.831 153.136 128.399 154.182 130.081 154.182C132.263 154.182 133.786 152.432 133.786 149.659C133.786 146.909 132.263 145.159 130.058 145.159C128.354 145.159 127.831 146.205 127.536 146.659H127.422V142.364H126.081V154ZM127.399 149.636C127.399 147.682 128.263 146.364 129.899 146.364C131.604 146.364 132.445 147.795 132.445 149.636C132.445 151.5 131.581 152.977 129.899 152.977C128.286 152.977 127.399 151.614 127.399 149.636ZM139.382 154.182C141.746 154.182 143.337 152.386 143.337 149.682C143.337 146.955 141.746 145.159 139.382 145.159C137.018 145.159 135.428 146.955 135.428 149.682C135.428 152.386 137.018 154.182 139.382 154.182ZM139.382 152.977C137.587 152.977 136.768 151.432 136.768 149.682C136.768 147.932 137.587 146.364 139.382 146.364C141.178 146.364 141.996 147.932 141.996 149.682C141.996 151.432 141.178 152.977 139.382 152.977ZM147.952 154.205C149.474 154.205 150.27 153.386 150.543 152.818H150.611V154H151.952V148.25C151.952 145.477 149.838 145.159 148.724 145.159C147.406 145.159 145.906 145.614 145.224 147.205L146.497 147.659C146.793 147.023 147.491 146.341 148.77 146.341C150.003 146.341 150.611 146.994 150.611 148.114V148.159C150.611 148.807 149.952 148.75 148.361 148.955C146.741 149.165 144.974 149.523 144.974 151.523C144.974 153.227 146.293 154.205 147.952 154.205ZM148.156 153C147.088 153 146.315 152.523 146.315 151.591C146.315 150.568 147.247 150.25 148.293 150.114C148.861 150.045 150.384 149.886 150.611 149.614V150.841C150.611 151.932 149.747 153 148.156 153ZM154.399 154H155.74V148.477C155.74 147.295 156.672 146.432 157.945 146.432C158.303 146.432 158.672 146.5 158.763 146.523V145.159C158.609 145.148 158.257 145.136 158.058 145.136C157.013 145.136 156.104 145.727 155.786 146.591H155.695V145.273H154.399V154ZM163.382 154.182C165.064 154.182 165.632 153.136 165.928 152.659H166.087V154H167.382V142.364H166.041V146.659H165.928C165.632 146.205 165.109 145.159 163.405 145.159C161.2 145.159 159.678 146.909 159.678 149.659C159.678 152.432 161.2 154.182 163.382 154.182ZM163.564 152.977C161.882 152.977 161.018 151.5 161.018 149.636C161.018 147.795 161.859 146.364 163.564 146.364C165.2 146.364 166.064 147.682 166.064 149.636C166.064 151.614 165.178 152.977 163.564 152.977ZM33.8864 178L35.0568 174.705H39.7614L40.9318 178H42.4091L38.1364 166.364H36.6818L32.4091 178H33.8864ZM35.5 173.455L37.3636 168.205H37.4545L39.3182 173.455H35.5ZM50.2216 171.227C49.8011 169.989 48.858 169.159 47.1307 169.159C45.2898 169.159 43.9261 170.205 43.9261 171.682C43.9261 172.886 44.642 173.693 46.2443 174.068L47.6989 174.409C48.5795 174.614 48.9943 175.034 48.9943 175.636C48.9943 176.386 48.1989 177 46.9489 177C45.8523 177 45.1648 176.528 44.9261 175.591L43.6534 175.909C43.9659 177.392 45.1875 178.182 46.9716 178.182C49 178.182 50.3807 177.074 50.3807 175.568C50.3807 174.352 49.6193 173.585 48.0625 173.205L46.767 172.886C45.733 172.631 45.267 172.284 45.267 171.614C45.267 170.864 46.0625 170.318 47.1307 170.318C48.3011 170.318 48.7841 170.966 49.017 171.568L50.2216 171.227ZM58.581 171.227C58.1605 169.989 57.2173 169.159 55.4901 169.159C53.6491 169.159 52.2855 170.205 52.2855 171.682C52.2855 172.886 53.0014 173.693 54.6037 174.068L56.0582 174.409C56.9389 174.614 57.3537 175.034 57.3537 175.636C57.3537 176.386 56.5582 177 55.3082 177C54.2116 177 53.5241 176.528 53.2855 175.591L52.0128 175.909C52.3253 177.392 53.5469 178.182 55.331 178.182C57.3594 178.182 58.7401 177.074 58.7401 175.568C58.7401 174.352 57.9787 173.585 56.4219 173.205L55.1264 172.886C54.0923 172.631 53.6264 172.284 53.6264 171.614C53.6264 170.864 54.4219 170.318 55.4901 170.318C56.6605 170.318 57.1435 170.966 57.3764 171.568L58.581 171.227ZM64.304 178.182C66.6676 178.182 68.2585 176.386 68.2585 173.682C68.2585 170.955 66.6676 169.159 64.304 169.159C61.9403 169.159 60.3494 170.955 60.3494 173.682C60.3494 176.386 61.9403 178.182 64.304 178.182ZM64.304 176.977C62.5085 176.977 61.6903 175.432 61.6903 173.682C61.6903 171.932 62.5085 170.364 64.304 170.364C66.0994 170.364 66.9176 171.932 66.9176 173.682C66.9176 175.432 66.0994 176.977 64.304 176.977ZM73.8509 178.182C75.7827 178.182 77.0554 177 77.2827 175.455H75.9418C75.6918 176.409 74.8963 176.977 73.8509 176.977C72.2599 176.977 71.2372 175.659 71.2372 173.636C71.2372 171.659 72.2827 170.364 73.8509 170.364C75.0327 170.364 75.7372 171.091 75.9418 171.886H77.2827C77.0554 170.25 75.669 169.159 73.8281 169.159C71.4645 169.159 69.8963 171.023 69.8963 173.682C69.8963 176.295 71.3963 178.182 73.8509 178.182ZM79.2429 178H80.5838V169.273H79.2429V178ZM79.9247 167.818C80.4474 167.818 80.8793 167.409 80.8793 166.909C80.8793 166.409 80.4474 166 79.9247 166C79.402 166 78.9702 166.409 78.9702 166.909C78.9702 167.409 79.402 167.818 79.9247 167.818ZM85.608 178.205C87.1307 178.205 87.9261 177.386 88.1989 176.818H88.267V178H89.608V172.25C89.608 169.477 87.4943 169.159 86.3807 169.159C85.0625 169.159 83.5625 169.614 82.8807 171.205L84.1534 171.659C84.4489 171.023 85.1477 170.341 86.4261 170.341C87.6591 170.341 88.267 170.994 88.267 172.114V172.159C88.267 172.807 87.608 172.75 86.017 172.955C84.3977 173.165 82.6307 173.523 82.6307 175.523C82.6307 177.227 83.9489 178.205 85.608 178.205ZM85.8125 177C84.7443 177 83.9716 176.523 83.9716 175.591C83.9716 174.568 84.9034 174.25 85.9489 174.114C86.517 174.045 88.0398 173.886 88.267 173.614V174.841C88.267 175.932 87.4034 177 85.8125 177ZM95.8509 169.273H93.9872V167.182H92.6463V169.273H91.3281V170.409H92.6463V175.864C92.6463 177.386 93.8736 178.114 95.0099 178.114C95.5099 178.114 95.8281 178.023 96.0099 177.955L95.7372 176.75C95.6236 176.773 95.4418 176.818 95.1463 176.818C94.5554 176.818 93.9872 176.636 93.9872 175.5V170.409H95.8509V169.273ZM101.433 178.182C103.206 178.182 104.501 177.295 104.911 175.977L103.615 175.614C103.274 176.523 102.484 176.977 101.433 176.977C99.8594 176.977 98.7741 175.96 98.7116 174.091H105.047V173.523C105.047 170.273 103.115 169.159 101.297 169.159C98.9332 169.159 97.3651 171.023 97.3651 173.705C97.3651 176.386 98.9105 178.182 101.433 178.182ZM98.7116 172.932C98.8026 171.574 99.7628 170.364 101.297 170.364C102.751 170.364 103.683 171.455 103.683 172.932H98.7116ZM111.768 178H113.178V173.75H115.723C118.433 173.75 119.655 172.102 119.655 170.045C119.655 167.989 118.433 166.364 115.7 166.364H111.768V178ZM113.178 172.5V167.614H115.655C117.547 167.614 118.268 168.648 118.268 170.045C118.268 171.443 117.547 172.5 115.678 172.5H113.178ZM126.084 178H127.22L127.749 174.773H129.47L129.652 173.636H127.936L128.413 170.727H130.152L130.334 169.591H128.601L129.129 166.364H127.993L127.464 169.591H124.51L125.038 166.364H123.902L123.374 169.591H121.652L121.47 170.727H123.186L122.709 173.636H120.97L120.788 174.773H122.521L121.993 178H123.129L123.658 174.773H126.612L126.084 178ZM123.845 173.636L124.322 170.727H127.277L126.8 173.636H123.845ZM135.905 166.364H134.496L131.587 168.295V169.727L134.428 167.841H134.496V178H135.905V166.364ZM157.331 177.273L162.422 172.182L157.331 167.091L156.456 167.966L158.7 170.205H144.547V171.455H159.956L160.683 172.182L159.956 172.909H144.547V174.159H158.706L156.456 176.409L157.331 177.273ZM173.5 178C177.045 178 179.045 175.795 179.045 172.159C179.045 168.545 177.045 166.364 173.659 166.364H169.909V178H173.5ZM171.318 176.75V167.614H173.568C176.295 167.614 177.682 169.341 177.682 172.159C177.682 175 176.295 176.75 173.409 176.75H171.318ZM183.795 178.205C185.318 178.205 186.114 177.386 186.386 176.818H186.455V178H187.795V172.25C187.795 169.477 185.682 169.159 184.568 169.159C183.25 169.159 181.75 169.614 181.068 171.205L182.341 171.659C182.636 171.023 183.335 170.341 184.614 170.341C185.847 170.341 186.455 170.994 186.455 172.114V172.159C186.455 172.807 185.795 172.75 184.205 172.955C182.585 173.165 180.818 173.523 180.818 175.523C180.818 177.227 182.136 178.205 183.795 178.205ZM184 177C182.932 177 182.159 176.523 182.159 175.591C182.159 174.568 183.091 174.25 184.136 174.114C184.705 174.045 186.227 173.886 186.455 173.614V174.841C186.455 175.932 185.591 177 184 177ZM194.038 169.273H192.175V167.182H190.834V169.273H189.516V170.409H190.834V175.864C190.834 177.386 192.061 178.114 193.197 178.114C193.697 178.114 194.016 178.023 194.197 177.955L193.925 176.75C193.811 176.773 193.629 176.818 193.334 176.818C192.743 176.818 192.175 176.636 192.175 175.5V170.409H194.038V169.273ZM198.624 178.205C200.146 178.205 200.942 177.386 201.214 176.818H201.283V178H202.624V172.25C202.624 169.477 200.51 169.159 199.396 169.159C198.078 169.159 196.578 169.614 195.896 171.205L197.169 171.659C197.464 171.023 198.163 170.341 199.442 170.341C200.675 170.341 201.283 170.994 201.283 172.114V172.159C201.283 172.807 200.624 172.75 199.033 172.955C197.413 173.165 195.646 173.523 195.646 175.523C195.646 177.227 196.964 178.205 198.624 178.205ZM198.828 177C197.76 177 196.987 176.523 196.987 175.591C196.987 174.568 197.919 174.25 198.964 174.114C199.533 174.045 201.055 173.886 201.283 173.614V174.841C201.283 175.932 200.419 177 198.828 177ZM209.571 178H210.912V172.477C210.912 171.295 211.844 170.432 213.116 170.432C213.474 170.432 213.844 170.5 213.935 170.523V169.159C213.781 169.148 213.429 169.136 213.23 169.136C212.185 169.136 211.276 169.727 210.957 170.591H210.866V169.273H209.571V178ZM218.918 178.182C220.69 178.182 221.986 177.295 222.395 175.977L221.099 175.614C220.759 176.523 219.969 176.977 218.918 176.977C217.344 176.977 216.259 175.96 216.196 174.091H222.531V173.523C222.531 170.273 220.599 169.159 218.781 169.159C216.418 169.159 214.849 171.023 214.849 173.705C214.849 176.386 216.395 178.182 218.918 178.182ZM216.196 172.932C216.287 171.574 217.247 170.364 218.781 170.364C220.236 170.364 221.168 171.455 221.168 172.932H216.196ZM230.753 171.227C230.332 169.989 229.389 169.159 227.662 169.159C225.821 169.159 224.457 170.205 224.457 171.682C224.457 172.886 225.173 173.693 226.776 174.068L228.23 174.409C229.111 174.614 229.526 175.034 229.526 175.636C229.526 176.386 228.73 177 227.48 177C226.384 177 225.696 176.528 225.457 175.591L224.185 175.909C224.497 177.392 225.719 178.182 227.503 178.182C229.531 178.182 230.912 177.074 230.912 175.568C230.912 174.352 230.151 173.585 228.594 173.205L227.298 172.886C226.264 172.631 225.798 172.284 225.798 171.614C225.798 170.864 226.594 170.318 227.662 170.318C228.832 170.318 229.315 170.966 229.548 171.568L230.753 171.227ZM236.476 178.182C238.839 178.182 240.43 176.386 240.43 173.682C240.43 170.955 238.839 169.159 236.476 169.159C234.112 169.159 232.521 170.955 232.521 173.682C232.521 176.386 234.112 178.182 236.476 178.182ZM236.476 176.977C234.68 176.977 233.862 175.432 233.862 173.682C233.862 171.932 234.68 170.364 236.476 170.364C238.271 170.364 239.089 171.932 239.089 173.682C239.089 175.432 238.271 176.977 236.476 176.977ZM243.818 166.364H242.477V178H243.818V166.364ZM253.411 169.273H251.956L249.547 176.227H249.456L247.047 169.273H245.592L248.82 178H250.183L253.411 169.273ZM258.527 178.182C260.3 178.182 261.595 177.295 262.004 175.977L260.709 175.614C260.368 176.523 259.578 176.977 258.527 176.977C256.953 176.977 255.868 175.96 255.805 174.091H262.141V173.523C262.141 170.273 260.209 169.159 258.391 169.159C256.027 169.159 254.459 171.023 254.459 173.705C254.459 176.386 256.004 178.182 258.527 178.182ZM255.805 172.932C255.896 171.574 256.857 170.364 258.391 170.364C259.845 170.364 260.777 171.455 260.777 172.932H255.805ZM264.18 178H265.521V172.477C265.521 171.295 266.453 170.432 267.726 170.432C268.084 170.432 268.453 170.5 268.544 170.523V169.159C268.391 169.148 268.038 169.136 267.839 169.136C266.794 169.136 265.885 169.727 265.567 170.591H265.476V169.273H264.18V178Z" fill="black"/>
<path d="M20.8182 74.1761C23.2784 74.1761 24.8864 72.375 24.8864 69.6761C24.8864 66.9602 23.2784 65.1591 20.8182 65.1591C18.358 65.1591 16.75 66.9602 16.75 69.6761C16.75 72.375 18.358 74.1761 20.8182 74.1761ZM20.8239 72.75C19.2159 72.75 18.4659 71.3466 18.4659 69.6705C18.4659 68 19.2159 66.5795 20.8239 66.5795C22.4205 66.5795 23.1705 68 23.1705 69.6705C23.1705 71.3466 22.4205 72.75 20.8239 72.75ZM28.4815 68.8182C28.4815 67.4261 29.3338 66.6307 30.5156 66.6307C31.669 66.6307 32.3679 67.3864 32.3679 68.6534V74H34.0668V68.4489C34.0668 66.2898 32.8793 65.1591 31.0952 65.1591C29.7827 65.1591 28.9247 65.767 28.5213 66.6932H28.4134V65.2727H26.7827V74H28.4815V68.8182ZM44.2557 74.1761C46.3182 74.1761 47.6534 72.9375 47.8409 71.2386H46.1875C45.9716 72.1818 45.2386 72.7386 44.267 72.7386C42.8295 72.7386 41.9034 71.5398 41.9034 69.6364C41.9034 67.767 42.8466 66.5909 44.267 66.5909C45.3466 66.5909 46.0057 67.2727 46.1875 68.0909H47.8409C47.6591 66.3295 46.2216 65.1591 44.2386 65.1591C41.7784 65.1591 40.1875 67.0114 40.1875 69.6761C40.1875 72.3068 41.7216 74.1761 44.2557 74.1761ZM53.3338 74.1761C55.794 74.1761 57.402 72.375 57.402 69.6761C57.402 66.9602 55.794 65.1591 53.3338 65.1591C50.8736 65.1591 49.2656 66.9602 49.2656 69.6761C49.2656 72.375 50.8736 74.1761 53.3338 74.1761ZM53.3395 72.75C51.7315 72.75 50.9815 71.3466 50.9815 69.6705C50.9815 68 51.7315 66.5795 53.3395 66.5795C54.9361 66.5795 55.6861 68 55.6861 69.6705C55.6861 71.3466 54.9361 72.75 53.3395 72.75ZM59.2983 77.2727H60.9972V72.642H61.0994C61.4062 73.1989 62.0312 74.1705 63.6222 74.1705C65.7358 74.1705 67.2699 72.4773 67.2699 69.6534C67.2699 66.8239 65.7131 65.1591 63.6051 65.1591C61.9858 65.1591 61.4006 66.1477 61.0994 66.6875H60.9574V65.2727H59.2983V77.2727ZM60.9631 69.6364C60.9631 67.8125 61.7585 66.6023 63.2415 66.6023C64.7812 66.6023 65.554 67.9034 65.554 69.6364C65.554 71.3864 64.7585 72.7216 63.2415 72.7216C61.7812 72.7216 60.9631 71.4716 60.9631 69.6364ZM69.9347 77.25C71.3381 77.25 72.2301 76.517 72.7301 75.1648L76.3381 65.2898L74.5028 65.2727L72.2926 72.0455H72.2017L69.9915 65.2727H68.1733L71.3665 74.1136L71.1562 74.6932C70.7244 75.8239 70.1165 75.9261 69.1847 75.6705L68.7756 77.0625C68.9801 77.1591 69.4233 77.25 69.9347 77.25Z" fill="black"/>
<path d="M432.707 125.707C433.098 125.317 433.098 124.683 432.707 124.293L426.343 117.929C425.953 117.538 425.319 117.538 424.929 117.929C424.538 118.319 424.538 118.953 424.929 119.343L430.586 125L424.929 130.657C424.538 131.047 424.538 131.681 424.929 132.071C425.319 132.462 425.953 132.462 426.343 132.071L432.707 125.707ZM432 124L186 124L186 126L432 126L432 124Z" fill="#282828"/>
<circle cx="228" cy="125" r="11" fill="white" stroke="#282828" stroke-width="2"/>
<path d="M229.683 119.818H227.928L225.397 121.444V123.134L227.779 121.613H227.838V130H229.683V119.818Z" fill="#282828"/>
<circle cx="314" cy="204" r="11" fill="white" stroke="#282828" stroke-width="2"/>
<path d="M310.557 209H317.537V207.459H313.103V207.389L314.858 205.604C316.836 203.705 317.383 202.781 317.383 201.632C317.383 199.927 315.996 198.679 313.948 198.679C311.929 198.679 310.498 199.932 310.498 201.866H312.252C312.252 200.827 312.909 200.175 313.923 200.175C314.892 200.175 315.613 200.767 315.613 201.727C315.613 202.577 315.096 203.183 314.092 204.202L310.557 207.668V209Z" fill="#282828"/>
</svg>
