<svg width="800" height="272" fill="none" xmlns="http://www.w3.org/2000/svg"><rect x="448" y="184" width="352" height="88" rx="3" fill="#FFE4EC"/><path d="M467.795 250.205c1.523 0 2.319-.819 2.591-1.387h.069V250h1.34v-5.75c0-2.773-2.113-3.091-3.227-3.091-1.318 0-2.818.455-3.5 2.046l1.273.454c.295-.636.994-1.318 2.273-1.318 1.233 0 1.841.653 1.841 1.773v.045c0 .648-.66.591-2.25.796-1.62.21-3.387.568-3.387 2.568 0 1.704 1.318 2.682 2.977 2.682zM468 249c-1.068 0-1.841-.477-1.841-1.409 0-1.023.932-1.341 1.977-1.477.569-.069 2.091-.228 2.319-.5v1.227c0 1.091-.864 2.159-2.455 2.159zm6.243 4.273h1.341v-4.614h.113c.296.477.864 1.523 2.546 1.523 2.182 0 3.704-1.75 3.704-4.523 0-2.75-1.522-4.5-3.727-4.5-1.704 0-2.227 1.046-2.523 1.5h-.159v-1.386h-1.295v12zm1.318-7.637c0-1.954.864-3.272 2.5-3.272 1.705 0 2.546 1.431 2.546 3.272 0 1.864-.864 3.341-2.546 3.341-1.614 0-2.5-1.363-2.5-3.341zm8.432 7.637h1.341v-4.614h.113c.296.477.864 1.523 2.546 1.523 2.182 0 3.704-1.75 3.704-4.523 0-2.75-1.522-4.5-3.727-4.5-1.704 0-2.227 1.046-2.523 1.5h-.159v-1.386h-1.295v12zm1.318-7.637c0-1.954.864-3.272 2.5-3.272 1.705 0 2.546 1.431 2.546 3.272 0 1.864-.864 3.341-2.546 3.341-1.614 0-2.5-1.363-2.5-3.341zm9.773-7.272h-1.341V250h1.341v-11.636zM497.54 250h1.341v-8.727h-1.341V250zm.682-10.182c.522 0 .954-.409.954-.909s-.432-.909-.954-.909c-.523 0-.955.409-.955.909s.432.909.955.909zm6.66 10.364c1.932 0 3.205-1.182 3.432-2.727h-1.341c-.25.954-1.045 1.522-2.091 1.522-1.591 0-2.614-1.318-2.614-3.341 0-1.977 1.046-3.272 2.614-3.272 1.182 0 1.886.727 2.091 1.522h1.341c-.227-1.636-1.614-2.727-3.455-2.727-2.363 0-3.931 1.864-3.931 4.523 0 2.613 1.5 4.5 3.954 4.5zm7.96.023c1.523 0 2.319-.819 2.591-1.387h.068V250h1.341v-5.75c0-2.773-2.113-3.091-3.227-3.091-1.318 0-2.818.455-3.5 2.046l1.273.454c.295-.636.994-1.318 2.273-1.318 1.232 0 1.84.653 1.84 1.773v.045c0 .648-.659.591-2.25.796-1.619.21-3.386.568-3.386 2.568 0 1.704 1.318 2.682 2.977 2.682zm.205-1.205c-1.068 0-1.841-.477-1.841-1.409 0-1.023.932-1.341 1.977-1.477.568-.069 2.091-.228 2.318-.5v1.227c0 1.091-.863 2.159-2.454 2.159zm10.038-7.727h-1.863v-2.091h-1.341v2.091h-1.319v1.136h1.319v5.455c0 1.522 1.227 2.25 2.363 2.25.5 0 .818-.091 1-.159l-.272-1.205c-.114.023-.296.068-.591.068-.591 0-1.159-.182-1.159-1.318v-5.091h1.863v-1.136zm2.017 8.727h1.341v-8.727h-1.341V250zm.682-10.182c.523 0 .955-.409.955-.909s-.432-.909-.955-.909c-.523 0-.954.409-.954.909s.431.909.954.909zm6.661 10.364c2.363 0 3.954-1.796 3.954-4.5 0-2.727-1.591-4.523-3.954-4.523-2.364 0-3.955 1.796-3.955 4.523 0 2.704 1.591 4.5 3.955 4.5zm0-1.205c-1.796 0-2.614-1.545-2.614-3.295s.818-3.318 2.614-3.318c1.795 0 2.613 1.568 2.613 3.318s-.818 3.295-2.613 3.295zm7.342-4.227c0-1.523.943-2.386 2.227-2.386 1.245 0 2 .812 2 2.181V250h1.341v-5.545c0-2.228-1.187-3.296-2.954-3.296-1.319 0-2.137.591-2.546 1.477h-.114v-1.363h-1.295V250h1.341v-5.25zm12.132-6.932h-1.227l-3.75 13.932h1.227l3.75-13.932zm2.59 3.455h-1.546l2.773 4.363-2.773 4.364h1.546l2.09-3.386L558.69 250h1.546l-2.818-4.364 2.818-4.363h-1.546l-2.091 3.568-2.09-3.568zm12.281 3.113h-5.091v1.25h5.091v-1.25zm2.359 8.887h1.341v-4.614h.114c.295.477.863 1.523 2.545 1.523 2.182 0 3.705-1.75 3.705-4.523 0-2.75-1.523-4.5-3.728-4.5-1.704 0-2.227 1.046-2.522 1.5h-.159v-1.386h-1.296v12zm1.318-7.637c0-1.954.864-3.272 2.5-3.272 1.705 0 2.546 1.431 2.546 3.272 0 1.864-.864 3.341-2.546 3.341-1.613 0-2.5-1.363-2.5-3.341zm8.432 4.364h1.341v-5.523c0-1.182.932-2.045 2.205-2.045.358 0 .727.068.818.091v-1.364a13.282 13.282 0 00-.705-.023c-1.045 0-1.954.591-2.272 1.455h-.091v-1.318h-1.296V250zm9.233.182c2.364 0 3.955-1.796 3.955-4.5 0-2.727-1.591-4.523-3.955-4.523s-3.954 1.796-3.954 4.523c0 2.704 1.59 4.5 3.954 4.5zm0-1.205c-1.795 0-2.614-1.545-2.614-3.295s.819-3.318 2.614-3.318c1.796 0 2.614 1.568 2.614 3.318s-.818 3.295-2.614 3.295zm6.002 1.023h1.34v-5.455c0-1.278.932-2.181 1.978-2.181 1.017 0 1.727.664 1.727 1.659V250h1.364v-5.682c0-1.125.704-1.954 1.931-1.954.955 0 1.773.505 1.773 1.795V250h1.341v-5.841c0-2.051-1.102-3-2.659-3-1.25 0-2.165.574-2.614 1.477h-.091c-.431-.931-1.193-1.477-2.34-1.477-1.137 0-1.978.546-2.341 1.477h-.114v-1.363h-1.295V250zm13.906 0h1.341v-8.727h-1.341V250zm.682-10.182c.522 0 .954-.409.954-.909s-.432-.909-.954-.909c-.523 0-.955.409-.955.909s.432.909.955.909zm9.296 3.409c-.42-1.238-1.363-2.068-3.09-2.068-1.841 0-3.205 1.046-3.205 2.523 0 1.204.716 2.011 2.318 2.386l1.455.341c.88.205 1.295.625 1.295 1.227 0 .75-.795 1.364-2.045 1.364-1.097 0-1.784-.472-2.023-1.409l-1.273.318c.313 1.483 1.534 2.273 3.318 2.273 2.029 0 3.41-1.108 3.41-2.614 0-1.216-.762-1.983-2.319-2.363l-1.295-.319c-1.034-.255-1.5-.602-1.5-1.272 0-.75.795-1.296 1.864-1.296 1.17 0 1.653.648 1.886 1.25l1.204-.341zm5.837 6.955c1.773 0 3.068-.887 3.477-2.205l-1.295-.363c-.341.909-1.131 1.363-2.182 1.363-1.574 0-2.659-1.017-2.721-2.886h6.335v-.568c0-3.25-1.932-4.364-3.75-4.364-2.364 0-3.932 1.864-3.932 4.546 0 2.681 1.545 4.477 4.068 4.477zm-2.721-5.25c.09-1.358 1.051-2.568 2.585-2.568 1.454 0 2.386 1.091 2.386 2.568h-4.971zM647.565 250l5.091-5.091-5.091-5.091-.875.875 2.245 2.239h-14.154v1.25h15.409l.728.727-.728.727h-15.409v1.25h14.159l-2.25 2.25.875.864zm12.578 0h1.41v-4.25h2.545c2.71 0 3.932-1.648 3.932-3.705 0-2.056-1.222-3.681-3.955-3.681h-3.932V250zm1.41-5.5v-4.886h2.477c1.892 0 2.613 1.034 2.613 2.431 0 1.398-.721 2.455-2.59 2.455h-2.5zm12.906 5.5h1.136l.529-3.227h1.721l.182-1.137h-1.716l.477-2.909h1.739l.182-1.136h-1.733l.528-3.227h-1.136l-.529 3.227h-2.954l.528-3.227h-1.136l-.528 3.227h-1.722l-.182 1.136h1.716l-.477 2.909h-1.739l-.182 1.137h1.733l-.528 3.227h1.136l.529-3.227h2.954l-.528 3.227zm-2.239-4.364l.477-2.909h2.955l-.477 2.909h-2.955zm12.06-7.272h-1.409l-2.909 1.931v1.432l2.841-1.886h.068V250h1.409v-11.636zM475.108 210.29c-.358-2.585-2.347-4.085-4.926-4.085-3.04 0-5.33 2.215-5.33 5.977 0 3.756 2.262 5.977 5.33 5.977 2.767 0 4.602-1.79 4.926-4.011l-2.125-.012c-.267 1.364-1.381 2.131-2.773 2.131-1.886 0-3.238-1.415-3.238-4.085 0-2.625 1.34-4.085 3.244-4.085 1.415 0 2.523.801 2.767 2.193h2.125zm3.896-3.926h-2.057V218h2.057v-11.636zM481.119 218h2.057v-8.727h-2.057V218zm1.034-9.966c.654 0 1.188-.5 1.188-1.114 0-.619-.534-1.119-1.188-1.119-.659 0-1.193.5-1.193 1.119 0 .614.534 1.114 1.193 1.114zm3.138 13.239h2.057v-4.648h.085c.324.636 1 1.528 2.5 1.528 2.057 0 3.597-1.63 3.597-4.505 0-2.909-1.585-4.489-3.602-4.489-1.54 0-2.182.926-2.495 1.557h-.119v-1.443h-2.023v12zm2.017-7.637c0-1.693.728-2.789 2.051-2.789 1.37 0 2.074 1.164 2.074 2.789 0 1.637-.716 2.83-2.074 2.83-1.312 0-2.051-1.136-2.051-2.83zm8.074 4.364h2.023v-1.375h.119c.324.636 1 1.528 2.5 1.528 2.057 0 3.597-1.63 3.597-4.505 0-2.909-1.585-4.489-3.603-4.489-1.539 0-2.181.926-2.494 1.557h-.085v-4.352h-2.057V218zm2.017-4.364c0-1.693.727-2.789 2.051-2.789 1.37 0 2.074 1.164 2.074 2.789 0 1.637-.716 2.83-2.074 2.83-1.312 0-2.051-1.136-2.051-2.83zm11.777 4.534c2.557 0 4.182-1.801 4.182-4.5 0-2.704-1.625-4.511-4.182-4.511-2.557 0-4.182 1.807-4.182 4.511 0 2.699 1.625 4.5 4.182 4.5zm.012-1.647c-1.415 0-2.108-1.262-2.108-2.858 0-1.597.693-2.875 2.108-2.875 1.392 0 2.085 1.278 2.085 2.875 0 1.596-.693 2.858-2.085 2.858zm8.427 1.653c1.369 0 2.188-.642 2.563-1.375h.068V218h1.977v-5.841c0-2.307-1.881-3-3.545-3-1.836 0-3.245.818-3.699 2.409l1.92.273c.205-.597.784-1.108 1.79-1.108.954 0 1.477.489 1.477 1.347v.034c0 .591-.619.619-2.159.784-1.693.182-3.312.687-3.312 2.653 0 1.716 1.255 2.625 2.92 2.625zm.534-1.511c-.858 0-1.471-.392-1.471-1.148 0-.79.687-1.119 1.608-1.25.539-.074 1.619-.21 1.886-.426v1.028c0 .972-.784 1.796-2.023 1.796zm6.142 1.335h2.057v-5.131c0-1.108.835-1.892 1.966-1.892.347 0 .778.063.954.12v-1.892a4.81 4.81 0 00-.738-.057c-1 0-1.835.568-2.154 1.579h-.09v-1.454h-1.995V218zm9.223.153c1.5 0 2.176-.892 2.5-1.528h.125V218h2.023v-11.636h-2.063v4.352h-.085c-.312-.631-.954-1.557-2.494-1.557-2.017 0-3.602 1.58-3.602 4.489 0 2.875 1.539 4.505 3.596 4.505zm.574-1.687c-1.358 0-2.074-1.193-2.074-2.83 0-1.625.705-2.789 2.074-2.789 1.324 0 2.051 1.096 2.051 2.789 0 1.694-.738 2.83-2.051 2.83z" fill="#000"/><rect x="448" y="64" width="352" height="88" rx="3" fill="#FFF2D9"/><path d="M471.472 89.563h2.028c-.04-1.966-1.716-3.359-4.193-3.359-2.443 0-4.279 1.376-4.273 3.432 0 1.67 1.188 2.631 3.102 3.125l1.324.341c1.256.319 2.085.71 2.091 1.614-.006.994-.949 1.659-2.324 1.659-1.318 0-2.341-.59-2.426-1.813h-2.074c.085 2.313 1.807 3.614 4.517 3.614 2.79 0 4.409-1.392 4.415-3.443-.006-2.017-1.67-2.938-3.42-3.352l-1.091-.273c-.955-.227-1.989-.63-1.978-1.602.006-.875.79-1.517 2.108-1.517 1.256 0 2.086.585 2.194 1.573zm6.032 3.323c0-1.261.784-1.988 1.887-1.988 1.079 0 1.716.687 1.716 1.863V98h2.056v-5.557c0-2.108-1.193-3.284-3.005-3.284-1.341 0-2.194.608-2.597 1.597h-.102v-4.392h-2.012V98h2.057v-5.114zm10.267 5.29c1.37 0 2.188-.642 2.563-1.375h.068V98h1.977v-5.84c0-2.308-1.88-3-3.545-3-1.835 0-3.245.817-3.699 2.408l1.92.273c.205-.597.784-1.108 1.79-1.108.955 0 1.477.489 1.477 1.346v.035c0 .59-.619.619-2.159.784-1.693.181-3.312.687-3.312 2.653 0 1.716 1.256 2.625 2.92 2.625zm.534-1.511c-.858 0-1.471-.392-1.471-1.148 0-.79.687-1.12 1.608-1.25.54-.074 1.619-.21 1.886-.426v1.028c0 .972-.784 1.796-2.023 1.796zM494.447 98h2.057v-5.13c0-1.109.835-1.893 1.966-1.893.347 0 .779.063.955.12v-1.892a4.964 4.964 0 00-.739-.057c-1 0-1.835.568-2.153 1.58h-.091v-1.455h-1.995V98zm9.848.17c2.035 0 3.432-.994 3.796-2.51l-1.921-.217c-.278.739-.96 1.125-1.846 1.125-1.33 0-2.21-.875-2.227-2.37h6.079v-.63c0-3.062-1.841-4.409-3.988-4.409-2.5 0-4.131 1.835-4.131 4.528 0 2.74 1.608 4.484 4.238 4.484zm-2.193-5.358c.063-1.113.887-2.05 2.114-2.05 1.182 0 1.977.863 1.989 2.05h-4.103zm11.053 5.341c1.5 0 2.176-.892 2.5-1.528h.125V98h2.023V86.364h-2.063v4.352h-.085c-.313-.63-.955-1.557-2.494-1.557-2.018 0-3.603 1.58-3.603 4.489 0 2.875 1.54 4.505 3.597 4.505zm.574-1.687c-1.358 0-2.074-1.193-2.074-2.83 0-1.625.704-2.79 2.074-2.79 1.324 0 2.051 1.097 2.051 2.79 0 1.694-.739 2.83-2.051 2.83zM526.503 98h2.079l2.336-8.165h.091L533.338 98h2.08l3.284-11.636h-2.267l-2.097 8.556h-.102l-2.245-8.556h-2.062l-2.239 8.55h-.108l-2.096-8.55h-2.267L526.503 98zm16.486.17c2.556 0 4.181-1.8 4.181-4.5 0-2.704-1.625-4.51-4.181-4.51-2.557 0-4.182 1.806-4.182 4.51 0 2.7 1.625 4.5 4.182 4.5zm.011-1.647c-1.415 0-2.108-1.262-2.108-2.858 0-1.597.693-2.875 2.108-2.875 1.392 0 2.085 1.278 2.085 2.875 0 1.596-.693 2.858-2.085 2.858zM548.916 98h2.057v-5.13c0-1.109.835-1.893 1.966-1.893.347 0 .778.063.954.12v-1.892a4.94 4.94 0 00-.738-.057c-1 0-1.835.568-2.154 1.58h-.09v-1.455h-1.995V98zm6.344 0h2.057v-2.932l.75-.801 2.67 3.733h2.46l-3.579-4.96 3.381-3.767h-2.404l-3.136 3.505h-.142v-6.414h-2.057V98zm12.614.17c2.034 0 3.431-.994 3.795-2.51l-1.92-.217c-.279.739-.961 1.125-1.847 1.125-1.33 0-2.21-.875-2.227-2.37h6.079v-.63c0-3.062-1.841-4.409-3.988-4.409-2.5 0-4.131 1.835-4.131 4.528 0 2.74 1.608 4.484 4.239 4.484zm-2.194-5.358c.063-1.113.887-2.05 2.114-2.05 1.182 0 1.977.863 1.989 2.05h-4.103zM573.494 98h2.057v-5.13c0-1.109.835-1.893 1.966-1.893.347 0 .778.063.955.12v-1.892a4.964 4.964 0 00-.739-.057c-1 0-1.835.568-2.153 1.58h-.091v-1.455h-1.995V98zm-107.608 32l1.171-3.295h4.704l1.171 3.295h1.477l-4.273-11.636h-1.454L464.409 130h1.477zm1.614-4.545l1.864-5.25h.091l1.863 5.25H467.5zm14.722-2.228c-.421-1.238-1.364-2.068-3.091-2.068-1.841 0-3.205 1.046-3.205 2.523 0 1.204.716 2.011 2.318 2.386l1.455.341c.881.205 1.295.625 1.295 1.227 0 .75-.795 1.364-2.045 1.364-1.097 0-1.784-.472-2.023-1.409l-1.273.318c.313 1.483 1.535 2.273 3.319 2.273 2.028 0 3.409-1.108 3.409-2.614 0-1.216-.762-1.983-2.319-2.363l-1.295-.319c-1.034-.255-1.5-.602-1.5-1.272 0-.75.795-1.296 1.864-1.296 1.17 0 1.653.648 1.886 1.25l1.205-.341zm8.359 0c-.42-1.238-1.364-2.068-3.091-2.068-1.841 0-3.204 1.046-3.204 2.523 0 1.204.715 2.011 2.318 2.386l1.454.341c.881.205 1.296.625 1.296 1.227 0 .75-.796 1.364-2.046 1.364-1.096 0-1.784-.472-2.022-1.409l-1.273.318c.312 1.483 1.534 2.273 3.318 2.273 2.028 0 3.409-1.108 3.409-2.614 0-1.216-.761-1.983-2.318-2.363l-1.296-.319c-1.034-.255-1.5-.602-1.5-1.272 0-.75.796-1.296 1.864-1.296 1.171 0 1.653.648 1.886 1.25l1.205-.341zm5.723 6.955c2.364 0 3.955-1.796 3.955-4.5 0-2.727-1.591-4.523-3.955-4.523s-3.955 1.796-3.955 4.523c0 2.704 1.591 4.5 3.955 4.5zm0-1.205c-1.795 0-2.614-1.545-2.614-3.295s.819-3.318 2.614-3.318 2.614 1.568 2.614 3.318-.819 3.295-2.614 3.295zm9.547 1.205c1.932 0 3.204-1.182 3.432-2.727h-1.341c-.25.954-1.046 1.522-2.091 1.522-1.591 0-2.614-1.318-2.614-3.341 0-1.977 1.046-3.272 2.614-3.272 1.182 0 1.886.727 2.091 1.522h1.341c-.228-1.636-1.614-2.727-3.455-2.727-2.364 0-3.932 1.864-3.932 4.523 0 2.613 1.5 4.5 3.955 4.5zm5.392-.182h1.341v-8.727h-1.341V130zm.682-10.182c.522 0 .954-.409.954-.909s-.432-.909-.954-.909c-.523 0-.955.409-.955.909s.432.909.955.909zm5.683 10.387c1.523 0 2.318-.819 2.591-1.387h.068V130h1.341v-5.75c0-2.773-2.114-3.091-3.227-3.091-1.319 0-2.819.455-3.5 2.046l1.272.454c.296-.636.995-1.318 2.273-1.318 1.233 0 1.841.653 1.841 1.773v.045c0 .648-.659.591-2.25.796-1.619.21-3.386.568-3.386 2.568 0 1.704 1.318 2.682 2.977 2.682zm.204-1.205c-1.068 0-1.84-.477-1.84-1.409 0-1.023.931-1.341 1.977-1.477.568-.069 2.091-.228 2.318-.5v1.227c0 1.091-.864 2.159-2.455 2.159zm10.039-7.727h-1.864v-2.091h-1.341v2.091h-1.318v1.136h1.318v5.455c0 1.522 1.228 2.25 2.364 2.25.5 0 .818-.091 1-.159l-.273-1.205c-.113.023-.295.068-.591.068-.591 0-1.159-.182-1.159-1.318v-5.091h1.864v-1.136zm5.582 8.909c1.773 0 3.068-.887 3.478-2.205l-1.296-.363c-.341.909-1.131 1.363-2.182 1.363-1.574 0-2.659-1.017-2.721-2.886h6.335v-.568c0-3.25-1.932-4.364-3.75-4.364-2.364 0-3.932 1.864-3.932 4.546 0 2.681 1.546 4.477 4.068 4.477zm-2.721-5.25c.091-1.358 1.051-2.568 2.585-2.568 1.454 0 2.386 1.091 2.386 2.568h-4.971zM543.768 130h1.41v-4.25h2.545c2.71 0 3.932-1.648 3.932-3.705 0-2.056-1.222-3.681-3.955-3.681h-3.932V130zm1.41-5.5v-4.886h2.477c1.892 0 2.613 1.034 2.613 2.431 0 1.398-.721 2.455-2.59 2.455h-2.5zm12.906 5.5h1.136l.529-3.227h1.721l.182-1.137h-1.716l.477-2.909h1.739l.182-1.136h-1.733l.528-3.227h-1.136l-.529 3.227h-2.954l.528-3.227h-1.136l-.528 3.227h-1.722l-.182 1.136h1.716l-.477 2.909h-1.739l-.182 1.137h1.733l-.528 3.227h1.136l.529-3.227h2.954l-.528 3.227zm-2.239-4.364l.477-2.909h2.955l-.477 2.909h-2.955zm12.06-7.272h-1.409l-2.909 1.931v1.432l2.841-1.886h.068V130h1.409v-11.636zm21.426 10.909l5.091-5.091-5.091-5.091-.875.875 2.244 2.239h-14.153v1.25h15.409l.727.727-.727.727h-15.409v1.25h14.159l-2.25 2.25.875.864zM611.273 122c-.432-2.386-2.341-3.795-4.682-3.795-2.977 0-5.136 2.295-5.136 5.977 0 3.682 2.159 5.977 5.136 5.977 2.341 0 4.25-1.409 4.682-3.795h-1.409c-.341 1.613-1.728 2.477-3.273 2.477-2.114 0-3.773-1.636-3.773-4.659 0-3.023 1.659-4.659 3.773-4.659 1.545 0 2.932.863 3.273 2.477h1.409zm5.64 8.182c2.364 0 3.955-1.796 3.955-4.5 0-2.727-1.591-4.523-3.955-4.523-2.363 0-3.954 1.796-3.954 4.523 0 2.704 1.591 4.5 3.954 4.5zm0-1.205c-1.795 0-2.613-1.545-2.613-3.295s.818-3.318 2.613-3.318c1.796 0 2.614 1.568 2.614 3.318s-.818 3.295-2.614 3.295zm7.343-4.227c0-1.523.943-2.386 2.227-2.386 1.244 0 2 .812 2 2.181V130h1.341v-5.545c0-2.228-1.188-3.296-2.955-3.296-1.318 0-2.136.591-2.545 1.477h-.114v-1.363h-1.295V130h1.341v-5.25zm9.359 0c0-1.523.943-2.386 2.227-2.386 1.245 0 2 .812 2 2.181V130h1.341v-5.545c0-2.228-1.187-3.296-2.954-3.296-1.318 0-2.137.591-2.546 1.477h-.113v-1.363h-1.296V130h1.341v-5.25zm12.359 5.25h1.137l.528-3.227h1.722l.182-1.137h-1.716l.477-2.909h1.739l.181-1.136h-1.733l.529-3.227h-1.136l-.529 3.227h-2.954l.528-3.227h-1.136l-.529 3.227h-1.721l-.182 1.136h1.716l-.478 2.909h-1.738l-.182 1.137h1.733l-.528 3.227h1.136l.528-3.227h2.955l-.529 3.227zm-2.238-4.364l.477-2.909h2.955l-.478 2.909h-2.954zm8.65 4.364l1.171-3.295h4.704l1.171 3.295h1.477l-4.273-11.636h-1.454L650.909 130h1.477zm1.614-4.545l1.864-5.25h.091l1.863 5.25H654z" fill="#000"/><rect width="352" height="208" rx="3" fill="#DAF5E8"/><rect x="12" y="56" width="69" height="26" rx="3" fill="#93EDB2"/><path d="M19.597 34h2.08l2.334-8.165h.091L26.432 34h2.08l3.284-11.636h-2.268l-2.096 8.556h-.102l-2.245-8.556h-2.062l-2.239 8.55h-.108l-2.096-8.55h-2.267L19.596 34zm16.542.17c2.034 0 3.432-.994 3.796-2.51l-1.92-.217c-.28.739-.961 1.125-1.847 1.125-1.33 0-2.21-.875-2.228-2.37h6.08v-.63c0-3.062-1.841-4.409-3.989-4.409-2.5 0-4.13 1.835-4.13 4.529 0 2.738 1.607 4.482 4.238 4.482zm-2.193-5.358c.063-1.113.886-2.05 2.114-2.05 1.181 0 1.977.863 1.988 2.05h-4.102zM41.851 34h2.023v-1.375h.119c.324.636 1 1.528 2.5 1.528 2.057 0 3.596-1.63 3.596-4.505 0-2.91-1.585-4.489-3.602-4.489-1.54 0-2.182.926-2.494 1.557h-.085v-4.352H41.85V34zm2.017-4.364c0-1.693.727-2.79 2.051-2.79 1.37 0 2.074 1.165 2.074 2.79 0 1.637-.716 2.83-2.074 2.83-1.313 0-2.051-1.137-2.051-2.83zm11.939 7.637h2.057v-4.648h.085c.324.636 1 1.528 2.5 1.528 2.057 0 3.597-1.63 3.597-4.505 0-2.91-1.586-4.489-3.603-4.489-1.54 0-2.182.926-2.494 1.557h-.12v-1.443h-2.022v12zm2.017-7.637c0-1.693.727-2.79 2.051-2.79 1.37 0 2.074 1.165 2.074 2.79 0 1.637-.716 2.83-2.074 2.83-1.313 0-2.051-1.137-2.051-2.83zm10.494 4.54c1.37 0 2.188-.642 2.563-1.375h.068V34h1.977v-5.84c0-2.308-1.88-3-3.545-3-1.835 0-3.245.817-3.7 2.408l1.921.273c.205-.597.784-1.108 1.79-1.108.955 0 1.477.489 1.477 1.346v.035c0 .59-.619.619-2.159.784-1.693.181-3.312.687-3.312 2.653 0 1.716 1.255 2.625 2.92 2.625zm.534-1.511c-.858 0-1.471-.392-1.471-1.148 0-.79.687-1.12 1.608-1.25.54-.074 1.619-.21 1.886-.426v1.028c0 .972-.784 1.796-2.023 1.796zm9.938 4.755c2.358 0 4.096-1.08 4.096-3.278v-8.87h-2.028v1.444h-.114c-.312-.63-.966-1.557-2.505-1.557-2.017 0-3.603 1.58-3.603 4.449 0 2.847 1.586 4.267 3.597 4.267 1.494 0 2.193-.801 2.511-1.443h.103v1.653c0 1.25-.853 1.779-2.023 1.779-1.239 0-1.784-.586-2.034-1.063l-1.853.449c.376 1.188 1.631 2.17 3.853 2.17zm.017-5.159c-1.358 0-2.074-1.057-2.074-2.664 0-1.586.704-2.75 2.074-2.75 1.324 0 2.051 1.096 2.051 2.75 0 1.664-.739 2.664-2.051 2.664zm10.051 1.91c2.034 0 3.432-.995 3.795-2.512l-1.92-.216c-.279.739-.96 1.125-1.847 1.125-1.33 0-2.21-.875-2.227-2.37h6.08v-.63c0-3.062-1.841-4.409-3.989-4.409-2.5 0-4.13 1.835-4.13 4.529 0 2.738 1.607 4.482 4.238 4.482zm-2.193-5.358c.062-1.114.886-2.052 2.113-2.052 1.182 0 1.978.864 1.989 2.052h-4.102zM269.96 26c-.432-2.386-2.341-3.796-4.682-3.796-2.977 0-5.136 2.296-5.136 5.978s2.159 5.977 5.136 5.977c2.341 0 4.25-1.409 4.682-3.795h-1.409c-.341 1.613-1.727 2.477-3.273 2.477-2.113 0-3.772-1.637-3.772-4.66 0-3.022 1.659-4.658 3.772-4.658 1.546 0 2.932.863 3.273 2.477h1.409zm5.641 8.182c2.363 0 3.954-1.796 3.954-4.5 0-2.727-1.591-4.523-3.954-4.523-2.364 0-3.955 1.796-3.955 4.523 0 2.704 1.591 4.5 3.955 4.5zm0-1.205c-1.796 0-2.614-1.545-2.614-3.295s.818-3.318 2.614-3.318c1.795 0 2.613 1.568 2.613 3.318s-.818 3.295-2.613 3.295zm7.342-4.227c0-1.523.943-2.386 2.227-2.386 1.245 0 2 .812 2 2.181V34h1.341v-5.546c0-2.227-1.187-3.295-2.954-3.295-1.318 0-2.137.591-2.546 1.477h-.113v-1.363h-1.296V34h1.341v-5.25zm9.36 0c0-1.523.943-2.386 2.227-2.386 1.244 0 2 .812 2 2.181V34h1.341v-5.546c0-2.227-1.188-3.295-2.955-3.295-1.318 0-2.136.591-2.545 1.477h-.114v-1.363h-1.295V34h1.341v-5.25zM304.662 34h1.136l.529-3.227h1.721l.182-1.137h-1.716l.477-2.909h1.739l.182-1.136h-1.733l.528-3.227h-1.136l-.528 3.227h-2.955l.528-3.227h-1.136l-.528 3.227h-1.722l-.182 1.136h1.716l-.477 2.91h-1.739l-.182 1.136h1.733L300.571 34h1.136l.529-3.227h2.954L304.662 34zm-2.239-4.364l.478-2.909h2.954l-.477 2.91h-2.955zM311.074 34l1.17-3.296h4.705l1.17 3.296h1.478l-4.273-11.636h-1.455L309.597 34h1.477zm1.614-4.546l1.863-5.25h.091l1.864 5.25h-3.818z" fill="#000"/><path d="M432.707 245.707a.999.999 0 000-1.414l-6.364-6.364a.999.999 0 10-1.414 1.414l5.657 5.657-5.657 5.657a.999.999 0 101.414 1.414l6.364-6.364zM432 244c-52.432 0-92.085-23.841-130.596-47.849C262.957 172.184 225.586 148 178 148v2c46.914 0 83.793 23.816 122.346 47.849C338.835 221.842 378.932 246 432 246v-2z" fill="#282828"/><path d="M238 163h26v19h-42l16-19z" fill="#DAF5E8"/><path d="M33.886 106l1.17-3.295h4.705l1.17 3.295h1.478l-4.273-11.636h-1.454L32.409 106h1.477zm1.614-4.545l1.864-5.25h.09l1.864 5.25H35.5zm9.88-7.091h-1.34V106h1.34V94.364zm3.798 0h-1.341V106h1.34V94.364zm6.001 11.818c2.364 0 3.954-1.796 3.954-4.5 0-2.728-1.59-4.523-3.954-4.523s-3.955 1.795-3.955 4.523c0 2.704 1.591 4.5 3.955 4.5zm0-1.205c-1.796 0-2.614-1.545-2.614-3.295s.819-3.318 2.614-3.318 2.614 1.568 2.614 3.318-.819 3.295-2.614 3.295zm9.547 1.205c1.932 0 3.204-1.182 3.432-2.727h-1.341c-.25.954-1.046 1.522-2.091 1.522-1.591 0-2.614-1.318-2.614-3.341 0-1.977 1.046-3.272 2.614-3.272 1.182 0 1.886.727 2.09 1.522h1.342c-.228-1.636-1.614-2.727-3.455-2.727-2.364 0-3.932 1.864-3.932 4.523 0 2.613 1.5 4.5 3.955 4.5zm7.96.023c1.523 0 2.318-.819 2.591-1.387h.068V106h1.341v-5.75c0-2.773-2.114-3.09-3.227-3.09-1.318 0-2.818.454-3.5 2.044l1.272.455c.296-.636.995-1.318 2.273-1.318 1.233 0 1.841.653 1.841 1.773v.045c0 .648-.659.591-2.25.796-1.62.21-3.386.568-3.386 2.568 0 1.704 1.318 2.682 2.977 2.682zm.205-1.205c-1.069 0-1.841-.477-1.841-1.409 0-1.023.931-1.341 1.977-1.477.568-.069 2.09-.228 2.318-.5v1.227c0 1.091-.864 2.159-2.454 2.159zm10.038-7.727h-1.864v-2.091h-1.34v2.09h-1.319v1.137h1.318v5.455c0 1.522 1.228 2.25 2.364 2.25.5 0 .818-.091 1-.159l-.273-1.205c-.113.023-.295.068-.59.068-.591 0-1.16-.182-1.16-1.318v-5.09h1.864v-1.137zm5.582 8.909c1.773 0 3.069-.887 3.478-2.205l-1.296-.363c-.34.909-1.13 1.363-2.182 1.363-1.573 0-2.659-1.017-2.721-2.886h6.335v-.568c0-3.25-1.932-4.364-3.75-4.364-2.364 0-3.932 1.864-3.932 4.546 0 2.681 1.546 4.477 4.068 4.477zm-2.721-5.25c.09-1.358 1.05-2.568 2.585-2.568 1.454 0 2.386 1.09 2.386 2.568H85.79zM98.847 106h1.409v-4.25h2.545c2.71 0 3.932-1.648 3.932-3.704 0-2.057-1.222-3.682-3.955-3.682h-3.931V106zm1.409-5.5v-4.886h2.477c1.892 0 2.614 1.034 2.614 2.431 0 1.398-.722 2.455-2.591 2.455h-2.5zm8.565 5.5h1.341v-5.523c0-1.181.932-2.045 2.204-2.045.358 0 .728.068.819.09V97.16a12.887 12.887 0 00-.705-.023c-1.045 0-1.954.591-2.273 1.455h-.091v-1.318h-1.295V106zm9.233.182c2.364 0 3.955-1.796 3.955-4.5 0-2.728-1.591-4.523-3.955-4.523s-3.955 1.795-3.955 4.523c0 2.704 1.591 4.5 3.955 4.5zm0-1.205c-1.795 0-2.614-1.545-2.614-3.295s.819-3.318 2.614-3.318 2.614 1.568 2.614 3.318-.819 3.295-2.614 3.295zm6.001 1.023h1.341v-5.455c0-1.278.932-2.181 1.978-2.181 1.017 0 1.727.664 1.727 1.659V106h1.363v-5.682c0-1.125.705-1.954 1.932-1.954.955 0 1.773.505 1.773 1.795V106h1.341v-5.841c0-2.051-1.102-3-2.659-3-1.25 0-2.165.574-2.614 1.477h-.091c-.432-.931-1.193-1.477-2.341-1.477-1.136 0-1.977.545-2.341 1.477h-.113v-1.363h-1.296V106zm13.907 0h1.341v-8.727h-1.341V106zm.681-10.182c.523 0 .955-.409.955-.909s-.432-.909-.955-.909c-.522 0-.954.41-.954.91s.432.908.954.908zm9.297 3.41c-.42-1.24-1.363-2.069-3.091-2.069-1.84 0-3.204 1.045-3.204 2.523 0 1.204.716 2.011 2.318 2.386l1.455.341c.88.205 1.295.625 1.295 1.227 0 .75-.795 1.364-2.045 1.364-1.097 0-1.784-.472-2.023-1.409l-1.273.318c.313 1.483 1.534 2.273 3.318 2.273 2.029 0 3.409-1.108 3.409-2.614 0-1.216-.761-1.983-2.318-2.363l-1.295-.319c-1.034-.255-1.5-.602-1.5-1.272 0-.75.795-1.296 1.863-1.296 1.171 0 1.654.648 1.887 1.25l1.204-.34zm5.837 6.954c1.773 0 3.068-.887 3.477-2.205l-1.295-.363c-.341.909-1.131 1.363-2.182 1.363-1.574 0-2.659-1.017-2.722-2.886h6.336v-.568c0-3.25-1.932-4.364-3.75-4.364-2.364 0-3.932 1.864-3.932 4.546 0 2.681 1.545 4.477 4.068 4.477zm-2.722-5.25c.091-1.358 1.052-2.568 2.586-2.568 1.454 0 2.386 1.09 2.386 2.568h-4.972zm13.375-.546h-5.091v1.25h5.091v-1.25zm3.951-6.022h-1.409V106h1.409V94.364zM174.797 106c3.545 0 5.545-2.205 5.545-5.841 0-3.614-2-5.795-5.386-5.795h-3.75V106h3.591zm-2.182-1.25v-9.136h2.25c2.727 0 4.114 1.727 4.114 4.545 0 2.841-1.387 4.591-4.273 4.591h-2.091zm19.091 1.25h1.409v-4.25h2.546c2.71 0 3.931-1.648 3.931-3.704 0-2.057-1.221-3.682-3.954-3.682h-3.932V106zm1.409-5.5v-4.886h2.477c1.892 0 2.614 1.034 2.614 2.431 0 1.398-.722 2.455-2.591 2.455h-2.5zm12.906 5.5h1.137l.528-3.227h1.722l.181-1.137h-1.715l.477-2.909h1.738l.182-1.136h-1.733l.529-3.227h-1.137l-.528 3.227h-2.955l.529-3.227h-1.137l-.528 3.227h-1.722l-.181 1.136h1.716l-.478 2.909h-1.738l-.182 1.137h1.733L201.93 106h1.137l.528-3.227h2.955l-.529 3.227zm-2.238-4.364l.477-2.909h2.954l-.477 2.909h-2.954zm12.059-7.272h-1.409l-2.909 1.931v1.432l2.841-1.886h.068V106h1.409V94.364zm-183.07 25.25h3.66V130h1.409v-10.386H41.5v-1.25h-8.727v1.25zm13.114 10.568c1.773 0 3.069-.887 3.478-2.205l-1.296-.363c-.34.909-1.13 1.363-2.182 1.363-1.574 0-2.659-1.017-2.721-2.886H49.5v-.568c0-3.25-1.932-4.364-3.75-4.364-2.364 0-3.932 1.864-3.932 4.546 0 2.681 1.546 4.477 4.068 4.477zm-2.721-5.25c.09-1.358 1.05-2.568 2.585-2.568 1.455 0 2.386 1.091 2.386 2.568h-4.971zm9.716-6.568H51.54V130h1.34v-11.636zm3.797 0h-1.341V130h1.34v-11.636zM65.61 130h1.318l1.91-6.705h.135l1.91 6.705h1.318l2.659-8.727h-1.41l-1.886 6.659h-.09l-1.841-6.659h-1.432l-1.864 6.682h-.09l-1.887-6.682h-1.41L65.61 130zm14.271.182c2.364 0 3.955-1.796 3.955-4.5 0-2.727-1.591-4.523-3.955-4.523s-3.954 1.796-3.954 4.523c0 2.704 1.59 4.5 3.954 4.5zm0-1.205c-1.795 0-2.614-1.545-2.614-3.295s.819-3.318 2.614-3.318c1.796 0 2.614 1.568 2.614 3.318s-.818 3.295-2.614 3.295zM85.883 130h1.341v-5.523c0-1.182.932-2.045 2.205-2.045.358 0 .727.068.818.091v-1.364a13.248 13.248 0 00-.704-.023c-1.046 0-1.955.591-2.273 1.455h-.091v-1.318h-1.296V130zm5.954 0h1.34v-3.267l.938-.869L97.382 130h1.705l-3.96-5 3.687-3.727h-1.66l-3.817 3.886h-.16v-6.795h-1.34V130zm12.002.182c1.773 0 3.069-.887 3.478-2.205l-1.296-.363c-.341.909-1.13 1.363-2.182 1.363-1.573 0-2.659-1.017-2.721-2.886h6.335v-.568c0-3.25-1.932-4.364-3.75-4.364-2.364 0-3.932 1.864-3.932 4.546 0 2.681 1.546 4.477 4.068 4.477zm-2.721-5.25c.091-1.358 1.051-2.568 2.585-2.568 1.455 0 2.386 1.091 2.386 2.568h-4.971zm8.375 5.068h1.341v-5.523c0-1.182.932-2.045 2.204-2.045.358 0 .728.068.819.091v-1.364a13.282 13.282 0 00-.705-.023c-1.045 0-1.955.591-2.273 1.455h-.091v-1.318h-1.295V130zm13.021.205c1.523 0 2.318-.819 2.591-1.387h.068V130h1.341v-5.75c0-2.773-2.113-3.091-3.227-3.091-1.318 0-2.818.455-3.5 2.046l1.273.454c.295-.636.994-1.318 2.272-1.318 1.233 0 1.841.653 1.841 1.773v.045c0 .648-.659.591-2.25.796-1.619.21-3.386.568-3.386 2.568 0 1.704 1.318 2.682 2.977 2.682zm.205-1.205c-1.068 0-1.841-.477-1.841-1.409 0-1.023.932-1.341 1.977-1.477.568-.069 2.091-.228 2.318-.5v1.227c0 1.091-.863 2.159-2.454 2.159zm6.424 1h1.296v-1.341h.159c.295.477.864 1.523 2.545 1.523 2.182 0 3.705-1.75 3.705-4.523 0-2.75-1.523-4.5-3.727-4.5-1.705 0-2.228 1.046-2.523 1.5h-.114v-4.295h-1.341V130zm1.319-4.364c0-1.954.863-3.272 2.5-3.272 1.704 0 2.545 1.431 2.545 3.272 0 1.864-.864 3.341-2.545 3.341-1.614 0-2.5-1.363-2.5-3.341zm11.983 4.546c2.363 0 3.954-1.796 3.954-4.5 0-2.727-1.591-4.523-3.954-4.523-2.364 0-3.955 1.796-3.955 4.523 0 2.704 1.591 4.5 3.955 4.5zm0-1.205c-1.796 0-2.614-1.545-2.614-3.295s.818-3.318 2.614-3.318c1.795 0 2.613 1.568 2.613 3.318s-.818 3.295-2.613 3.295zm11.501-2.545c0 1.636-1.25 2.386-2.25 2.386-1.114 0-1.909-.818-1.909-2.091v-5.454h-1.341v5.545c0 2.227 1.182 3.296 2.818 3.296 1.318 0 2.182-.705 2.591-1.591h.091V130h1.341v-8.727h-1.341v5.159zm7.592-5.159h-1.863v-2.091h-1.341v2.091h-1.318v1.136h1.318v5.455c0 1.522 1.227 2.25 2.363 2.25.5 0 .819-.091 1-.159l-.272-1.205c-.114.023-.296.068-.591.068-.591 0-1.159-.182-1.159-1.318v-5.091h1.863v-1.136zm6.517 8.727h1.341v-8.727h-1.341V130zm.682-10.182c.523 0 .955-.409.955-.909s-.432-.909-.955-.909c-.523 0-.954.409-.954.909s.431.909.954.909zm6.911 1.455h-1.864v-2.091h-1.341v2.091h-1.318v1.136h1.318v5.455c0 1.522 1.227 2.25 2.364 2.25.5 0 .818-.091 1-.159l-.273-1.205c-.114.023-.295.068-.591.068-.591 0-1.159-.182-1.159-1.318v-5.091h1.864v-1.136zM35.523 154h1.454l2.569-9.273h.09L42.205 154h1.454l3.182-11.636h-1.432l-2.432 9.477h-.113l-2.478-9.477h-1.59l-2.478 9.477h-.113l-2.432-9.477H32.34L35.523 154zm12.345 0h1.34v-5.523c0-1.182.933-2.045 2.205-2.045.358 0 .728.068.819.091v-1.364a13.244 13.244 0 00-.705-.023c-1.046 0-1.955.591-2.273 1.455h-.09v-1.318h-1.296V154zm5.953 0h1.34v-8.727h-1.34V154zm.682-10.182c.523 0 .954-.409.954-.909s-.431-.909-.954-.909c-.523 0-.955.409-.955.909s.432.909.955.909zm6.91 1.455H59.55v-2.091h-1.341v2.091H56.89v1.136h1.318v5.455c0 1.522 1.227 2.25 2.363 2.25.5 0 .819-.091 1-.159l-.272-1.205c-.114.023-.296.068-.591.068-.591 0-1.16-.182-1.16-1.318v-5.091h1.864v-1.136zm5.583 8.909c1.773 0 3.068-.887 3.477-2.205l-1.295-.363c-.341.909-1.131 1.363-2.182 1.363-1.574 0-2.66-1.017-2.722-2.886h6.335v-.568c0-3.25-1.931-4.364-3.75-4.364-2.363 0-3.931 1.864-3.931 4.546 0 2.681 1.545 4.477 4.068 4.477zm-2.722-5.25c.091-1.358 1.051-2.568 2.585-2.568 1.455 0 2.387 1.091 2.387 2.568h-4.972zm16.67-3.659h-1.863v-2.091h-1.34v2.091h-1.32v1.136h1.32v5.455c0 1.522 1.226 2.25 2.363 2.25.5 0 .818-.091 1-.159l-.273-1.205c-.114.023-.296.068-.59.068-.592 0-1.16-.182-1.16-1.318v-5.091h1.864v-1.136zm5.47 8.909c2.363 0 3.954-1.796 3.954-4.5 0-2.727-1.591-4.523-3.955-4.523-2.363 0-3.954 1.796-3.954 4.523 0 2.704 1.59 4.5 3.954 4.5zm0-1.205c-1.796 0-2.614-1.545-2.614-3.295s.818-3.318 2.613-3.318c1.796 0 2.614 1.568 2.614 3.318s-.818 3.295-2.614 3.295zM106.46 146c-.432-2.386-2.341-3.795-4.682-3.795-2.977 0-5.136 2.295-5.136 5.977 0 3.682 2.16 5.977 5.136 5.977 2.341 0 4.25-1.409 4.682-3.795h-1.409c-.341 1.613-1.727 2.477-3.273 2.477-2.113 0-3.772-1.636-3.772-4.659 0-3.023 1.659-4.659 3.772-4.659 1.546 0 2.932.863 3.273 2.477h1.409zm3.436-3.636h-1.341V154h1.341v-11.636zM112.352 154h1.341v-8.727h-1.341V154zm.682-10.182c.523 0 .955-.409.955-.909s-.432-.909-.955-.909c-.523 0-.954.409-.954.909s.431.909.954.909zm3.115 13.455h1.341v-4.614h.114c.295.477.863 1.523 2.545 1.523 2.182 0 3.705-1.75 3.705-4.523 0-2.75-1.523-4.5-3.728-4.5-1.704 0-2.227 1.046-2.522 1.5h-.159v-1.386h-1.296v12zm1.318-7.637c0-1.954.864-3.272 2.5-3.272 1.705 0 2.546 1.431 2.546 3.272 0 1.864-.864 3.341-2.546 3.341-1.613 0-2.5-1.363-2.5-3.341zm8.614 4.364h1.295v-1.341h.16c.295.477.863 1.523 2.545 1.523 2.182 0 3.705-1.75 3.705-4.523 0-2.75-1.523-4.5-3.728-4.5-1.704 0-2.227 1.046-2.522 1.5h-.114v-4.295h-1.341V154zm1.318-4.364c0-1.954.864-3.272 2.5-3.272 1.705 0 2.546 1.431 2.546 3.272 0 1.864-.864 3.341-2.546 3.341-1.613 0-2.5-1.363-2.5-3.341zm11.983 4.546c2.364 0 3.955-1.796 3.955-4.5 0-2.727-1.591-4.523-3.955-4.523s-3.954 1.796-3.954 4.523c0 2.704 1.59 4.5 3.954 4.5zm0-1.205c-1.795 0-2.614-1.545-2.614-3.295s.819-3.318 2.614-3.318c1.796 0 2.614 1.568 2.614 3.318s-.818 3.295-2.614 3.295zm8.57 1.228c1.522 0 2.318-.819 2.591-1.387h.068V154h1.341v-5.75c0-2.773-2.114-3.091-3.228-3.091-1.318 0-2.818.455-3.5 2.046l1.273.454c.296-.636.994-1.318 2.273-1.318 1.233 0 1.841.653 1.841 1.773v.045c0 .648-.659.591-2.25.796-1.62.21-3.387.568-3.387 2.568 0 1.704 1.319 2.682 2.978 2.682zm.204-1.205c-1.068 0-1.841-.477-1.841-1.409 0-1.023.932-1.341 1.978-1.477.568-.069 2.091-.228 2.318-.5v1.227c0 1.091-.864 2.159-2.455 2.159zm6.243 1h1.341v-5.523c0-1.182.932-2.045 2.205-2.045.358 0 .727.068.818.091v-1.364a13.282 13.282 0 00-.705-.023c-1.045 0-1.954.591-2.272 1.455h-.091v-1.318h-1.296V154zm8.983.182c1.682 0 2.25-1.046 2.546-1.523h.159V154h1.295v-11.636h-1.341v4.295h-.113c-.296-.454-.819-1.5-2.523-1.5-2.205 0-3.727 1.75-3.727 4.5 0 2.773 1.522 4.523 3.704 4.523zm.182-1.205c-1.682 0-2.546-1.477-2.546-3.341 0-1.841.841-3.272 2.546-3.272 1.636 0 2.5 1.318 2.5 3.272 0 1.978-.886 3.341-2.5 3.341zM33.886 178l1.17-3.295h4.705l1.17 3.295h1.478l-4.273-11.636h-1.454L32.409 178h1.477zm1.614-4.545l1.864-5.25h.09l1.864 5.25H35.5zm14.722-2.228c-.42-1.238-1.364-2.068-3.091-2.068-1.841 0-3.205 1.046-3.205 2.523 0 1.204.716 2.011 2.318 2.386l1.455.341c.88.205 1.295.625 1.295 1.227 0 .75-.795 1.364-2.045 1.364-1.097 0-1.784-.472-2.023-1.409l-1.273.318c.313 1.483 1.535 2.273 3.319 2.273 2.028 0 3.409-1.108 3.409-2.614 0-1.216-.762-1.983-2.319-2.363l-1.295-.319c-1.034-.255-1.5-.602-1.5-1.272 0-.75.795-1.296 1.864-1.296 1.17 0 1.653.648 1.886 1.25l1.205-.341zm8.359 0c-.42-1.238-1.364-2.068-3.09-2.068-1.842 0-3.206 1.046-3.206 2.523 0 1.204.716 2.011 2.319 2.386l1.454.341c.88.205 1.296.625 1.296 1.227 0 .75-.796 1.364-2.046 1.364-1.096 0-1.784-.472-2.023-1.409l-1.272.318c.312 1.483 1.534 2.273 3.318 2.273 2.028 0 3.41-1.108 3.41-2.614 0-1.216-.762-1.983-2.32-2.363l-1.295-.319c-1.034-.255-1.5-.602-1.5-1.272 0-.75.796-1.296 1.864-1.296 1.17 0 1.654.648 1.886 1.25l1.205-.341zm5.723 6.955c2.364 0 3.954-1.796 3.954-4.5 0-2.727-1.59-4.523-3.954-4.523s-3.955 1.796-3.955 4.523c0 2.704 1.591 4.5 3.955 4.5zm0-1.205c-1.796 0-2.614-1.545-2.614-3.295s.819-3.318 2.614-3.318 2.614 1.568 2.614 3.318-.819 3.295-2.614 3.295zm9.547 1.205c1.932 0 3.204-1.182 3.432-2.727h-1.341c-.25.954-1.046 1.522-2.091 1.522-1.591 0-2.614-1.318-2.614-3.341 0-1.977 1.046-3.272 2.614-3.272 1.182 0 1.886.727 2.09 1.522h1.342c-.228-1.636-1.614-2.727-3.455-2.727-2.364 0-3.932 1.864-3.932 4.523 0 2.613 1.5 4.5 3.955 4.5zm5.392-.182h1.34v-8.727h-1.34V178zm.682-10.182c.522 0 .954-.409.954-.909s-.432-.909-.954-.909c-.523 0-.955.409-.955.909s.432.909.955.909zm5.683 10.387c1.523 0 2.318-.819 2.59-1.387h.069V178h1.341v-5.75c0-2.773-2.114-3.091-3.227-3.091-1.319 0-2.819.455-3.5 2.046l1.272.454c.296-.636.995-1.318 2.273-1.318 1.233 0 1.841.653 1.841 1.773v.045c0 .648-.659.591-2.25.796-1.62.21-3.386.568-3.386 2.568 0 1.704 1.318 2.682 2.977 2.682zm.204-1.205c-1.068 0-1.84-.477-1.84-1.409 0-1.023.931-1.341 1.977-1.477.568-.069 2.09-.228 2.318-.5v1.227c0 1.091-.864 2.159-2.454 2.159zm10.039-7.727h-1.864v-2.091h-1.34v2.091h-1.319v1.136h1.318v5.455c0 1.522 1.228 2.25 2.364 2.25.5 0 .818-.091 1-.159l-.273-1.205c-.113.023-.295.068-.59.068-.592 0-1.16-.182-1.16-1.318v-5.091h1.864v-1.136zm5.582 8.909c1.773 0 3.068-.887 3.478-2.205l-1.296-.363c-.341.909-1.131 1.363-2.182 1.363-1.574 0-2.659-1.017-2.721-2.886h6.335v-.568c0-3.25-1.932-4.364-3.75-4.364-2.364 0-3.932 1.864-3.932 4.546 0 2.681 1.546 4.477 4.068 4.477zm-2.721-5.25c.09-1.358 1.05-2.568 2.585-2.568 1.454 0 2.386 1.091 2.386 2.568h-4.971zM111.768 178h1.41v-4.25h2.545c2.71 0 3.932-1.648 3.932-3.705 0-2.056-1.222-3.681-3.955-3.681h-3.932V178zm1.41-5.5v-4.886h2.477c1.892 0 2.613 1.034 2.613 2.431 0 1.398-.721 2.455-2.59 2.455h-2.5zm12.906 5.5h1.136l.529-3.227h1.721l.182-1.137h-1.716l.477-2.909h1.739l.182-1.136h-1.733l.528-3.227h-1.136l-.529 3.227h-2.954l.528-3.227h-1.136l-.528 3.227h-1.722l-.182 1.136h1.716l-.477 2.909h-1.739l-.182 1.137h1.733l-.528 3.227h1.136l.529-3.227h2.954l-.528 3.227zm-2.239-4.364l.477-2.909h2.955l-.477 2.909h-2.955zm12.06-7.272h-1.409l-2.909 1.931v1.432l2.841-1.886h.068V178h1.409v-11.636zm21.426 10.909l5.091-5.091-5.091-5.091-.875.875 2.244 2.239h-14.153v1.25h15.409l.727.727-.727.727h-15.409v1.25h14.159l-2.25 2.25.875.864zM173.5 178c3.545 0 5.545-2.205 5.545-5.841 0-3.614-2-5.795-5.386-5.795h-3.75V178h3.591zm-2.182-1.25v-9.136h2.25c2.727 0 4.114 1.727 4.114 4.545 0 2.841-1.387 4.591-4.273 4.591h-2.091zm12.477 1.455c1.523 0 2.319-.819 2.591-1.387h.069V178h1.34v-5.75c0-2.773-2.113-3.091-3.227-3.091-1.318 0-2.818.455-3.5 2.046l1.273.454c.295-.636.994-1.318 2.273-1.318 1.233 0 1.841.653 1.841 1.773v.045c0 .648-.66.591-2.25.796-1.62.21-3.387.568-3.387 2.568 0 1.704 1.318 2.682 2.977 2.682zM184 177c-1.068 0-1.841-.477-1.841-1.409 0-1.023.932-1.341 1.977-1.477.569-.069 2.091-.228 2.319-.5v1.227c0 1.091-.864 2.159-2.455 2.159zm10.038-7.727h-1.863v-2.091h-1.341v2.091h-1.318v1.136h1.318v5.455c0 1.522 1.227 2.25 2.363 2.25.5 0 .819-.091 1-.159l-.272-1.205c-.114.023-.296.068-.591.068-.591 0-1.159-.182-1.159-1.318v-5.091h1.863v-1.136zm4.586 8.932c1.522 0 2.318-.819 2.59-1.387h.069V178h1.341v-5.75c0-2.773-2.114-3.091-3.228-3.091-1.318 0-2.818.455-3.5 2.046l1.273.454c.295-.636.994-1.318 2.273-1.318 1.233 0 1.841.653 1.841 1.773v.045c0 .648-.659.591-2.25.796-1.62.21-3.387.568-3.387 2.568 0 1.704 1.318 2.682 2.978 2.682zm.204-1.205c-1.068 0-1.841-.477-1.841-1.409 0-1.023.932-1.341 1.977-1.477.569-.069 2.091-.228 2.319-.5v1.227c0 1.091-.864 2.159-2.455 2.159zm10.743 1h1.341v-5.523c0-1.182.932-2.045 2.204-2.045.358 0 .728.068.819.091v-1.364a13.282 13.282 0 00-.705-.023c-1.045 0-1.954.591-2.273 1.455h-.091v-1.318h-1.295V178zm9.347.182c1.772 0 3.068-.887 3.477-2.205l-1.296-.363c-.34.909-1.13 1.363-2.181 1.363-1.574 0-2.659-1.017-2.722-2.886h6.335v-.568c0-3.25-1.932-4.364-3.75-4.364-2.363 0-3.932 1.864-3.932 4.546 0 2.681 1.546 4.477 4.069 4.477zm-2.722-5.25c.091-1.358 1.051-2.568 2.585-2.568 1.455 0 2.387 1.091 2.387 2.568h-4.972zm14.557-1.705c-.421-1.238-1.364-2.068-3.091-2.068-1.841 0-3.205 1.046-3.205 2.523 0 1.204.716 2.011 2.319 2.386l1.454.341c.881.205 1.296.625 1.296 1.227 0 .75-.796 1.364-2.046 1.364-1.096 0-1.784-.472-2.023-1.409l-1.272.318c.312 1.483 1.534 2.273 3.318 2.273 2.028 0 3.409-1.108 3.409-2.614 0-1.216-.761-1.983-2.318-2.363l-1.296-.319c-1.034-.255-1.5-.602-1.5-1.272 0-.75.796-1.296 1.864-1.296 1.17 0 1.653.648 1.886 1.25l1.205-.341zm5.723 6.955c2.363 0 3.954-1.796 3.954-4.5 0-2.727-1.591-4.523-3.954-4.523-2.364 0-3.955 1.796-3.955 4.523 0 2.704 1.591 4.5 3.955 4.5zm0-1.205c-1.796 0-2.614-1.545-2.614-3.295s.818-3.318 2.614-3.318c1.795 0 2.613 1.568 2.613 3.318s-.818 3.295-2.613 3.295zm7.342-10.613h-1.341V178h1.341v-11.636zm9.593 2.909h-1.455l-2.409 6.954h-.091l-2.409-6.954h-1.455L248.82 178h1.363l3.228-8.727zm5.116 8.909c1.773 0 3.068-.887 3.477-2.205l-1.295-.363c-.341.909-1.131 1.363-2.182 1.363-1.574 0-2.659-1.017-2.722-2.886h6.336v-.568c0-3.25-1.932-4.364-3.75-4.364-2.364 0-3.932 1.864-3.932 4.546 0 2.681 1.545 4.477 4.068 4.477zm-2.722-5.25c.091-1.358 1.052-2.568 2.586-2.568 1.454 0 2.386 1.091 2.386 2.568h-4.972zM264.18 178h1.341v-5.523c0-1.182.932-2.045 2.205-2.045.358 0 .727.068.818.091v-1.364a13.246 13.246 0 00-.705-.023c-1.045 0-1.954.591-2.272 1.455h-.091v-1.318h-1.296V178zM20.818 74.176c2.46 0 4.068-1.801 4.068-4.5 0-2.716-1.608-4.517-4.068-4.517-2.46 0-4.068 1.801-4.068 4.517 0 2.699 1.608 4.5 4.068 4.5zm.006-1.426c-1.608 0-2.358-1.403-2.358-3.08 0-1.67.75-3.09 2.358-3.09 1.596 0 2.346 1.42 2.346 3.09 0 1.677-.75 3.08-2.346 3.08zm7.657-3.932c0-1.392.853-2.187 2.035-2.187 1.153 0 1.852.755 1.852 2.022V74h1.699v-5.551c0-2.16-1.188-3.29-2.972-3.29-1.312 0-2.17.608-2.574 1.534h-.108v-1.42h-1.63V74h1.698v-5.182zm15.775 5.358c2.062 0 3.397-1.239 3.585-2.937h-1.654c-.215.943-.948 1.5-1.92 1.5-1.438 0-2.364-1.2-2.364-3.103 0-1.869.944-3.045 2.364-3.045 1.08 0 1.739.682 1.92 1.5h1.654c-.182-1.761-1.62-2.932-3.602-2.932-2.46 0-4.051 1.852-4.051 4.517 0 2.63 1.534 4.5 4.068 4.5zm9.078 0c2.46 0 4.068-1.801 4.068-4.5 0-2.716-1.608-4.517-4.068-4.517-2.46 0-4.068 1.801-4.068 4.517 0 2.699 1.608 4.5 4.068 4.5zm.005-1.426c-1.608 0-2.358-1.403-2.358-3.08 0-1.67.75-3.09 2.358-3.09 1.597 0 2.347 1.42 2.347 3.09 0 1.677-.75 3.08-2.346 3.08zm5.96 4.523h1.698v-4.631h.102c.307.557.932 1.529 2.523 1.529 2.114 0 3.648-1.694 3.648-4.518 0-2.83-1.557-4.494-3.665-4.494-1.62 0-2.204.989-2.506 1.528h-.142v-1.414h-1.659v12zm1.664-7.637c0-1.823.795-3.034 2.279-3.034 1.54 0 2.312 1.301 2.312 3.034 0 1.75-.796 3.086-2.313 3.086-1.46 0-2.278-1.25-2.278-3.086zm8.972 7.614c1.403 0 2.295-.733 2.795-2.085l3.608-9.875-1.835-.017-2.21 6.773h-.091l-2.21-6.773h-1.819l3.194 8.84-.21.58c-.433 1.13-1.04 1.233-1.972.978l-.41 1.391c.205.097.648.188 1.16.188z" fill="#000"/><path d="M432.707 125.707a.999.999 0 000-1.414l-6.364-6.364a.999.999 0 10-1.414 1.414l5.657 5.657-5.657 5.657a.999.999 0 101.414 1.414l6.364-6.364zM432 124H186v2h246v-2z" fill="#282828"/><circle cx="228" cy="125" r="11" fill="#fff" stroke="#282828" stroke-width="2"/><path d="M229.683 119.818h-1.755l-2.531 1.626v1.69l2.382-1.521h.059V130h1.845v-10.182z" fill="#282828"/><circle cx="314" cy="204" r="11" fill="#fff" stroke="#282828" stroke-width="2"/><path d="M310.557 209h6.98v-1.541h-4.434v-.07l1.755-1.785c1.978-1.899 2.525-2.823 2.525-3.972 0-1.705-1.387-2.953-3.435-2.953-2.019 0-3.45 1.253-3.45 3.187h1.754c0-1.039.657-1.691 1.671-1.691.969 0 1.69.592 1.69 1.552 0 .85-.517 1.456-1.521 2.475l-3.535 3.466V209z" fill="#282828"/></svg>