<svg width="800" height="344" viewBox="0 0 800 344" fill="none" xmlns="http://www.w3.org/2000/svg">
<rect x="448" width="352" height="200" rx="3" fill="#FFF2D9"/>
<path d="M471.472 25.5625H473.5C473.46 23.5966 471.784 22.2045 469.307 22.2045C466.864 22.2045 465.028 23.5795 465.034 25.6364C465.034 27.3068 466.222 28.267 468.136 28.7614L469.46 29.1023C470.716 29.4205 471.545 29.8125 471.551 30.7159C471.545 31.7102 470.602 32.375 469.227 32.375C467.909 32.375 466.886 31.7841 466.801 30.5625H464.727C464.812 32.875 466.534 34.1761 469.244 34.1761C472.034 34.1761 473.653 32.7841 473.659 30.733C473.653 28.7159 471.989 27.7955 470.239 27.3807L469.148 27.108C468.193 26.8807 467.159 26.4773 467.17 25.5057C467.176 24.6307 467.96 23.9886 469.278 23.9886C470.534 23.9886 471.364 24.5739 471.472 25.5625ZM477.504 28.8864C477.504 27.625 478.288 26.8977 479.391 26.8977C480.47 26.8977 481.107 27.5852 481.107 28.7614V34H483.163V28.4432C483.163 26.3352 481.97 25.1591 480.158 25.1591C478.817 25.1591 477.964 25.767 477.561 26.7557H477.459V22.3636H475.447V34H477.504V28.8864ZM487.771 34.1761C489.141 34.1761 489.959 33.5341 490.334 32.8011H490.402V34H492.379V28.1591C492.379 25.8523 490.499 25.1591 488.834 25.1591C486.999 25.1591 485.589 25.9773 485.135 27.5682L487.055 27.8409C487.26 27.2443 487.839 26.733 488.845 26.733C489.8 26.733 490.322 27.2216 490.322 28.0795V28.1136C490.322 28.7045 489.703 28.733 488.163 28.8977C486.47 29.0795 484.851 29.5852 484.851 31.5511C484.851 33.267 486.107 34.1761 487.771 34.1761ZM488.305 32.6648C487.447 32.6648 486.834 32.2727 486.834 31.517C486.834 30.7273 487.521 30.3977 488.442 30.267C488.982 30.1932 490.061 30.0568 490.328 29.8409V30.8693C490.328 31.8409 489.544 32.6648 488.305 32.6648ZM494.447 34H496.504V28.8693C496.504 27.7614 497.339 26.9773 498.47 26.9773C498.817 26.9773 499.249 27.0398 499.425 27.0966V25.2045C499.237 25.1705 498.913 25.1477 498.686 25.1477C497.686 25.1477 496.851 25.7159 496.533 26.7273H496.442V25.2727H494.447V34ZM504.295 34.1705C506.33 34.1705 507.727 33.1761 508.091 31.6591L506.17 31.4432C505.892 32.1818 505.21 32.5682 504.324 32.5682C502.994 32.5682 502.114 31.6932 502.097 30.1989H508.176V29.5682C508.176 26.5057 506.335 25.1591 504.188 25.1591C501.688 25.1591 500.057 26.9943 500.057 29.6875C500.057 32.4261 501.665 34.1705 504.295 34.1705ZM502.102 28.8125C502.165 27.6989 502.989 26.7614 504.216 26.7614C505.398 26.7614 506.193 27.625 506.205 28.8125H502.102ZM513.155 34.1534C514.655 34.1534 515.331 33.2614 515.655 32.625H515.78V34H517.803V22.3636H515.74V26.7159H515.655C515.342 26.0852 514.7 25.1591 513.161 25.1591C511.143 25.1591 509.558 26.7386 509.558 29.6477C509.558 32.5227 511.098 34.1534 513.155 34.1534ZM513.729 32.4659C512.371 32.4659 511.655 31.2727 511.655 29.6364C511.655 28.0114 512.359 26.8466 513.729 26.8466C515.053 26.8466 515.78 27.9432 515.78 29.6364C515.78 31.3295 515.041 32.4659 513.729 32.4659ZM526.503 34H528.582L530.918 25.8352H531.009L533.338 34H535.418L538.702 22.3636H536.435L534.338 30.9205H534.236L531.991 22.3636H529.929L527.69 30.9148H527.582L525.486 22.3636H523.219L526.503 34ZM542.989 34.1705C545.545 34.1705 547.17 32.3693 547.17 29.6705C547.17 26.9659 545.545 25.1591 542.989 25.1591C540.432 25.1591 538.807 26.9659 538.807 29.6705C538.807 32.3693 540.432 34.1705 542.989 34.1705ZM543 32.5227C541.585 32.5227 540.892 31.2614 540.892 29.6648C540.892 28.0682 541.585 26.7898 543 26.7898C544.392 26.7898 545.085 28.0682 545.085 29.6648C545.085 31.2614 544.392 32.5227 543 32.5227ZM548.916 34H550.973V28.8693C550.973 27.7614 551.808 26.9773 552.939 26.9773C553.286 26.9773 553.717 27.0398 553.893 27.0966V25.2045C553.706 25.1705 553.382 25.1477 553.155 25.1477C552.155 25.1477 551.32 25.7159 551.001 26.7273H550.911V25.2727H548.916V34ZM555.26 34H557.317V31.0682L558.067 30.267L560.737 34H563.197L559.618 29.0398L562.999 25.2727H560.595L557.459 28.7784H557.317V22.3636H555.26V34ZM567.874 34.1705C569.908 34.1705 571.305 33.1761 571.669 31.6591L569.749 31.4432C569.47 32.1818 568.788 32.5682 567.902 32.5682C566.572 32.5682 565.692 31.6932 565.675 30.1989H571.754V29.5682C571.754 26.5057 569.913 25.1591 567.766 25.1591C565.266 25.1591 563.635 26.9943 563.635 29.6875C563.635 32.4261 565.243 34.1705 567.874 34.1705ZM565.68 28.8125C565.743 27.6989 566.567 26.7614 567.794 26.7614C568.976 26.7614 569.771 27.625 569.783 28.8125H565.68ZM573.494 34H575.551V28.8693C575.551 27.7614 576.386 26.9773 577.517 26.9773C577.864 26.9773 578.295 27.0398 578.472 27.0966V25.2045C578.284 25.1705 577.96 25.1477 577.733 25.1477C576.733 25.1477 575.898 25.7159 575.58 26.7273H575.489V25.2727H573.494V34Z" fill="black"/>
<rect x="464" y="56" width="320" height="56" rx="3" fill="#FFDE9E"/>
<path d="M481.278 78.3636V90H482.949V81.5739H483.057L486.489 89.983H487.875L491.307 81.5795H491.415V90H493.085V78.3636H490.955L487.25 87.4091H487.114L483.409 78.3636H481.278ZM498.041 90.1932C499.484 90.1932 500.297 89.4602 500.621 88.8068H500.689V90H502.348V84.2045C502.348 81.6648 500.348 81.1591 498.962 81.1591C497.382 81.1591 495.928 81.7955 495.359 83.3864L496.956 83.75C497.206 83.1307 497.842 82.5341 498.984 82.5341C500.081 82.5341 500.643 83.108 500.643 84.0966V84.1364C500.643 84.7557 500.007 84.7443 498.439 84.9261C496.786 85.1193 495.092 85.5511 495.092 87.5341C495.092 89.25 496.382 90.1932 498.041 90.1932ZM498.411 88.8295C497.45 88.8295 496.757 88.3977 496.757 87.5568C496.757 86.6477 497.564 86.3239 498.547 86.1932C499.098 86.1193 500.405 85.9716 500.649 85.7273V86.8523C500.649 87.8864 499.825 88.8295 498.411 88.8295ZM504.611 93.2727H506.31V88.642H506.412C506.719 89.1989 507.344 90.1705 508.935 90.1705C511.048 90.1705 512.582 88.4773 512.582 85.6534C512.582 82.8239 511.026 81.1591 508.918 81.1591C507.298 81.1591 506.713 82.1477 506.412 82.6875H506.27V81.2727H504.611V93.2727ZM506.276 85.6364C506.276 83.8125 507.071 82.6023 508.554 82.6023C510.094 82.6023 510.866 83.9034 510.866 85.6364C510.866 87.3864 510.071 88.7216 508.554 88.7216C507.094 88.7216 506.276 87.4716 506.276 85.6364ZM522.396 90.1761C524.857 90.1761 526.464 88.375 526.464 85.6761C526.464 82.9602 524.857 81.1591 522.396 81.1591C519.936 81.1591 518.328 82.9602 518.328 85.6761C518.328 88.375 519.936 90.1761 522.396 90.1761ZM522.402 88.75C520.794 88.75 520.044 87.3466 520.044 85.6705C520.044 84 520.794 82.5795 522.402 82.5795C523.999 82.5795 524.749 84 524.749 85.6705C524.749 87.3466 523.999 88.75 522.402 88.75ZM532.514 81.2727H530.634V80.4886C530.634 79.7159 530.952 79.2955 531.781 79.2955C532.134 79.2955 532.384 79.375 532.543 79.4261L532.94 78.0511C532.702 77.9602 532.207 77.8182 531.52 77.8182C530.139 77.8182 528.929 78.625 528.929 80.2614V81.2727H527.582V82.6364H528.929V90H530.634V82.6364H532.514V81.2727ZM538.638 90H540.393V85.9091H542.78C545.479 85.9091 546.814 84.2784 546.814 82.1307C546.814 79.9886 545.49 78.3636 542.786 78.3636H538.638V90ZM540.393 84.4205V79.8693H542.598C544.337 79.8693 545.047 80.8125 545.047 82.1307C545.047 83.4489 544.337 84.4205 542.621 84.4205H540.393ZM548.736 90H550.435V84.6705C550.435 83.5284 551.315 82.7045 552.52 82.7045C552.872 82.7045 553.27 82.767 553.406 82.8068V81.1818C553.236 81.1591 552.901 81.142 552.685 81.142C551.662 81.142 550.787 81.7216 550.469 82.6591H550.378V81.2727H548.736V90ZM558.24 90.1761C560.7 90.1761 562.308 88.375 562.308 85.6761C562.308 82.9602 560.7 81.1591 558.24 81.1591C555.78 81.1591 554.172 82.9602 554.172 85.6761C554.172 88.375 555.78 90.1761 558.24 90.1761ZM558.246 88.75C556.638 88.75 555.888 87.3466 555.888 85.6705C555.888 84 556.638 82.5795 558.246 82.5795C559.842 82.5795 560.592 84 560.592 85.6705C560.592 87.3466 559.842 88.75 558.246 88.75ZM564.205 90H565.903V84.6193C565.903 83.4432 566.727 82.625 567.693 82.625C568.636 82.625 569.29 83.25 569.29 84.1989V90H570.983V84.4375C570.983 83.3864 571.625 82.625 572.733 82.625C573.631 82.625 574.369 83.125 574.369 84.3068V90H576.068V84.1477C576.068 82.1534 574.955 81.1591 573.375 81.1591C572.119 81.1591 571.176 81.7614 570.756 82.6932H570.665C570.284 81.7386 569.483 81.1591 568.318 81.1591C567.165 81.1591 566.307 81.733 565.943 82.6932H565.835V81.2727H564.205V90ZM578.345 90H580.044V81.2727H578.345V90ZM579.203 79.9261C579.788 79.9261 580.277 79.4716 580.277 78.9148C580.277 78.358 579.788 77.8977 579.203 77.8977C578.612 77.8977 578.129 78.358 578.129 78.9148C578.129 79.4716 578.612 79.9261 579.203 79.9261ZM588.869 83.4034C588.517 82.0455 587.455 81.1591 585.568 81.1591C583.597 81.1591 582.199 82.1989 582.199 83.7443C582.199 84.983 582.949 85.8068 584.585 86.1705L586.062 86.4943C586.903 86.6818 587.295 87.0568 587.295 87.6023C587.295 88.2784 586.574 88.8068 585.46 88.8068C584.443 88.8068 583.79 88.3693 583.585 87.5114L581.943 87.7614C582.227 89.3068 583.511 90.1761 585.472 90.1761C587.58 90.1761 589.04 89.0568 589.04 87.4773C589.04 86.2443 588.256 85.483 586.653 85.1136L585.267 84.7955C584.307 84.5682 583.892 84.2443 583.898 83.6534C583.892 82.983 584.619 82.5057 585.585 82.5057C586.642 82.5057 587.131 83.0909 587.33 83.6761L588.869 83.4034ZM594.669 90.1761C596.572 90.1761 597.919 89.2386 598.305 87.8182L596.697 87.5284C596.391 88.3523 595.652 88.7727 594.686 88.7727C593.232 88.7727 592.254 87.8295 592.209 86.1477H598.413V85.5455C598.413 82.392 596.527 81.1591 594.55 81.1591C592.118 81.1591 590.516 83.0114 590.516 85.6932C590.516 88.4034 592.095 90.1761 594.669 90.1761ZM592.214 84.875C592.283 83.6364 593.18 82.5625 594.561 82.5625C595.879 82.5625 596.743 83.5398 596.749 84.875H592.214ZM605.44 84.3466H600.281V85.8182H605.44V84.3466ZM609.597 78.3636H607.841V90H609.597V78.3636ZM615.92 90C619.466 90 621.517 87.8011 621.517 84.1648C621.517 80.5455 619.466 78.3636 616.04 78.3636H612.153V90H615.92ZM613.909 88.4659V79.8977H615.932C618.477 79.8977 619.79 81.4205 619.79 84.1648C619.79 86.9205 618.477 88.4659 615.824 88.4659H613.909ZM641.23 89.483L646.531 84.1818L641.23 78.8807L640.207 79.8977L642.361 82.0455H628.656V83.4943H643.81L644.497 84.1818L643.81 84.8693H628.656V86.3182H642.361L640.207 88.4716L641.23 89.483ZM663.287 82.1477C662.889 79.6591 660.94 78.2045 658.48 78.2045C655.469 78.2045 653.247 80.4602 653.247 84.1818C653.247 87.9034 655.457 90.1591 658.48 90.1591C661.037 90.1591 662.906 88.5568 663.287 86.2557L661.514 86.25C661.213 87.7386 659.963 88.5568 658.491 88.5568C656.497 88.5568 654.991 87.0284 654.991 84.1818C654.991 81.358 656.491 79.8068 658.497 79.8068C659.98 79.8068 661.224 80.642 661.514 82.1477H663.287ZM668.928 90.1761C671.388 90.1761 672.996 88.375 672.996 85.6761C672.996 82.9602 671.388 81.1591 668.928 81.1591C666.467 81.1591 664.859 82.9602 664.859 85.6761C664.859 88.375 666.467 90.1761 668.928 90.1761ZM668.933 88.75C667.325 88.75 666.575 87.3466 666.575 85.6705C666.575 84 667.325 82.5795 668.933 82.5795C670.53 82.5795 671.28 84 671.28 85.6705C671.28 87.3466 670.53 88.75 668.933 88.75ZM676.591 84.8182C676.591 83.4261 677.443 82.6307 678.625 82.6307C679.778 82.6307 680.477 83.3864 680.477 84.6534V90H682.176V84.4489C682.176 82.2898 680.989 81.1591 679.205 81.1591C677.892 81.1591 677.034 81.767 676.631 82.6932H676.523V81.2727H674.892V90H676.591V84.8182ZM686.153 84.8182C686.153 83.4261 687.006 82.6307 688.188 82.6307C689.341 82.6307 690.04 83.3864 690.04 84.6534V90H691.739V84.4489C691.739 82.2898 690.551 81.1591 688.767 81.1591C687.455 81.1591 686.597 81.767 686.193 82.6932H686.085V81.2727H684.455V90H686.153V84.8182ZM697.778 90.1761C699.682 90.1761 701.028 89.2386 701.415 87.8182L699.807 87.5284C699.5 88.3523 698.761 88.7727 697.795 88.7727C696.341 88.7727 695.364 87.8295 695.318 86.1477H701.523V85.5455C701.523 82.392 699.636 81.1591 697.659 81.1591C695.227 81.1591 693.625 83.0114 693.625 85.6932C693.625 88.4034 695.205 90.1761 697.778 90.1761ZM695.324 84.875C695.392 83.6364 696.29 82.5625 697.67 82.5625C698.989 82.5625 699.852 83.5398 699.858 84.875H695.324ZM707.084 90.1761C709.146 90.1761 710.482 88.9375 710.669 87.2386H709.016C708.8 88.1818 708.067 88.7386 707.095 88.7386C705.658 88.7386 704.732 87.5398 704.732 85.6364C704.732 83.767 705.675 82.5909 707.095 82.5909C708.175 82.5909 708.834 83.2727 709.016 84.0909H710.669C710.487 82.3295 709.05 81.1591 707.067 81.1591C704.607 81.1591 703.016 83.0114 703.016 85.6761C703.016 88.3068 704.55 90.1761 707.084 90.1761ZM716.56 81.2727H714.77V79.1818H713.071V81.2727H711.793V82.6364H713.071V87.7898C713.065 89.375 714.276 90.142 715.616 90.1136C716.156 90.108 716.52 90.0057 716.719 89.9318L716.412 88.5284C716.298 88.5511 716.088 88.6023 715.815 88.6023C715.264 88.6023 714.77 88.4205 714.77 87.4375V82.6364H716.56V81.2727ZM718.439 90H720.138V81.2727H718.439V90ZM719.297 79.9261C719.882 79.9261 720.371 79.4716 720.371 78.9148C720.371 78.358 719.882 77.8977 719.297 77.8977C718.706 77.8977 718.223 78.358 718.223 78.9148C718.223 79.4716 718.706 79.9261 719.297 79.9261ZM726.099 90.1761C728.56 90.1761 730.168 88.375 730.168 85.6761C730.168 82.9602 728.56 81.1591 726.099 81.1591C723.639 81.1591 722.031 82.9602 722.031 85.6761C722.031 88.375 723.639 90.1761 726.099 90.1761ZM726.105 88.75C724.497 88.75 723.747 87.3466 723.747 85.6705C723.747 84 724.497 82.5795 726.105 82.5795C727.702 82.5795 728.452 84 728.452 85.6705C728.452 87.3466 727.702 88.75 726.105 88.75ZM733.763 84.8182C733.763 83.4261 734.615 82.6307 735.797 82.6307C736.95 82.6307 737.649 83.3864 737.649 84.6534V90H739.348V84.4489C739.348 82.2898 738.161 81.1591 736.376 81.1591C735.064 81.1591 734.206 81.767 733.803 82.6932H733.695V81.2727H732.064V90H733.763V84.8182Z" fill="black"/>
<rect x="464" y="128" width="320" height="56" rx="3" fill="#FFDE9E"/>
<path d="M487.625 153.42H489.318C489.267 151.557 487.619 150.205 485.256 150.205C482.92 150.205 481.131 151.54 481.131 153.545C481.131 155.165 482.29 156.114 484.159 156.619L485.534 156.994C486.778 157.324 487.739 157.733 487.739 158.767C487.739 159.903 486.653 160.653 485.159 160.653C483.807 160.653 482.682 160.051 482.58 158.784H480.818C480.932 160.892 482.562 162.193 485.17 162.193C487.903 162.193 489.477 160.756 489.477 158.784C489.477 156.688 487.608 155.875 486.131 155.511L484.994 155.216C484.085 154.983 482.875 154.557 482.881 153.443C482.881 152.455 483.784 151.722 485.216 151.722C486.551 151.722 487.5 152.347 487.625 153.42ZM495.2 162.176C497.104 162.176 498.45 161.239 498.837 159.818L497.229 159.528C496.922 160.352 496.183 160.773 495.217 160.773C493.763 160.773 492.786 159.83 492.74 158.148H498.945V157.545C498.945 154.392 497.058 153.159 495.081 153.159C492.649 153.159 491.047 155.011 491.047 157.693C491.047 160.403 492.626 162.176 495.2 162.176ZM492.746 156.875C492.814 155.636 493.712 154.562 495.092 154.562C496.411 154.562 497.274 155.54 497.28 156.875H492.746ZM504.903 153.273H503.114V151.182H501.415V153.273H500.136V154.636H501.415V159.79C501.409 161.375 502.619 162.142 503.96 162.114C504.5 162.108 504.864 162.006 505.062 161.932L504.756 160.528C504.642 160.551 504.432 160.602 504.159 160.602C503.608 160.602 503.114 160.42 503.114 159.438V154.636H504.903V153.273ZM514.693 162.176C517.153 162.176 518.761 160.375 518.761 157.676C518.761 154.96 517.153 153.159 514.693 153.159C512.233 153.159 510.625 154.96 510.625 157.676C510.625 160.375 512.233 162.176 514.693 162.176ZM514.699 160.75C513.091 160.75 512.341 159.347 512.341 157.67C512.341 156 513.091 154.58 514.699 154.58C516.295 154.58 517.045 156 517.045 157.67C517.045 159.347 516.295 160.75 514.699 160.75ZM524.811 153.273H522.93V152.489C522.93 151.716 523.249 151.295 524.078 151.295C524.43 151.295 524.68 151.375 524.839 151.426L525.237 150.051C524.999 149.96 524.504 149.818 523.817 149.818C522.436 149.818 521.226 150.625 521.226 152.261V153.273H519.879V154.636H521.226V162H522.93V154.636H524.811V153.273ZM540.599 154.148C540.202 151.659 538.253 150.205 535.793 150.205C532.781 150.205 530.56 152.46 530.56 156.182C530.56 159.903 532.77 162.159 535.793 162.159C538.349 162.159 540.219 160.557 540.599 158.256L538.827 158.25C538.526 159.739 537.276 160.557 535.804 160.557C533.81 160.557 532.304 159.028 532.304 156.182C532.304 153.358 533.804 151.807 535.81 151.807C537.293 151.807 538.537 152.642 538.827 154.148H540.599ZM546.24 162.176C548.7 162.176 550.308 160.375 550.308 157.676C550.308 154.96 548.7 153.159 546.24 153.159C543.78 153.159 542.172 154.96 542.172 157.676C542.172 160.375 543.78 162.176 546.24 162.176ZM546.246 160.75C544.638 160.75 543.888 159.347 543.888 157.67C543.888 156 544.638 154.58 546.246 154.58C547.842 154.58 548.592 156 548.592 157.67C548.592 159.347 547.842 160.75 546.246 160.75ZM553.903 156.818C553.903 155.426 554.756 154.631 555.938 154.631C557.091 154.631 557.79 155.386 557.79 156.653V162H559.489V156.449C559.489 154.29 558.301 153.159 556.517 153.159C555.205 153.159 554.347 153.767 553.943 154.693H553.835V153.273H552.205V162H553.903V156.818ZM563.466 156.818C563.466 155.426 564.318 154.631 565.5 154.631C566.653 154.631 567.352 155.386 567.352 156.653V162H569.051V156.449C569.051 154.29 567.864 153.159 566.08 153.159C564.767 153.159 563.909 153.767 563.506 154.693H563.398V153.273H561.767V162H563.466V156.818ZM575.091 162.176C576.994 162.176 578.341 161.239 578.727 159.818L577.119 159.528C576.812 160.352 576.074 160.773 575.108 160.773C573.653 160.773 572.676 159.83 572.631 158.148H578.835V157.545C578.835 154.392 576.949 153.159 574.972 153.159C572.54 153.159 570.938 155.011 570.938 157.693C570.938 160.403 572.517 162.176 575.091 162.176ZM572.636 156.875C572.705 155.636 573.602 154.562 574.983 154.562C576.301 154.562 577.165 155.54 577.17 156.875H572.636ZM584.396 162.176C586.459 162.176 587.794 160.938 587.982 159.239H586.328C586.112 160.182 585.379 160.739 584.408 160.739C582.97 160.739 582.044 159.54 582.044 157.636C582.044 155.767 582.987 154.591 584.408 154.591C585.487 154.591 586.146 155.273 586.328 156.091H587.982C587.8 154.33 586.362 153.159 584.379 153.159C581.919 153.159 580.328 155.011 580.328 157.676C580.328 160.307 581.862 162.176 584.396 162.176ZM593.872 153.273H592.082V151.182H590.384V153.273H589.105V154.636H590.384V159.79C590.378 161.375 591.588 162.142 592.929 162.114C593.469 162.108 593.832 162.006 594.031 161.932L593.724 160.528C593.611 160.551 593.401 160.602 593.128 160.602C592.577 160.602 592.082 160.42 592.082 159.438V154.636H593.872V153.273ZM595.751 162H597.45V153.273H595.751V162ZM596.609 151.926C597.195 151.926 597.683 151.472 597.683 150.915C597.683 150.358 597.195 149.898 596.609 149.898C596.018 149.898 595.536 150.358 595.536 150.915C595.536 151.472 596.018 151.926 596.609 151.926ZM603.412 162.176C605.872 162.176 607.48 160.375 607.48 157.676C607.48 154.96 605.872 153.159 603.412 153.159C600.952 153.159 599.344 154.96 599.344 157.676C599.344 160.375 600.952 162.176 603.412 162.176ZM603.418 160.75C601.81 160.75 601.06 159.347 601.06 157.67C601.06 156 601.81 154.58 603.418 154.58C605.014 154.58 605.764 156 605.764 157.67C605.764 159.347 605.014 160.75 603.418 160.75ZM611.075 156.818C611.075 155.426 611.928 154.631 613.109 154.631C614.263 154.631 614.962 155.386 614.962 156.653V162H616.661V156.449C616.661 154.29 615.473 153.159 613.689 153.159C612.376 153.159 611.518 153.767 611.115 154.693H611.007V153.273H609.376V162H611.075V156.818ZM625.479 155.403C625.126 154.045 624.064 153.159 622.178 153.159C620.206 153.159 618.808 154.199 618.808 155.744C618.808 156.983 619.558 157.807 621.195 158.17L622.672 158.494C623.513 158.682 623.905 159.057 623.905 159.602C623.905 160.278 623.183 160.807 622.07 160.807C621.053 160.807 620.399 160.369 620.195 159.511L618.553 159.761C618.837 161.307 620.121 162.176 622.081 162.176C624.189 162.176 625.649 161.057 625.649 159.477C625.649 158.244 624.865 157.483 623.263 157.114L621.876 156.795C620.916 156.568 620.501 156.244 620.507 155.653C620.501 154.983 621.229 154.506 622.195 154.506C623.251 154.506 623.74 155.091 623.939 155.676L625.479 155.403Z" fill="black"/>
<rect x="448" y="216" width="352" height="128" rx="3" fill="#FFE4EC"/>
<path d="M475.108 242.29C474.75 239.705 472.761 238.205 470.182 238.205C467.142 238.205 464.852 240.42 464.852 244.182C464.852 247.938 467.114 250.159 470.182 250.159C472.949 250.159 474.784 248.369 475.108 246.148L472.983 246.136C472.716 247.5 471.602 248.267 470.21 248.267C468.324 248.267 466.972 246.852 466.972 244.182C466.972 241.557 468.312 240.097 470.216 240.097C471.631 240.097 472.739 240.898 472.983 242.29H475.108ZM479.004 238.364H476.947V250H479.004V238.364ZM481.119 250H483.176V241.273H481.119V250ZM482.153 240.034C482.807 240.034 483.341 239.534 483.341 238.92C483.341 238.301 482.807 237.801 482.153 237.801C481.494 237.801 480.96 238.301 480.96 238.92C480.96 239.534 481.494 240.034 482.153 240.034ZM485.291 253.273H487.348V248.625H487.433C487.757 249.261 488.433 250.153 489.933 250.153C491.99 250.153 493.53 248.523 493.53 245.648C493.53 242.739 491.945 241.159 489.928 241.159C488.388 241.159 487.746 242.085 487.433 242.716H487.314V241.273H485.291V253.273ZM487.308 245.636C487.308 243.943 488.036 242.847 489.359 242.847C490.729 242.847 491.433 244.011 491.433 245.636C491.433 247.273 490.717 248.466 489.359 248.466C488.047 248.466 487.308 247.33 487.308 245.636ZM495.382 250H497.405V248.625H497.524C497.848 249.261 498.524 250.153 500.024 250.153C502.081 250.153 503.621 248.523 503.621 245.648C503.621 242.739 502.036 241.159 500.018 241.159C498.479 241.159 497.837 242.085 497.524 242.716H497.439V238.364H495.382V250ZM497.399 245.636C497.399 243.943 498.126 242.847 499.45 242.847C500.82 242.847 501.524 244.011 501.524 245.636C501.524 247.273 500.808 248.466 499.45 248.466C498.138 248.466 497.399 247.33 497.399 245.636ZM509.176 250.17C511.733 250.17 513.358 248.369 513.358 245.67C513.358 242.966 511.733 241.159 509.176 241.159C506.619 241.159 504.994 242.966 504.994 245.67C504.994 248.369 506.619 250.17 509.176 250.17ZM509.188 248.523C507.773 248.523 507.08 247.261 507.08 245.665C507.08 244.068 507.773 242.79 509.188 242.79C510.58 242.79 511.273 244.068 511.273 245.665C511.273 247.261 510.58 248.523 509.188 248.523ZM517.615 250.176C518.984 250.176 519.803 249.534 520.178 248.801H520.246V250H522.223V244.159C522.223 241.852 520.342 241.159 518.678 241.159C516.842 241.159 515.433 241.977 514.979 243.568L516.899 243.841C517.104 243.244 517.683 242.733 518.689 242.733C519.643 242.733 520.166 243.222 520.166 244.08V244.114C520.166 244.705 519.547 244.733 518.007 244.898C516.314 245.08 514.695 245.585 514.695 247.551C514.695 249.267 515.95 250.176 517.615 250.176ZM518.149 248.665C517.291 248.665 516.678 248.273 516.678 247.517C516.678 246.727 517.365 246.398 518.286 246.267C518.825 246.193 519.905 246.057 520.172 245.841V246.869C520.172 247.841 519.388 248.665 518.149 248.665ZM524.291 250H526.348V244.869C526.348 243.761 527.183 242.977 528.314 242.977C528.661 242.977 529.092 243.04 529.268 243.097V241.205C529.081 241.17 528.757 241.148 528.53 241.148C527.53 241.148 526.695 241.716 526.376 242.727H526.286V241.273H524.291V250ZM533.514 250.153C535.014 250.153 535.69 249.261 536.014 248.625H536.139V250H538.162V238.364H536.099V242.716H536.014C535.702 242.085 535.06 241.159 533.52 241.159C531.503 241.159 529.918 242.739 529.918 245.648C529.918 248.523 531.457 250.153 533.514 250.153ZM534.088 248.466C532.73 248.466 532.014 247.273 532.014 245.636C532.014 244.011 532.719 242.847 534.088 242.847C535.412 242.847 536.139 243.943 536.139 245.636C536.139 247.33 535.401 248.466 534.088 248.466Z" fill="black"/>
<rect x="464" y="272" width="320" height="56" rx="3" fill="#FFC7CD"/>
<path d="M480.705 295.875H484.33V306H486.08V295.875H489.71V294.364H480.705V295.875ZM491.638 309.25C493.041 309.25 493.933 308.517 494.433 307.165L498.041 297.29L496.206 297.273L493.996 304.045H493.905L491.695 297.273H489.876L493.07 306.114L492.859 306.693C492.428 307.824 491.82 307.926 490.888 307.67L490.479 309.062C490.683 309.159 491.126 309.25 491.638 309.25ZM499.642 309.273H501.341V304.642H501.443C501.75 305.199 502.375 306.17 503.966 306.17C506.08 306.17 507.614 304.477 507.614 301.653C507.614 298.824 506.057 297.159 503.949 297.159C502.33 297.159 501.744 298.148 501.443 298.688H501.301V297.273H499.642V309.273ZM501.307 301.636C501.307 299.812 502.102 298.602 503.585 298.602C505.125 298.602 505.898 299.903 505.898 301.636C505.898 303.386 505.102 304.722 503.585 304.722C502.125 304.722 501.307 303.472 501.307 301.636ZM513.278 306.176C515.182 306.176 516.528 305.239 516.915 303.818L515.307 303.528C515 304.352 514.261 304.773 513.295 304.773C511.841 304.773 510.864 303.83 510.818 302.148H517.023V301.545C517.023 298.392 515.136 297.159 513.159 297.159C510.727 297.159 509.125 299.011 509.125 301.693C509.125 304.403 510.705 306.176 513.278 306.176ZM510.824 300.875C510.892 299.636 511.79 298.562 513.17 298.562C514.489 298.562 515.352 299.54 515.358 300.875H510.824ZM536.574 306.21L541.875 300.909L536.574 295.608L535.551 296.625L537.705 298.773H524V300.222H539.153L539.841 300.909L539.153 301.597H524V303.045H537.705L535.551 305.199L536.574 306.21ZM552.733 306C556.278 306 558.33 303.801 558.33 300.165C558.33 296.545 556.278 294.364 552.852 294.364H548.966V306H552.733ZM550.722 304.466V295.898H552.744C555.29 295.898 556.602 297.42 556.602 300.165C556.602 302.92 555.29 304.466 552.636 304.466H550.722ZM562.916 306.193C564.359 306.193 565.172 305.46 565.496 304.807H565.564V306H567.223V300.205C567.223 297.665 565.223 297.159 563.837 297.159C562.257 297.159 560.803 297.795 560.234 299.386L561.831 299.75C562.081 299.131 562.717 298.534 563.859 298.534C564.956 298.534 565.518 299.108 565.518 300.097V300.136C565.518 300.756 564.882 300.744 563.314 300.926C561.661 301.119 559.967 301.551 559.967 303.534C559.967 305.25 561.257 306.193 562.916 306.193ZM563.286 304.83C562.325 304.83 561.632 304.398 561.632 303.557C561.632 302.648 562.439 302.324 563.422 302.193C563.973 302.119 565.28 301.972 565.524 301.727V302.852C565.524 303.886 564.7 304.83 563.286 304.83ZM573.56 297.273H571.77V295.182H570.071V297.273H568.793V298.636H570.071V303.79C570.065 305.375 571.276 306.142 572.616 306.114C573.156 306.108 573.52 306.006 573.719 305.932L573.412 304.528C573.298 304.551 573.088 304.602 572.815 304.602C572.264 304.602 571.77 304.42 571.77 303.438V298.636H573.56V297.273ZM577.979 306.193C579.422 306.193 580.234 305.46 580.558 304.807H580.626V306H582.286V300.205C582.286 297.665 580.286 297.159 578.899 297.159C577.32 297.159 575.865 297.795 575.297 299.386L576.893 299.75C577.143 299.131 577.78 298.534 578.922 298.534C580.018 298.534 580.581 299.108 580.581 300.097V300.136C580.581 300.756 579.945 300.744 578.376 300.926C576.723 301.119 575.03 301.551 575.03 303.534C575.03 305.25 576.32 306.193 577.979 306.193ZM578.348 304.83C577.388 304.83 576.695 304.398 576.695 303.557C576.695 302.648 577.501 302.324 578.484 302.193C579.036 302.119 580.342 301.972 580.587 301.727V302.852C580.587 303.886 579.763 304.83 578.348 304.83Z" fill="black"/>
<rect x="16" y="16" width="352" height="208" rx="3" fill="#C6E1D4"/>
<path opacity="0.2" d="M336 172C386 172 386 156 432 156" stroke="black" stroke-width="2"/>
<rect x="10" y="10" width="352" height="208" rx="4" fill="white"/>
<rect x="8" y="8" width="352" height="208" rx="3" fill="#D0EBDE"/>
<path opacity="0.4" d="M336 164C386 164 386 156 432 156" stroke="black" stroke-width="2"/>
<rect x="2" y="2" width="352" height="208" rx="4" fill="white"/>
<rect width="352" height="208" rx="3" fill="#DAF5E8"/>
<path d="M19.5966 34H21.6761L24.0114 25.8352H24.1023L26.4318 34H28.5114L31.7955 22.3636H29.5284L27.4318 30.9205H27.3295L25.0852 22.3636H23.0227L20.7841 30.9148H20.6761L18.5795 22.3636H16.3125L19.5966 34ZM36.1392 34.1705C38.1733 34.1705 39.571 33.1761 39.9347 31.6591L38.0142 31.4432C37.7358 32.1818 37.054 32.5682 36.1676 32.5682C34.8381 32.5682 33.9574 31.6932 33.9403 30.1989H40.0199V29.5682C40.0199 26.5057 38.179 25.1591 36.0312 25.1591C33.5312 25.1591 31.9006 26.9943 31.9006 29.6875C31.9006 32.4261 33.5085 34.1705 36.1392 34.1705ZM33.946 28.8125C34.0085 27.6989 34.8324 26.7614 36.0597 26.7614C37.2415 26.7614 38.0369 27.625 38.0483 28.8125H33.946ZM41.8509 34H43.8736V32.625H43.9929C44.3168 33.2614 44.9929 34.1534 46.4929 34.1534C48.5497 34.1534 50.0895 32.5227 50.0895 29.6477C50.0895 26.7386 48.5043 25.1591 46.4872 25.1591C44.9474 25.1591 44.3054 26.0852 43.9929 26.7159H43.9077V22.3636H41.8509V34ZM43.8679 29.6364C43.8679 27.9432 44.5952 26.8466 45.919 26.8466C47.2884 26.8466 47.9929 28.0114 47.9929 29.6364C47.9929 31.2727 47.277 32.4659 45.919 32.4659C44.6065 32.4659 43.8679 31.3295 43.8679 29.6364ZM55.8068 37.2727H57.8636V32.625H57.9489C58.2727 33.2614 58.9489 34.1534 60.4489 34.1534C62.5057 34.1534 64.0455 32.5227 64.0455 29.6477C64.0455 26.7386 62.4602 25.1591 60.4432 25.1591C58.9034 25.1591 58.2614 26.0852 57.9489 26.7159H57.8295V25.2727H55.8068V37.2727ZM57.8239 29.6364C57.8239 27.9432 58.5511 26.8466 59.875 26.8466C61.2443 26.8466 61.9489 28.0114 61.9489 29.6364C61.9489 31.2727 61.233 32.4659 59.875 32.4659C58.5625 32.4659 57.8239 31.3295 57.8239 29.6364ZM68.3182 34.1761C69.6875 34.1761 70.5057 33.5341 70.8807 32.8011H70.9489V34H72.9261V28.1591C72.9261 25.8523 71.0455 25.1591 69.3807 25.1591C67.5455 25.1591 66.1364 25.9773 65.6818 27.5682L67.6023 27.8409C67.8068 27.2443 68.3864 26.733 69.392 26.733C70.3466 26.733 70.8693 27.2216 70.8693 28.0795V28.1136C70.8693 28.7045 70.25 28.733 68.7102 28.8977C67.017 29.0795 65.3977 29.5852 65.3977 31.5511C65.3977 33.267 66.6534 34.1761 68.3182 34.1761ZM68.8523 32.6648C67.9943 32.6648 67.3807 32.2727 67.3807 31.517C67.3807 30.7273 68.0682 30.3977 68.9886 30.267C69.5284 30.1932 70.608 30.0568 70.875 29.8409V30.8693C70.875 31.8409 70.0909 32.6648 68.8523 32.6648ZM78.7898 37.4205C81.1477 37.4205 82.8864 36.3409 82.8864 34.142V25.2727H80.858V26.7159H80.7443C80.4318 26.0852 79.7784 25.1591 78.2386 25.1591C76.2216 25.1591 74.6364 26.7386 74.6364 29.608C74.6364 32.4545 76.2216 33.875 78.233 33.875C79.7273 33.875 80.4261 33.0739 80.7443 32.4318H80.8466V34.0852C80.8466 35.3352 79.9943 35.8636 78.8239 35.8636C77.5852 35.8636 77.0398 35.2784 76.7898 34.8011L74.9375 35.25C75.3125 36.4375 76.5682 37.4205 78.7898 37.4205ZM78.8068 32.2614C77.4489 32.2614 76.733 31.2045 76.733 29.5966C76.733 28.0114 77.4375 26.8466 78.8068 26.8466C80.1307 26.8466 80.858 27.9432 80.858 29.5966C80.858 31.2614 80.1193 32.2614 78.8068 32.2614ZM88.858 34.1705C90.892 34.1705 92.2898 33.1761 92.6534 31.6591L90.733 31.4432C90.4545 32.1818 89.7727 32.5682 88.8864 32.5682C87.5568 32.5682 86.6761 31.6932 86.6591 30.1989H92.7386V29.5682C92.7386 26.5057 90.8977 25.1591 88.75 25.1591C86.25 25.1591 84.6193 26.9943 84.6193 29.6875C84.6193 32.4261 86.2273 34.1705 88.858 34.1705ZM86.6648 28.8125C86.7273 27.6989 87.5511 26.7614 88.7784 26.7614C89.9602 26.7614 90.7557 27.625 90.767 28.8125H86.6648Z" fill="black"/>
<rect x="16" y="56" width="320" height="56" rx="3" fill="#93EDB2"/>
<path d="M33.2784 78.3636V90H34.9489V81.5739H35.0568L38.4886 89.983H39.875L43.3068 81.5795H43.4148V90H45.0852V78.3636H42.9545L39.25 87.4091H39.1136L35.4091 78.3636H33.2784ZM50.0412 90.1932C51.4844 90.1932 52.2969 89.4602 52.6207 88.8068H52.6889V90H54.348V84.2045C54.348 81.6648 52.348 81.1591 50.9616 81.1591C49.3821 81.1591 47.9276 81.7955 47.3594 83.3864L48.956 83.75C49.206 83.1307 49.8423 82.5341 50.9844 82.5341C52.081 82.5341 52.6435 83.108 52.6435 84.0966V84.1364C52.6435 84.7557 52.0071 84.7443 50.4389 84.9261C48.7855 85.1193 47.0923 85.5511 47.0923 87.5341C47.0923 89.25 48.3821 90.1932 50.0412 90.1932ZM50.4105 88.8295C49.4503 88.8295 48.7571 88.3977 48.7571 87.5568C48.7571 86.6477 49.5639 86.3239 50.5469 86.1932C51.098 86.1193 52.4048 85.9716 52.6491 85.7273V86.8523C52.6491 87.8864 51.8253 88.8295 50.4105 88.8295ZM56.6108 93.2727H58.3097V88.642H58.4119C58.7188 89.1989 59.3438 90.1705 60.9347 90.1705C63.0483 90.1705 64.5824 88.4773 64.5824 85.6534C64.5824 82.8239 63.0256 81.1591 60.9176 81.1591C59.2983 81.1591 58.7131 82.1477 58.4119 82.6875H58.2699V81.2727H56.6108V93.2727ZM58.2756 85.6364C58.2756 83.8125 59.071 82.6023 60.554 82.6023C62.0938 82.6023 62.8665 83.9034 62.8665 85.6364C62.8665 87.3864 62.071 88.7216 60.554 88.7216C59.0938 88.7216 58.2756 87.4716 58.2756 85.6364ZM74.3963 90.1761C76.8565 90.1761 78.4645 88.375 78.4645 85.6761C78.4645 82.9602 76.8565 81.1591 74.3963 81.1591C71.9361 81.1591 70.3281 82.9602 70.3281 85.6761C70.3281 88.375 71.9361 90.1761 74.3963 90.1761ZM74.402 88.75C72.794 88.75 72.044 87.3466 72.044 85.6705C72.044 84 72.794 82.5795 74.402 82.5795C75.9986 82.5795 76.7486 84 76.7486 85.6705C76.7486 87.3466 75.9986 88.75 74.402 88.75ZM84.5142 81.2727H82.6335V80.4886C82.6335 79.7159 82.9517 79.2955 83.7812 79.2955C84.1335 79.2955 84.3835 79.375 84.5426 79.4261L84.9403 78.0511C84.7017 77.9602 84.2074 77.8182 83.5199 77.8182C82.1392 77.8182 80.929 78.625 80.929 80.2614V81.2727H79.5824V82.6364H80.929V90H82.6335V82.6364H84.5142V81.2727ZM90.6378 90H92.3935V85.9091H94.7798C97.4787 85.9091 98.8139 84.2784 98.8139 82.1307C98.8139 79.9886 97.4901 78.3636 94.7855 78.3636H90.6378V90ZM92.3935 84.4205V79.8693H94.598C96.3366 79.8693 97.0469 80.8125 97.0469 82.1307C97.0469 83.4489 96.3366 84.4205 94.6207 84.4205H92.3935ZM100.736 90H102.435V84.6705C102.435 83.5284 103.315 82.7045 104.52 82.7045C104.872 82.7045 105.27 82.767 105.406 82.8068V81.1818C105.236 81.1591 104.901 81.142 104.685 81.142C103.662 81.142 102.787 81.7216 102.469 82.6591H102.378V81.2727H100.736V90ZM110.24 90.1761C112.7 90.1761 114.308 88.375 114.308 85.6761C114.308 82.9602 112.7 81.1591 110.24 81.1591C107.78 81.1591 106.172 82.9602 106.172 85.6761C106.172 88.375 107.78 90.1761 110.24 90.1761ZM110.246 88.75C108.638 88.75 107.888 87.3466 107.888 85.6705C107.888 84 108.638 82.5795 110.246 82.5795C111.842 82.5795 112.592 84 112.592 85.6705C112.592 87.3466 111.842 88.75 110.246 88.75ZM116.205 90H117.903V84.6193C117.903 83.4432 118.727 82.625 119.693 82.625C120.636 82.625 121.29 83.25 121.29 84.1989V90H122.983V84.4375C122.983 83.3864 123.625 82.625 124.733 82.625C125.631 82.625 126.369 83.125 126.369 84.3068V90H128.068V84.1477C128.068 82.1534 126.955 81.1591 125.375 81.1591C124.119 81.1591 123.176 81.7614 122.756 82.6932H122.665C122.284 81.7386 121.483 81.1591 120.318 81.1591C119.165 81.1591 118.307 81.733 117.943 82.6932H117.835V81.2727H116.205V90ZM130.345 90H132.044V81.2727H130.345V90ZM131.203 79.9261C131.788 79.9261 132.277 79.4716 132.277 78.9148C132.277 78.358 131.788 77.8977 131.203 77.8977C130.612 77.8977 130.129 78.358 130.129 78.9148C130.129 79.4716 130.612 79.9261 131.203 79.9261ZM140.869 83.4034C140.517 82.0455 139.455 81.1591 137.568 81.1591C135.597 81.1591 134.199 82.1989 134.199 83.7443C134.199 84.983 134.949 85.8068 136.585 86.1705L138.062 86.4943C138.903 86.6818 139.295 87.0568 139.295 87.6023C139.295 88.2784 138.574 88.8068 137.46 88.8068C136.443 88.8068 135.79 88.3693 135.585 87.5114L133.943 87.7614C134.227 89.3068 135.511 90.1761 137.472 90.1761C139.58 90.1761 141.04 89.0568 141.04 87.4773C141.04 86.2443 140.256 85.483 138.653 85.1136L137.267 84.7955C136.307 84.5682 135.892 84.2443 135.898 83.6534C135.892 82.983 136.619 82.5057 137.585 82.5057C138.642 82.5057 139.131 83.0909 139.33 83.6761L140.869 83.4034ZM146.669 90.1761C148.572 90.1761 149.919 89.2386 150.305 87.8182L148.697 87.5284C148.391 88.3523 147.652 88.7727 146.686 88.7727C145.232 88.7727 144.254 87.8295 144.209 86.1477H150.413V85.5455C150.413 82.392 148.527 81.1591 146.55 81.1591C144.118 81.1591 142.516 83.0114 142.516 85.6932C142.516 88.4034 144.095 90.1761 146.669 90.1761ZM144.214 84.875C144.283 83.6364 145.18 82.5625 146.561 82.5625C147.879 82.5625 148.743 83.5398 148.749 84.875H144.214ZM157.44 84.3466H152.281V85.8182H157.44V84.3466ZM161.597 78.3636H159.841V90H161.597V78.3636ZM167.92 90C171.466 90 173.517 87.8011 173.517 84.1648C173.517 80.5455 171.466 78.3636 168.04 78.3636H164.153V90H167.92ZM165.909 88.4659V79.8977H167.932C170.477 79.8977 171.79 81.4205 171.79 84.1648C171.79 86.9205 170.477 88.4659 167.824 88.4659H165.909ZM193.23 89.483L198.531 84.1818L193.23 78.8807L192.207 79.8977L194.361 82.0455H180.656V83.4943H195.81L196.497 84.1818L195.81 84.8693H180.656V86.3182H194.361L192.207 88.4716L193.23 89.483ZM209.389 90C212.935 90 214.986 87.8011 214.986 84.1648C214.986 80.5455 212.935 78.3636 209.509 78.3636H205.622V90H209.389ZM207.378 88.4659V79.8977H209.401C211.946 79.8977 213.259 81.4205 213.259 84.1648C213.259 86.9205 211.946 88.4659 209.293 88.4659H207.378ZM219.572 90.1932C221.016 90.1932 221.828 89.4602 222.152 88.8068H222.22V90H223.879V84.2045C223.879 81.6648 221.879 81.1591 220.493 81.1591C218.913 81.1591 217.459 81.7955 216.891 83.3864L218.487 83.75C218.737 83.1307 219.374 82.5341 220.516 82.5341C221.612 82.5341 222.175 83.108 222.175 84.0966V84.1364C222.175 84.7557 221.538 84.7443 219.97 84.9261C218.317 85.1193 216.624 85.5511 216.624 87.5341C216.624 89.25 217.913 90.1932 219.572 90.1932ZM219.942 88.8295C218.982 88.8295 218.288 88.3977 218.288 87.5568C218.288 86.6477 219.095 86.3239 220.078 86.1932C220.629 86.1193 221.936 85.9716 222.18 85.7273V86.8523C222.18 87.8864 221.357 88.8295 219.942 88.8295ZM230.216 81.2727H228.426V79.1818H226.727V81.2727H225.449V82.6364H226.727V87.7898C226.722 89.375 227.932 90.142 229.273 90.1136C229.812 90.108 230.176 90.0057 230.375 89.9318L230.068 88.5284C229.955 88.5511 229.744 88.6023 229.472 88.6023C228.92 88.6023 228.426 88.4205 228.426 87.4375V82.6364H230.216V81.2727ZM234.635 90.1932C236.078 90.1932 236.891 89.4602 237.214 88.8068H237.283V90H238.942V84.2045C238.942 81.6648 236.942 81.1591 235.555 81.1591C233.976 81.1591 232.521 81.7955 231.953 83.3864L233.55 83.75C233.8 83.1307 234.436 82.5341 235.578 82.5341C236.675 82.5341 237.237 83.108 237.237 84.0966V84.1364C237.237 84.7557 236.601 84.7443 235.033 84.9261C233.379 85.1193 231.686 85.5511 231.686 87.5341C231.686 89.25 232.976 90.1932 234.635 90.1932ZM235.004 88.8295C234.044 88.8295 233.351 88.3977 233.351 87.5568C233.351 86.6477 234.158 86.3239 235.141 86.1932C235.692 86.1193 236.999 85.9716 237.243 85.7273V86.8523C237.243 87.8864 236.419 88.8295 235.004 88.8295ZM245.439 90H247.138V84.6705C247.138 83.5284 248.018 82.7045 249.223 82.7045C249.575 82.7045 249.973 82.767 250.109 82.8068V81.1818C249.939 81.1591 249.604 81.142 249.388 81.142C248.365 81.142 247.49 81.7216 247.172 82.6591H247.081V81.2727H245.439V90ZM255.028 90.1761C256.932 90.1761 258.278 89.2386 258.665 87.8182L257.057 87.5284C256.75 88.3523 256.011 88.7727 255.045 88.7727C253.591 88.7727 252.614 87.8295 252.568 86.1477H258.773V85.5455C258.773 82.392 256.886 81.1591 254.909 81.1591C252.477 81.1591 250.875 83.0114 250.875 85.6932C250.875 88.4034 252.455 90.1761 255.028 90.1761ZM252.574 84.875C252.642 83.6364 253.54 82.5625 254.92 82.5625C256.239 82.5625 257.102 83.5398 257.108 84.875H252.574ZM267.197 83.4034C266.845 82.0455 265.783 81.1591 263.896 81.1591C261.925 81.1591 260.527 82.1989 260.527 83.7443C260.527 84.983 261.277 85.8068 262.913 86.1705L264.391 86.4943C265.232 86.6818 265.624 87.0568 265.624 87.6023C265.624 88.2784 264.902 88.8068 263.788 88.8068C262.771 88.8068 262.118 88.3693 261.913 87.5114L260.271 87.7614C260.555 89.3068 261.839 90.1761 263.8 90.1761C265.908 90.1761 267.368 89.0568 267.368 87.4773C267.368 86.2443 266.584 85.483 264.982 85.1136L263.595 84.7955C262.635 84.5682 262.22 84.2443 262.226 83.6534C262.22 82.983 262.947 82.5057 263.913 82.5057C264.97 82.5057 265.459 83.0909 265.658 83.6761L267.197 83.4034ZM272.912 90.1761C275.372 90.1761 276.98 88.375 276.98 85.6761C276.98 82.9602 275.372 81.1591 272.912 81.1591C270.452 81.1591 268.844 82.9602 268.844 85.6761C268.844 88.375 270.452 90.1761 272.912 90.1761ZM272.918 88.75C271.31 88.75 270.56 87.3466 270.56 85.6705C270.56 84 271.31 82.5795 272.918 82.5795C274.514 82.5795 275.264 84 275.264 85.6705C275.264 87.3466 274.514 88.75 272.918 88.75ZM280.575 78.3636H278.876V90H280.575V78.3636ZM290.327 81.2727H288.503L286.298 87.9886H286.207L283.997 81.2727H282.173L285.344 90H287.162L290.327 81.2727ZM295.372 90.1761C297.276 90.1761 298.622 89.2386 299.009 87.8182L297.401 87.5284C297.094 88.3523 296.355 88.7727 295.389 88.7727C293.935 88.7727 292.957 87.8295 292.912 86.1477H299.116V85.5455C299.116 82.392 297.23 81.1591 295.253 81.1591C292.821 81.1591 291.219 83.0114 291.219 85.6932C291.219 88.4034 292.798 90.1761 295.372 90.1761ZM292.918 84.875C292.986 83.6364 293.884 82.5625 295.264 82.5625C296.582 82.5625 297.446 83.5398 297.452 84.875H292.918ZM301.001 90H302.7V84.6705C302.7 83.5284 303.581 82.7045 304.786 82.7045C305.138 82.7045 305.536 82.767 305.672 82.8068V81.1818C305.501 81.1591 305.166 81.142 304.95 81.142C303.928 81.142 303.053 81.7216 302.734 82.6591H302.643V81.2727H301.001V90Z" fill="black"/>
<rect x="16" y="128" width="320" height="56" rx="3" fill="#93EDB2"/>
<path d="M42.9432 154.148C42.5455 151.659 40.5966 150.205 38.1364 150.205C35.125 150.205 32.9034 152.46 32.9034 156.182C32.9034 159.903 35.1136 162.159 38.1364 162.159C40.6932 162.159 42.5625 160.557 42.9432 158.256L41.1705 158.25C40.8693 159.739 39.6193 160.557 38.1477 160.557C36.1534 160.557 34.6477 159.028 34.6477 156.182C34.6477 153.358 36.1477 151.807 38.1534 151.807C39.6364 151.807 40.8807 152.642 41.1705 154.148H42.9432ZM48.5838 162.176C51.044 162.176 52.652 160.375 52.652 157.676C52.652 154.96 51.044 153.159 48.5838 153.159C46.1236 153.159 44.5156 154.96 44.5156 157.676C44.5156 160.375 46.1236 162.176 48.5838 162.176ZM48.5895 160.75C46.9815 160.75 46.2315 159.347 46.2315 157.67C46.2315 156 46.9815 154.58 48.5895 154.58C50.1861 154.58 50.9361 156 50.9361 157.67C50.9361 159.347 50.1861 160.75 48.5895 160.75ZM56.2472 156.818C56.2472 155.426 57.0994 154.631 58.2812 154.631C59.4347 154.631 60.1335 155.386 60.1335 156.653V162H61.8324V156.449C61.8324 154.29 60.6449 153.159 58.8608 153.159C57.5483 153.159 56.6903 153.767 56.2869 154.693H56.179V153.273H54.5483V162H56.2472V156.818ZM65.8097 156.818C65.8097 155.426 66.6619 154.631 67.8438 154.631C68.9972 154.631 69.696 155.386 69.696 156.653V162H71.3949V156.449C71.3949 154.29 70.2074 153.159 68.4233 153.159C67.1108 153.159 66.2528 153.767 65.8494 154.693H65.7415V153.273H64.1108V162H65.8097V156.818ZM77.4347 162.176C79.3381 162.176 80.6847 161.239 81.071 159.818L79.4631 159.528C79.1562 160.352 78.4176 160.773 77.4517 160.773C75.9972 160.773 75.0199 159.83 74.9744 158.148H81.179V157.545C81.179 154.392 79.2926 153.159 77.3153 153.159C74.8835 153.159 73.2812 155.011 73.2812 157.693C73.2812 160.403 74.8608 162.176 77.4347 162.176ZM74.9801 156.875C75.0483 155.636 75.946 154.562 77.3267 154.562C78.6449 154.562 79.5085 155.54 79.5142 156.875H74.9801ZM86.7401 162.176C88.8026 162.176 90.1378 160.938 90.3253 159.239H88.6719C88.456 160.182 87.723 160.739 86.7514 160.739C85.3139 160.739 84.3878 159.54 84.3878 157.636C84.3878 155.767 85.331 154.591 86.7514 154.591C87.831 154.591 88.4901 155.273 88.6719 156.091H90.3253C90.1435 154.33 88.706 153.159 86.723 153.159C84.2628 153.159 82.6719 155.011 82.6719 157.676C82.6719 160.307 84.206 162.176 86.7401 162.176ZM96.2159 153.273H94.4261V151.182H92.7273V153.273H91.4489V154.636H92.7273V159.79C92.7216 161.375 93.9318 162.142 95.2727 162.114C95.8125 162.108 96.1761 162.006 96.375 161.932L96.0682 160.528C95.9545 160.551 95.7443 160.602 95.4716 160.602C94.9205 160.602 94.4261 160.42 94.4261 159.438V154.636H96.2159V153.273ZM98.0952 162H99.794V153.273H98.0952V162ZM98.9531 151.926C99.5384 151.926 100.027 151.472 100.027 150.915C100.027 150.358 99.5384 149.898 98.9531 149.898C98.3622 149.898 97.8793 150.358 97.8793 150.915C97.8793 151.472 98.3622 151.926 98.9531 151.926ZM105.756 162.176C108.216 162.176 109.824 160.375 109.824 157.676C109.824 154.96 108.216 153.159 105.756 153.159C103.295 153.159 101.688 154.96 101.688 157.676C101.688 160.375 103.295 162.176 105.756 162.176ZM105.761 160.75C104.153 160.75 103.403 159.347 103.403 157.67C103.403 156 104.153 154.58 105.761 154.58C107.358 154.58 108.108 156 108.108 157.67C108.108 159.347 107.358 160.75 105.761 160.75ZM113.419 156.818C113.419 155.426 114.271 154.631 115.453 154.631C116.607 154.631 117.305 155.386 117.305 156.653V162H119.004V156.449C119.004 154.29 117.817 153.159 116.033 153.159C114.72 153.159 113.862 153.767 113.459 154.693H113.351V153.273H111.72V162H113.419V156.818ZM129.591 153.273H127.801V151.182H126.102V153.273H124.824V154.636H126.102V159.79C126.097 161.375 127.307 162.142 128.648 162.114C129.188 162.108 129.551 162.006 129.75 161.932L129.443 160.528C129.33 160.551 129.119 160.602 128.847 160.602C128.295 160.602 127.801 160.42 127.801 159.438V154.636H129.591V153.273ZM135.053 162.176C137.513 162.176 139.121 160.375 139.121 157.676C139.121 154.96 137.513 153.159 135.053 153.159C132.592 153.159 130.984 154.96 130.984 157.676C130.984 160.375 132.592 162.176 135.053 162.176ZM135.058 160.75C133.45 160.75 132.7 159.347 132.7 157.67C132.7 156 133.45 154.58 135.058 154.58C136.655 154.58 137.405 156 137.405 157.67C137.405 159.347 136.655 160.75 135.058 160.75ZM151.734 153.42H153.428C153.376 151.557 151.729 150.205 149.365 150.205C147.03 150.205 145.24 151.54 145.24 153.545C145.24 155.165 146.399 156.114 148.268 156.619L149.643 156.994C150.888 157.324 151.848 157.733 151.848 158.767C151.848 159.903 150.763 160.653 149.268 160.653C147.916 160.653 146.791 160.051 146.689 158.784H144.928C145.041 160.892 146.672 162.193 149.28 162.193C152.013 162.193 153.587 160.756 153.587 158.784C153.587 156.688 151.717 155.875 150.24 155.511L149.104 155.216C148.195 154.983 146.984 154.557 146.99 153.443C146.99 152.455 147.893 151.722 149.325 151.722C150.661 151.722 151.609 152.347 151.734 153.42ZM157.247 156.818C157.247 155.426 158.128 154.631 159.338 154.631C160.509 154.631 161.207 155.375 161.207 156.653V162H162.906V156.449C162.906 154.273 161.713 153.159 159.918 153.159C158.56 153.159 157.741 153.75 157.332 154.693H157.224V150.364H155.548V162H157.247V156.818ZM167.713 162.193C169.156 162.193 169.969 161.46 170.293 160.807H170.361V162H172.02V156.205C172.02 153.665 170.02 153.159 168.634 153.159C167.054 153.159 165.599 153.795 165.031 155.386L166.628 155.75C166.878 155.131 167.514 154.534 168.656 154.534C169.753 154.534 170.315 155.108 170.315 156.097V156.136C170.315 156.756 169.679 156.744 168.111 156.926C166.457 157.119 164.764 157.551 164.764 159.534C164.764 161.25 166.054 162.193 167.713 162.193ZM168.082 160.83C167.122 160.83 166.429 160.398 166.429 159.557C166.429 158.648 167.236 158.324 168.219 158.193C168.77 158.119 170.077 157.972 170.321 157.727V158.852C170.321 159.886 169.497 160.83 168.082 160.83ZM174.283 162H175.982V156.67C175.982 155.528 176.862 154.705 178.067 154.705C178.419 154.705 178.817 154.767 178.953 154.807V153.182C178.783 153.159 178.447 153.142 178.232 153.142C177.209 153.142 176.334 153.722 176.016 154.659H175.925V153.273H174.283V162ZM183.872 162.176C185.776 162.176 187.122 161.239 187.509 159.818L185.901 159.528C185.594 160.352 184.855 160.773 183.889 160.773C182.435 160.773 181.457 159.83 181.412 158.148H187.616V157.545C187.616 154.392 185.73 153.159 183.753 153.159C181.321 153.159 179.719 155.011 179.719 157.693C179.719 160.403 181.298 162.176 183.872 162.176ZM181.418 156.875C181.486 155.636 182.384 154.562 183.764 154.562C185.082 154.562 185.946 155.54 185.952 156.875H181.418ZM192.768 162.17C194.359 162.17 194.984 161.199 195.291 160.642H195.433V162H197.092V150.364H195.393V154.688H195.291C194.984 154.148 194.405 153.159 192.78 153.159C190.672 153.159 189.121 154.824 189.121 157.653C189.121 160.477 190.649 162.17 192.768 162.17ZM193.143 160.722C191.626 160.722 190.837 159.386 190.837 157.636C190.837 155.903 191.609 154.602 193.143 154.602C194.626 154.602 195.422 155.812 195.422 157.636C195.422 159.472 194.609 160.722 193.143 160.722ZM206.166 162H207.939L210.388 153.284H210.479L212.928 162H214.695L217.928 150.364H216.075L213.814 159.381H213.706L211.348 150.364H209.518L207.161 159.375H207.053L204.786 150.364H202.939L206.166 162ZM222.209 162.176C224.669 162.176 226.277 160.375 226.277 157.676C226.277 154.96 224.669 153.159 222.209 153.159C219.749 153.159 218.141 154.96 218.141 157.676C218.141 160.375 219.749 162.176 222.209 162.176ZM222.214 160.75C220.607 160.75 219.857 159.347 219.857 157.67C219.857 156 220.607 154.58 222.214 154.58C223.811 154.58 224.561 156 224.561 157.67C224.561 159.347 223.811 160.75 222.214 160.75ZM228.173 162H229.872V156.67C229.872 155.528 230.753 154.705 231.957 154.705C232.31 154.705 232.707 154.767 232.844 154.807V153.182C232.673 153.159 232.338 153.142 232.122 153.142C231.099 153.142 230.224 153.722 229.906 154.659H229.815V153.273H228.173V162ZM234.314 162H236.013V158.903L236.859 158.057L239.825 162H241.911L238.138 157.017L241.672 153.273H239.638L236.161 156.966H236.013V150.364H234.314V162ZM246.622 162.176C248.526 162.176 249.872 161.239 250.259 159.818L248.651 159.528C248.344 160.352 247.605 160.773 246.639 160.773C245.185 160.773 244.207 159.83 244.162 158.148H250.366V157.545C250.366 154.392 248.48 153.159 246.503 153.159C244.071 153.159 242.469 155.011 242.469 157.693C242.469 160.403 244.048 162.176 246.622 162.176ZM244.168 156.875C244.236 155.636 245.134 154.562 246.514 154.562C247.832 154.562 248.696 155.54 248.702 156.875H244.168ZM252.251 162H253.95V156.67C253.95 155.528 254.831 154.705 256.036 154.705C256.388 154.705 256.786 154.767 256.922 154.807V153.182C256.751 153.159 256.416 153.142 256.2 153.142C255.178 153.142 254.303 153.722 253.984 154.659H253.893V153.273H252.251V162Z" fill="black"/>
<path d="M336 156L464 156" stroke="black" stroke-width="2"/>
<circle cx="464" cy="156" r="4" fill="black"/>
<circle cx="336" cy="156" r="4" fill="black"/>
</svg>
